<?xml version="1.0" encoding="UTF-8" standalone="no"?>
<!DOCTYPE svg PUBLIC "-//W3C//DTD SVG 1.1//EN" "http://www.w3.org/Graphics/SVG/1.1/DTD/svg11.dtd">
<svg width="100%" height="100%" viewBox="0 0 100 100" version="1.1" xmlns="http://www.w3.org/2000/svg" xmlns:xlink="http://www.w3.org/1999/xlink" xml:space="preserve" xmlns:serif="http://www.serif.com/" style="fill-rule:evenodd;clip-rule:evenodd;stroke-linecap:round;stroke-linejoin:round;">
    <g transform="matrix(0.149925,0,0,0.149925,0,10.2699)">
        <g transform="matrix(1,0,0,1.15246,-66.5,-183.913)">
            <path d="M133.333,233.335L340,388.333C375.557,415 424.443,415 460,388.333L666.667,233.333" style="fill:none;fill-rule:nonzero;stroke:white;stroke-width:61.2px;"/>
        </g>
        <g transform="matrix(1,0,0,1,-66,-135)">
            <path d="M733,230.4L733,569.6C733,622.253 690.253,665 637.6,665L161.4,665C108.747,665 66,622.253 66,569.6L66,230.4C66,177.747 108.747,135 161.4,135L637.6,135C690.253,135 733,177.747 733,230.4ZM667,230.4C667,214.174 653.826,201 637.6,201L161.4,201C145.174,201 132,214.174 132,230.4L132,569.6C132,585.826 145.174,599 161.4,599L637.6,599C653.826,599 667,585.826 667,569.6L667,230.4Z" style="fill:white;"/>
        </g>
    </g>
</svg>
