solid exported
	facet normal 0.6495154922156179 -0.7250609249873943 0.22894602077417306
		outer loop
			vertex 7.500000238418579 7.5 -2.7893381118774414
			vertex 4.800578236579895 3.5943920612335205 -7.5
			vertex 7.500000238418579 6.012556314468384 -7.5
		endloop
	endfacet
	facet normal 0.6495155333920725 -0.7250609016591494 0.22894597783676623
		outer loop
			vertex 7.500000238418579 7.5 -2.7893381118774414
			vertex 1.6048738956451416 2.4757866859436035 -1.9764149188995361
			vertex 4.800578236579895 3.5943920612335205 -7.5
		endloop
	endfacet
	facet normal 0.6495155243372789 -0.7250608713448343 0.22894609952899247
		outer loop
			vertex 7.500000238418579 7.5 -2.7893381118774414
			vertex 2.9210358262062073 4.220009088516235 -0.18647480010986328
			vertex 1.6048738956451416 2.4757866859436035 -1.9764149188995361
		endloop
	endfacet
	facet normal 0.6495155278668494 -0.7250608628371105 0.2289461164592072
		outer loop
			vertex 7.500000238418579 7.5 -2.7893381118774414
			vertex 3.5880692303180695 4.873344659805298 -0.009754180908203125
			vertex 2.9210358262062073 4.220009088516235 -0.18647480010986328
		endloop
	endfacet
	facet normal 0.649515545617345 -0.7250608289304605 0.22894617348205706
		outer loop
			vertex 7.500000238418579 7.5 -2.7893381118774414
			vertex 6.974686145782471 7.5 -1.2990329265594482
			vertex 3.5880692303180695 4.873344659805298 -0.009754180908203125
		endloop
	endfacet
	facet normal 1 0 0
		outer loop
			vertex 7.500000238418579 7.5 -2.7893381118774414
			vertex 7.500000238418579 6.012556314468384 -7.5
			vertex 7.500000238418579 7.5 -7.5
		endloop
	endfacet
	facet normal 0 1 0
		outer loop
			vertex 7.500000238418579 7.5 -2.7893381118774414
			vertex 4.04965215921402 7.5 0.11253595352172852
			vertex 6.974686145782471 7.5 -1.2990329265594482
		endloop
	endfacet
	facet normal 0 1 0
		outer loop
			vertex 7.500000238418579 7.5 -2.7893381118774414
			vertex 2.9210358262062073 7.5 -0.18647480010986328
			vertex 4.04965215921402 7.5 0.11253595352172852
		endloop
	endfacet
	facet normal 0 1 0
		outer loop
			vertex 7.500000238418579 7.5 -2.7893381118774414
			vertex -0.8462302684783936 7.5 -5.309841752052307
			vertex 2.9210358262062073 7.5 -0.18647480010986328
		endloop
	endfacet
	facet normal 0 1 0
		outer loop
			vertex 7.500000238418579 7.5 -2.7893381118774414
			vertex 0.05415463447570801 7.5 -7.5
			vertex -0.8462302684783936 7.5 -5.309841752052307
		endloop
	endfacet
	facet normal 0 1 0
		outer loop
			vertex 7.500000238418579 7.5 -2.7893381118774414
			vertex 7.500000238418579 7.5 -7.5
			vertex 0.05415463447570801 7.5 -7.5
		endloop
	endfacet
	facet normal -0.8474096359953072 -0.40066476895651143 -0.3483742983334543
		outer loop
			vertex 0.05415463447570801 7.5 -7.5
			vertex 0.4527771472930908 3.216536045074463 -3.543231248855591
			vertex -0.8462302684783936 7.5 -5.309841752052307
		endloop
	endfacet
	facet normal -0.8474096377270037 -0.40066476714798205 -0.3483742962011428
		outer loop
			vertex 0.05415463447570801 7.5 -7.5
			vertex 1.588362216949463 4.255136966705322 -7.5
			vertex 0.4527771472930908 3.216536045074463 -3.543231248855591
		endloop
	endfacet
	facet normal 0 0 -1
		outer loop
			vertex 0.05415463447570801 7.5 -7.5
			vertex 4.800578236579895 3.5943920612335205 -7.5
			vertex 1.588362216949463 4.255136966705322 -7.5
		endloop
	endfacet
	facet normal 0 0 -1
		outer loop
			vertex 0.05415463447570801 7.5 -7.5
			vertex 7.500000238418579 6.012556314468384 -7.5
			vertex 4.800578236579895 3.5943920612335205 -7.5
		endloop
	endfacet
	facet normal 0 0 -1
		outer loop
			vertex 0.05415463447570801 7.5 -7.5
			vertex 7.500000238418579 7.5 -7.5
			vertex 7.500000238418579 6.012556314468384 -7.5
		endloop
	endfacet
	facet normal -0.1921745749701362 -0.9342580520449966 -0.3003844618553631
		outer loop
			vertex 4.800578236579895 3.5943920612335205 -7.5
			vertex 0.4527771472930908 3.216536045074463 -3.543231248855591
			vertex 1.588362216949463 4.255136966705322 -7.5
		endloop
	endfacet
	facet normal -0.19217459697028022 -0.934258040113391 -0.30038448489027547
		outer loop
			vertex 4.800578236579895 3.5943920612335205 -7.5
			vertex 1.6048738956451416 2.4757866859436035 -1.9764149188995361
			vertex 0.4527771472930908 3.216536045074463 -3.543231248855591
		endloop
	endfacet
	facet normal -0.8056446700607869 0 0.5923990763013105
		outer loop
			vertex -0.8462302684783936 7.5 -5.309841752052307
			vertex 2.9210358262062073 4.220009088516235 -0.18647480010986328
			vertex 2.9210358262062073 7.5 -0.18647480010986328
		endloop
	endfacet
	facet normal -0.8056446730962301 -9.93452295384286e-9 0.5923990721732004
		outer loop
			vertex -0.8462302684783936 7.5 -5.309841752052307
			vertex 1.6048738956451416 2.4757866859436035 -1.9764149188995361
			vertex 2.9210358262062073 4.220009088516235 -0.18647480010986328
		endloop
	endfacet
	facet normal -0.8056446461515928 2.7522846476375662e-8 0.592399108817083
		outer loop
			vertex -0.8462302684783936 7.5 -5.309841752052307
			vertex 0.4527771472930908 3.216536045074463 -3.543231248855591
			vertex 1.6048738956451416 2.4757866859436035 -1.9764149188995361
		endloop
	endfacet
	facet normal -0.2561001572119976 -1.250996016852058e-7 0.966650251888435
		outer loop
			vertex 2.9210358262062073 7.5 -0.18647480010986328
			vertex 3.5880692303180695 4.873344659805298 -0.009754180908203125
			vertex 4.04965215921402 7.5 0.11253595352172852
		endloop
	endfacet
	facet normal -0.2560996969021661 0 0.9666503738408313
		outer loop
			vertex 2.9210358262062073 7.5 -0.18647480010986328
			vertex 2.9210358262062073 4.220009088516235 -0.18647480010986328
			vertex 3.5880692303180695 4.873344659805298 -0.009754180908203125
		endloop
	endfacet
	facet normal 0.4316101062285411 -0.11748678693307335 0.8943766382780411
		outer loop
			vertex 4.04965215921402 7.5 0.11253595352172852
			vertex 3.5880692303180695 4.873344659805298 -0.009754180908203125
			vertex 6.974686145782471 7.5 -1.2990329265594482
		endloop
	endfacet
endsolid exported
