solid exported
	facet normal -0.5603535803456272 0.18835213093029243 -0.8065527507657854
		outer loop
			vertex 7.5 -4.134321451187134 -6.021898627281189
			vertex 0.19813203811645508 0.20125603675842285 0.0635596513748169
			vertex 1.2408075332641602 1.0873372554779053 -0.4539163112640381
		endloop
	endfacet
	facet normal -0.5603536641864931 0.18835196301039828 -0.8065527317311004
		outer loop
			vertex 7.5 -4.134321451187134 -6.021898627281189
			vertex 6.541565775871277 -7.500000238418579 -6.142002463340759
			vertex 0.19813203811645508 0.20125603675842285 0.0635596513748169
		endloop
	endfacet
	facet normal -0.5603536527173468 0.1883519600533507 -0.8065527403898572
		outer loop
			vertex 7.5 -4.134321451187134 -6.021898627281189
			vertex 7.5 -7.500000238418579 -6.807875990867615
			vertex 6.541565775871277 -7.500000238418579 -6.142002463340759
		endloop
	endfacet
	facet normal 0 0.729427694318063 -0.6840579206191787
		outer loop
			vertex 7.5 -4.134321451187134 -6.021898627281189
			vertex 3.2387442588806152 2.565984010696411 1.1228009909391403
			vertex 7.5 2.565984010696411 1.1228009909391403
		endloop
	endfacet
	facet normal 7.021893292721303e-9 0.7294276964077583 -0.6840579183908854
		outer loop
			vertex 7.5 -4.134321451187134 -6.021898627281189
			vertex 1.8014235496520996 1.8212354183197021 0.328657329082489
			vertex 3.2387442588806152 2.565984010696411 1.1228009909391403
		endloop
	endfacet
	facet normal 4.27719630913087e-8 0.729427712414636 -0.6840579013223584
		outer loop
			vertex 7.5 -4.134321451187134 -6.021898627281189
			vertex 1.2408075332641602 1.0873372554779053 -0.4539163112640381
			vertex 1.8014235496520996 1.8212354183197021 0.328657329082489
		endloop
	endfacet
	facet normal 1 0 0
		outer loop
			vertex 7.5 -4.134321451187134 -6.021898627281189
			vertex 7.5 -7.500000238418579 6.874467492103577
			vertex 7.5 -7.500000238418579 -6.807875990867615
		endloop
	endfacet
	facet normal 1 0 0
		outer loop
			vertex 7.5 -4.134321451187134 -6.021898627281189
			vertex 7.5 -6.362595319747925 7.5000001192092896
			vertex 7.5 -7.500000238418579 6.874467492103577
		endloop
	endfacet
	facet normal 1 0 0
		outer loop
			vertex 7.5 -4.134321451187134 -6.021898627281189
			vertex 7.5 -6.23733115196228 7.5000001192092896
			vertex 7.5 -6.362595319747925 7.5000001192092896
		endloop
	endfacet
	facet normal 1 0 0
		outer loop
			vertex 7.5 -4.134321451187134 -6.021898627281189
			vertex 7.5 1.5726172924041748 3.9879435300827026
			vertex 7.5 -6.23733115196228 7.5000001192092896
		endloop
	endfacet
	facet normal 1 0 0
		outer loop
			vertex 7.5 -4.134321451187134 -6.021898627281189
			vertex 7.5 2.565984010696411 1.1228009909391403
			vertex 7.5 1.5726172924041748 3.9879435300827026
		endloop
	endfacet
	facet normal -0.55501390900394 0.7884707902074296 0.2650912556117945
		outer loop
			vertex 3.2387442588806152 2.565984010696411 1.1228009909391403
			vertex 0.3036007881164551 0.5352029800415039 1.0178034603595734
			vertex 3.232025623321533 2.409795045852661 1.5732930302619934
		endloop
	endfacet
	facet normal -0.5550139199235807 0.7884708102548681 0.26509117312180214
		outer loop
			vertex 3.2387442588806152 2.565984010696411 1.1228009909391403
			vertex 1.8014235496520996 1.8212354183197021 0.328657329082489
			vertex 0.3036007881164551 0.5352029800415039 1.0178034603595734
		endloop
	endfacet
	facet normal 0 0.9448242264544904 0.32757774818304425
		outer loop
			vertex 3.2387442588806152 2.565984010696411 1.1228009909391403
			vertex 7.5 1.5726172924041748 3.9879435300827026
			vertex 7.5 2.565984010696411 1.1228009909391403
		endloop
	endfacet
	facet normal 7.377678656365702e-8 0.9448242604151735 0.3275776502310788
		outer loop
			vertex 3.2387442588806152 2.565984010696411 1.1228009909391403
			vertex 3.232025623321533 2.409795045852661 1.5732930302619934
			vertex 7.5 1.5726172924041748 3.9879435300827026
		endloop
	endfacet
	facet normal 0 -1 0
		outer loop
			vertex 7.5 -7.500000238418579 -6.807875990867615
			vertex 5.2321271896362305 -7.500000238418579 4.176413655281067
			vertex 6.541565775871277 -7.500000238418579 -6.142002463340759
		endloop
	endfacet
	facet normal 0 -1 0
		outer loop
			vertex 7.5 -7.500000238418579 -6.807875990867615
			vertex 7.5 -7.500000238418579 6.874467492103577
			vertex 5.2321271896362305 -7.500000238418579 4.176413655281067
		endloop
	endfacet
	facet normal -0.7216434600458962 -0.3335990337689528 0.6065825592954419
		outer loop
			vertex 7.461160320788622 -6.278577089309692 7.5000001192092896
			vertex 7.5 -7.500000238418579 6.874467492103577
			vertex 7.5 -6.362595319747925 7.5000001192092896
		endloop
	endfacet
	facet normal -0.7216427987295575 -0.33359933174061823 0.6065831821803044
		outer loop
			vertex 7.461160320788622 -6.278577089309692 7.5000001192092896
			vertex 5.2321271896362305 -7.500000238418579 4.176413655281067
			vertex 7.5 -7.500000238418579 6.874467492103577
		endloop
	endfacet
	facet normal -0.7216428162493655 -0.33359929621551965 0.6065831808748036
		outer loop
			vertex 7.461160320788622 -6.278577089309692 7.5000001192092896
			vertex 1.4474754333496094 -1.9945556297898293 2.7016706466674805
			vertex 5.2321271896362305 -7.500000238418579 4.176413655281067
		endloop
	endfacet
	facet normal 0 0 1
		outer loop
			vertex 7.461160320788622 -6.278577089309692 7.5000001192092896
			vertex 7.5 -6.362595319747925 7.5000001192092896
			vertex 7.5 -6.23733115196228 7.5000001192092896
		endloop
	endfacet
	facet normal -0.3993103293176899 0.3760133852604446 0.836160986297004
		outer loop
			vertex 7.461160320788622 -6.278577089309692 7.5000001192092896
			vertex 0.030411720275878906 0.2676694393157959 1.0076486729085445
			vertex 1.4474754333496094 -1.9945556297898293 2.7016706466674805
		endloop
	endfacet
	facet normal -0.3993103516874705 0.37601336037290817 0.8361609868059514
		outer loop
			vertex 7.461160320788622 -6.278577089309692 7.5000001192092896
			vertex 0.3036007881164551 0.5352029800415039 1.0178034603595734
			vertex 0.030411720275878906 0.2676694393157959 1.0076486729085445
		endloop
	endfacet
	facet normal -0.3993103553743316 0.376013356487323 0.8361609867925927
		outer loop
			vertex 7.461160320788622 -6.278577089309692 7.5000001192092896
			vertex 3.232025623321533 2.409795045852661 1.5732930302619934
			vertex 0.3036007881164551 0.5352029800415039 1.0178034603595734
		endloop
	endfacet
	facet normal -0.39931039384616124 0.37601333256619696 0.8361609791773867
		outer loop
			vertex 7.461160320788622 -6.278577089309692 7.5000001192092896
			vertex 7.5 1.5726172924041748 3.9879435300827026
			vertex 3.232025623321533 2.409795045852661 1.5732930302619934
		endloop
	endfacet
	facet normal -0.3993089756180927 0.37601357895200804 0.8361615456564191
		outer loop
			vertex 7.461160320788622 -6.278577089309692 7.5000001192092896
			vertex 7.5 -6.23733115196228 7.5000001192092896
			vertex 7.5 1.5726172924041748 3.9879435300827026
		endloop
	endfacet
	facet normal -0.8067224385007683 -0.5819949782380489 -0.10237554651901619
		outer loop
			vertex 1.4474754333496094 -1.9945556297898293 2.7016706466674805
			vertex 6.541565775871277 -7.500000238418579 -6.142002463340759
			vertex 5.2321271896362305 -7.500000238418579 4.176413655281067
		endloop
	endfacet
	facet normal -0.8067224339081128 -0.5819949859094913 -0.10237553909787991
		outer loop
			vertex 1.4474754333496094 -1.9945556297898293 2.7016706466674805
			vertex 0.19813203811645508 0.20125603675842285 0.0635596513748169
			vertex 6.541565775871277 -7.500000238418579 -6.142002463340759
		endloop
	endfacet
	facet normal -0.8067225266233997 -0.5819948805441315 -0.102375407490181
		outer loop
			vertex 1.4474754333496094 -1.9945556297898293 2.7016706466674805
			vertex 0.030411720275878906 0.2676694393157959 1.0076486729085445
			vertex 0.19813203811645508 0.20125603675842285 0.0635596513748169
		endloop
	endfacet
	facet normal -0.6860290189595697 0.707045275262468 -0.17161341402813277
		outer loop
			vertex 1.8014235496520996 1.8212354183197021 0.328657329082489
			vertex 0.030411720275878906 0.2676694393157959 1.0076486729085445
			vertex 0.3036007881164551 0.5352029800415039 1.0178034603595734
		endloop
	endfacet
	facet normal -0.6860290138709788 0.7070452936115128 -0.17161335877204342
		outer loop
			vertex 1.8014235496520996 1.8212354183197021 0.328657329082489
			vertex 0.19813203811645508 0.20125603675842285 0.0635596513748169
			vertex 0.030411720275878906 0.2676694393157959 1.0076486729085445
		endloop
	endfacet
	facet normal -0.6860289251358802 0.7070452758277758 -0.17161378676124356
		outer loop
			vertex 1.8014235496520996 1.8212354183197021 0.328657329082489
			vertex 1.2408075332641602 1.0873372554779053 -0.4539163112640381
			vertex 0.19813203811645508 0.20125603675842285 0.0635596513748169
		endloop
	endfacet
endsolid exported
