solid exported
	facet normal 3.324942913035414e-8 -0.9448241733048295 -0.32757790148122684
		outer loop
			vertex 3.232025623321533 2.409795045852661 1.5732929706573486
			vertex 7.5 2.5659842491149902 1.1228010654449463
			vertex 7.5 1.5726170539855957 3.9879434779286385
		endloop
	endfacet
	facet normal 0 -0.9448240758092923 -0.32757818268486183
		outer loop
			vertex 3.232025623321533 2.409795045852661 1.5732929706573486
			vertex 3.2387442588806152 2.5659842491149902 1.1228010654449463
			vertex 7.5 2.5659842491149902 1.1228010654449463
		endloop
	endfacet
	facet normal -0.4299294829197365 -0.7524019266318543 0.49905108006800436
		outer loop
			vertex 3.232025623321533 2.409795045852661 1.5732929706573486
			vertex 7.5 3.9020845890045166 7.5
			vertex 4.09709095954895 5.846538573503494 7.5
		endloop
	endfacet
	facet normal -0.4299295510389044 -0.7524018653977924 0.499051113704206
		outer loop
			vertex 3.232025623321533 2.409795045852661 1.5732929706573486
			vertex 7.5 1.5726170539855957 3.9879434779286385
			vertex 7.5 3.9020845890045166 7.5
		endloop
	endfacet
	facet normal -0.9842809272180844 0.17089331093474244 0.04457053502561462
		outer loop
			vertex 3.232025623321533 2.409795045852661 1.5732929706573486
			vertex 3.588069200515747 4.873344659805298 -0.009753942489624023
			vertex 3.2387442588806152 2.5659842491149902 1.1228010654449463
		endloop
	endfacet
	facet normal -0.9842810195040714 0.17089293670427924 0.04456993188925892
		outer loop
			vertex 3.232025623321533 2.409795045852661 1.5732929706573486
			vertex 4.049652099609375 7.5 0.11253571510314941
			vertex 3.588069200515747 4.873344659805298 -0.009753942489624023
		endloop
	endfacet
	facet normal -0.9842810288353926 0.1708929092616651 0.044569831038782017
		outer loop
			vertex 3.232025623321533 2.409795045852661 1.5732929706573486
			vertex 4.384168386459351 7.5 7.5
			vertex 4.049652099609375 7.5 0.11253571510314941
		endloop
	endfacet
	facet normal -0.984281026341674 0.1708929279333829 0.04456981451763634
		outer loop
			vertex 3.232025623321533 2.409795045852661 1.5732929706573486
			vertex 4.09709095954895 5.846538573503494 7.5
			vertex 4.384168386459351 7.5 7.5
		endloop
	endfacet
	facet normal -0.4316100418830948 0.11748661088774456 -0.894376692455581
		outer loop
			vertex 6.9746862053871155 7.5 -1.2990329265594482
			vertex 3.588069200515747 4.873344659805298 -0.009753942489624023
			vertex 4.049652099609375 7.5 0.11253571510314941
		endloop
	endfacet
	facet normal 0 1 0
		outer loop
			vertex 6.9746862053871155 7.5 -1.2990329265594482
			vertex 7.5 7.5 7.5
			vertex 7.5 7.5 -1.2990329265594482
		endloop
	endfacet
	facet normal 0 1 0
		outer loop
			vertex 6.9746862053871155 7.5 -1.2990329265594482
			vertex 4.384168386459351 7.5 7.5
			vertex 7.5 7.5 7.5
		endloop
	endfacet
	facet normal 0 1 0
		outer loop
			vertex 6.9746862053871155 7.5 -1.2990329265594482
			vertex 4.049652099609375 7.5 0.11253571510314941
			vertex 4.384168386459351 7.5 7.5
		endloop
	endfacet
	facet normal 4.861352683067474e-8 -0.440626423238335 -0.897690567592302
		outer loop
			vertex 6.9746862053871155 7.5 -1.2990329265594482
			vertex 3.2387442588806152 2.5659842491149902 1.1228010654449463
			vertex 3.588069200515747 4.873344659805298 -0.009753942489624023
		endloop
	endfacet
	facet normal 0 -0.4406263935756785 -0.8976905821520529
		outer loop
			vertex 6.9746862053871155 7.5 -1.2990329265594482
			vertex 7.5 2.5659842491149902 1.1228010654449463
			vertex 3.2387442588806152 2.5659842491149902 1.1228010654449463
		endloop
	endfacet
	facet normal 0 -0.4406263935756784 -0.8976905821520528
		outer loop
			vertex 6.9746862053871155 7.5 -1.2990329265594482
			vertex 7.5 7.5 -1.2990329265594482
			vertex 7.5 2.5659842491149902 1.1228010654449463
		endloop
	endfacet
	facet normal 1 0 0
		outer loop
			vertex 7.5 7.5 -1.2990329265594482
			vertex 7.5 1.5726170539855957 3.9879434779286385
			vertex 7.5 2.5659842491149902 1.1228010654449463
		endloop
	endfacet
	facet normal 1 0 0
		outer loop
			vertex 7.5 7.5 -1.2990329265594482
			vertex 7.5 3.9020845890045166 7.5
			vertex 7.5 1.5726170539855957 3.9879434779286385
		endloop
	endfacet
	facet normal 1 0 0
		outer loop
			vertex 7.5 7.5 -1.2990329265594482
			vertex 7.5 7.5 7.5
			vertex 7.5 3.9020845890045166 7.5
		endloop
	endfacet
	facet normal 0 0 1
		outer loop
			vertex 4.384168386459351 7.5 7.5
			vertex 7.5 3.9020845890045166 7.5
			vertex 7.5 7.5 7.5
		endloop
	endfacet
	facet normal 0 0 1
		outer loop
			vertex 4.384168386459351 7.5 7.5
			vertex 4.09709095954895 5.846538573503494 7.5
			vertex 7.5 3.9020845890045166 7.5
		endloop
	endfacet
endsolid exported
