solid exported
	facet normal 0.9370260080865848 -0.34925958851339345 8.801927918732873e-7
		outer loop
			vertex 1.456587314605713 4.406838238239288 7.5
			vertex -0.08890295028686523 0.2604374885559082 1.0852723121643066
			vertex -0.02508711814880371 0.43164873123168945 1.169032096862793
		endloop
	endfacet
	facet normal 0.9370264977217894 -0.3492582748729515 -8.689520582559896e-8
		outer loop
			vertex 1.456587314605713 4.406838238239288 7.5
			vertex -0.43070340156555176 -0.6565806865692139 2.3061676025390625
			vertex -0.08890295028686523 0.2604374885559082 1.0852723121643066
		endloop
	endfacet
	facet normal 0.9370264685516538 -0.34925835313363174 0
		outer loop
			vertex 1.456587314605713 4.406838238239288 7.5
			vertex -0.43070340156555176 -0.6565806865692139 7.5
			vertex -0.43070340156555176 -0.6565806865692139 2.3061676025390625
		endloop
	endfacet
	facet normal 0.599682087053262 0.6069951156783051 -0.52147705990784
		outer loop
			vertex 1.456587314605713 4.406838238239288 7.5
			vertex -3.8618576526641846 7.5 4.98437237739563
			vertex -1.6742950677871704 7.5 7.5
		endloop
	endfacet
	facet normal 0.5996820872381801 0.6069951248813606 -0.5214770489829073
		outer loop
			vertex 1.456587314605713 4.406838238239288 7.5
			vertex -3.240117073059082 4.878769516944885 2.6482629776000977
			vertex -3.8618576526641846 7.5 4.98437237739563
		endloop
	endfacet
	facet normal 0.5996820733121327 0.6069951525320337 -0.5214770328122565
		outer loop
			vertex 1.456587314605713 4.406838238239288 7.5
			vertex -0.02508711814880371 0.43164873123168945 1.169032096862793
			vertex -3.240117073059082 4.878769516944885 2.6482629776000977
		endloop
	endfacet
	facet normal 0 0 1
		outer loop
			vertex 1.456587314605713 4.406838238239288 7.5
			vertex -2.9624278619885445 -1.4123151302337646 7.5
			vertex -0.43070340156555176 -0.6565806865692139 7.5
		endloop
	endfacet
	facet normal 0 0 1
		outer loop
			vertex 1.456587314605713 4.406838238239288 7.5
			vertex -7.5 2.698936104774475 7.5
			vertex -2.9624278619885445 -1.4123151302337646 7.5
		endloop
	endfacet
	facet normal 0 0 1
		outer loop
			vertex 1.456587314605713 4.406838238239288 7.5
			vertex -7.5 6.8805975914001465 7.5
			vertex -7.5 2.698936104774475 7.5
		endloop
	endfacet
	facet normal 0 0 1
		outer loop
			vertex 1.456587314605713 4.406838238239288 7.5
			vertex -6.965793132781982 7.5 7.5
			vertex -7.5 6.8805975914001465 7.5
		endloop
	endfacet
	facet normal 0 0 1
		outer loop
			vertex 1.456587314605713 4.406838238239288 7.5
			vertex -1.6742950677871704 7.5 7.5
			vertex -6.965793132781982 7.5 7.5
		endloop
	endfacet
	facet normal 0.22316630951728952 -0.8083888540596439 -0.5447056626551345
		outer loop
			vertex -1.2197917699813843 -0.21564960479736328 1.3284988403320312
			vertex -0.43070340156555176 -0.6565806865692139 2.3061676025390625
			vertex -1.0306808948516846 -0.8356773853302002 2.326150894165039
		endloop
	endfacet
	facet normal 0.22316653310716292 -0.8083887134627529 -0.5447057797076922
		outer loop
			vertex -1.2197917699813843 -0.21564960479736328 1.3284988403320312
			vertex -0.08890295028686523 0.2604374885559082 1.0852723121643066
			vertex -0.43070340156555176 -0.6565806865692139 2.3061676025390625
		endloop
	endfacet
	facet normal 0.22316628320643853 -0.8083884055890336 -0.5447063390020754
		outer loop
			vertex -1.2197917699813843 -0.21564960479736328 1.3284988403320312
			vertex -0.6197531223297119 0.18667817115783691 0.9772477149963379
			vertex -0.08890295028686523 0.2604374885559082 1.0852723121643066
		endloop
	endfacet
	facet normal -0.6369898165627628 -0.7030431474487612 -0.31618713829104045
		outer loop
			vertex -1.2197917699813843 -0.21564960479736328 1.3284988403320312
			vertex -7.5 3.699087582528591 5.2761595249176025
			vertex -4.890510201454163 2.623918056488037 2.409730911254883
		endloop
	endfacet
	facet normal -0.6369898078175645 -0.7030431730449627 -0.3161870989958527
		outer loop
			vertex -1.2197917699813843 -0.21564960479736328 1.3284988403320312
			vertex -7.5 2.698936104774475 7.5
			vertex -7.5 3.699087582528591 5.2761595249176025
		endloop
	endfacet
	facet normal -0.6369898000357783 -0.7030431865188709 -0.31618708471373624
		outer loop
			vertex -1.2197917699813843 -0.21564960479736328 1.3284988403320312
			vertex -2.9624278619885445 -1.4123151302337646 7.5
			vertex -7.5 2.698936104774475 7.5
		endloop
	endfacet
	facet normal -0.6369897013790091 -0.7030432802603656 -0.316187075032845
		outer loop
			vertex -1.2197917699813843 -0.21564960479736328 1.3284988403320312
			vertex -1.0306808948516846 -0.8356773853302002 2.326150894165039
			vertex -2.9624278619885445 -1.4123151302337646 7.5
		endloop
	endfacet
	facet normal -0.40387490143385635 -0.18060989098355337 -0.8968083024095517
		outer loop
			vertex -1.2197917699813843 -0.21564960479736328 1.3284988403320312
			vertex -3.7346866726875305 3.086201310157776 1.7961082458496094
			vertex -0.6197531223297119 0.18667817115783691 0.9772477149963379
		endloop
	endfacet
	facet normal -0.4038753465613889 -0.1806102691969652 -0.8968080257783813
		outer loop
			vertex -1.2197917699813843 -0.21564960479736328 1.3284988403320312
			vertex -4.890510201454163 2.623918056488037 2.409730911254883
			vertex -3.7346866726875305 3.086201310157776 1.7961082458496094
		endloop
	endfacet
	facet normal 0 1 0
		outer loop
			vertex -1.6742950677871704 7.5 7.5
			vertex -3.8618576526641846 7.5 4.98437237739563
			vertex -6.965793132781982 7.5 7.5
		endloop
	endfacet
	facet normal -1 0 0
		outer loop
			vertex -7.5 3.699087582528591 5.2761595249176025
			vertex -7.5 2.698936104774475 7.5
			vertex -7.5 6.8805975914001465 7.5
		endloop
	endfacet
	facet normal -0.5533193504696857 0.47721288789467936 -0.6827192365995157
		outer loop
			vertex -7.5 3.699087582528591 5.2761595249176025
			vertex -3.7346866726875305 3.086201310157776 1.7961082458496094
			vertex -4.890510201454163 2.623918056488037 2.409730911254883
		endloop
	endfacet
	facet normal -0.5533192082047587 0.47721319554657116 -0.6827191368548923
		outer loop
			vertex -7.5 3.699087582528591 5.2761595249176025
			vertex -3.240117073059082 4.878769516944885 2.6482629776000977
			vertex -3.7346866726875305 3.086201310157776 1.7961082458496094
		endloop
	endfacet
	facet normal -0.5533192130255064 0.47721314867553344 -0.6827191657101899
		outer loop
			vertex -7.5 3.699087582528591 5.2761595249176025
			vertex -3.8618576526641846 7.5 4.98437237739563
			vertex -3.240117073059082 4.878769516944885 2.6482629776000977
		endloop
	endfacet
	facet normal -0.5533192207847839 0.47721315703379225 -0.682719153579245
		outer loop
			vertex -7.5 3.699087582528591 5.2761595249176025
			vertex -6.965793132781982 7.5 7.5
			vertex -3.8618576526641846 7.5 4.98437237739563
		endloop
	endfacet
	facet normal -0.5533192962390739 0.47721313916638164 -0.6827191049153845
		outer loop
			vertex -7.5 3.699087582528591 5.2761595249176025
			vertex -7.5 6.8805975914001465 7.5
			vertex -6.965793132781982 7.5 7.5
		endloop
	endfacet
	facet normal 0.28603406637961853 -0.9582194492235796 0
		outer loop
			vertex -2.9624278619885445 -1.4123151302337646 7.5
			vertex -0.43070340156555176 -0.6565806865692139 2.3061676025390625
			vertex -0.43070340156555176 -0.6565806865692139 7.5
		endloop
	endfacet
	facet normal 0.28603396978120316 -0.9582194780587604 -5.128242305863702e-8
		outer loop
			vertex -2.9624278619885445 -1.4123151302337646 7.5
			vertex -1.0306808948516846 -0.8356773853302002 2.326150894165039
			vertex -0.43070340156555176 -0.6565806865692139 2.3061676025390625
		endloop
	endfacet
	facet normal 0.12990180773076418 0.39624008363196783 -0.9089110608148692
		outer loop
			vertex -0.02508711814880371 0.43164873123168945 1.169032096862793
			vertex -3.7346866726875305 3.086201310157776 1.7961082458496094
			vertex -3.240117073059082 4.878769516944885 2.6482629776000977
		endloop
	endfacet
	facet normal 0.12990142051589748 0.3962396048941107 -0.9089113248614031
		outer loop
			vertex -0.02508711814880371 0.43164873123168945 1.169032096862793
			vertex -0.6197531223297119 0.18667817115783691 0.9772477149963379
			vertex -3.7346866726875305 3.086201310157776 1.7961082458496094
		endloop
	endfacet
	facet normal 0.1299021308343633 0.39623826009629287 -0.9089118096056156
		outer loop
			vertex -0.02508711814880371 0.43164873123168945 1.169032096862793
			vertex -0.08890295028686523 0.2604374885559082 1.0852723121643066
			vertex -0.6197531223297119 0.18667817115783691 0.9772477149963379
		endloop
	endfacet
endsolid exported
