solid exported
	facet normal 0.4382880053436659 -0.8038485490467813 0.40215809648352885
		outer loop
			vertex 1.4565873742103577 4.4068381786346436 7.5
			vertex 3.232025384902954 2.4097952842712402 1.5732929706573486
			vertex 4.09709095954895 5.846538543701172 7.5
		endloop
	endfacet
	facet normal 0.43828807838377437 -0.8038485056001561 0.40215810372421246
		outer loop
			vertex 1.4565873742103577 4.4068381786346436 7.5
			vertex 0.3036007583141327 0.5352029800415039 1.017803430557251
			vertex 3.232025384902954 2.4097952842712402 1.5732929706573486
		endloop
	endfacet
	facet normal 0.4382877333689422 -0.803848626798126 0.4021582374800776
		outer loop
			vertex 1.4565873742103577 4.4068381786346436 7.5
			vertex -0.025087177753448486 0.43164873123168945 1.169032335281372
			vertex 0.3036007583141327 0.5352029800415039 1.017803430557251
		endloop
	endfacet
	facet normal 0 0 1
		outer loop
			vertex 1.4565873742103577 4.4068381786346436 7.5
			vertex 4.384168386459351 7.5 7.5
			vertex -1.67429518699646 7.5 7.5
		endloop
	endfacet
	facet normal 0 0 1
		outer loop
			vertex 1.4565873742103577 4.4068381786346436 7.5
			vertex 4.09709095954895 5.846538543701172 7.5
			vertex 4.384168386459351 7.5 7.5
		endloop
	endfacet
	facet normal -0.5996820965055842 -0.6069951205460974 0.5214770433718977
		outer loop
			vertex 1.4565873742103577 4.4068381786346436 7.5
			vertex -3.240117073059082 4.878769636154175 2.6482629776000977
			vertex -0.025087177753448486 0.43164873123168945 1.169032335281372
		endloop
	endfacet
	facet normal -0.5996820708170684 -0.6069951715515801 0.5214770135428988
		outer loop
			vertex 1.4565873742103577 4.4068381786346436 7.5
			vertex -3.8618578910827637 7.5 4.98437237739563
			vertex -3.240117073059082 4.878769636154175 2.6482629776000977
		endloop
	endfacet
	facet normal -0.5996820698051575 -0.6069951211904627 0.5214770733265055
		outer loop
			vertex 1.4565873742103577 4.4068381786346436 7.5
			vertex -1.67429518699646 7.5 7.5
			vertex -3.8618578910827637 7.5 4.98437237739563
		endloop
	endfacet
	facet normal 0.9842810244628949 -0.17089293412214945 -0.044569832279208244
		outer loop
			vertex 4.384168386459351 7.5 7.5
			vertex 3.588069200515747 4.873344659805298 -0.009754180908203125
			vertex 4.049652099609375 7.5 0.11253595352172852
		endloop
	endfacet
	facet normal 0.9842810177829451 -0.17089297666137057 -0.044569816692309895
		outer loop
			vertex 4.384168386459351 7.5 7.5
			vertex 3.2387442588806152 2.5659842491149902 1.1228010654449463
			vertex 3.588069200515747 4.873344659805298 -0.009754180908203125
		endloop
	endfacet
	facet normal 0.9842810165513161 -0.17089298562063585 -0.04456980953934289
		outer loop
			vertex 4.384168386459351 7.5 7.5
			vertex 3.232025384902954 2.4097952842712402 1.5732929706573486
			vertex 3.2387442588806152 2.5659842491149902 1.1228010654449463
		endloop
	endfacet
	facet normal 0.9842810247051209 -0.17089292456903254 -0.04456986355913949
		outer loop
			vertex 4.384168386459351 7.5 7.5
			vertex 4.09709095954895 5.846538543701172 7.5
			vertex 3.232025384902954 2.4097952842712402 1.5732929706573486
		endloop
	endfacet
	facet normal 0 1 0
		outer loop
			vertex 4.384168386459351 7.5 7.5
			vertex -3.8618578910827637 7.5 4.98437237739563
			vertex -1.67429518699646 7.5 7.5
		endloop
	endfacet
	facet normal 0 1 0
		outer loop
			vertex 4.384168386459351 7.5 7.5
			vertex -3.2585415840148926 7.5 2.6567400693893433
			vertex -3.8618578910827637 7.5 4.98437237739563
		endloop
	endfacet
	facet normal 0 1 0
		outer loop
			vertex 4.384168386459351 7.5 7.5
			vertex 2.9210357666015625 7.5 -0.18647480010986328
			vertex -3.2585415840148926 7.5 2.6567400693893433
		endloop
	endfacet
	facet normal 0 1 0
		outer loop
			vertex 4.384168386459351 7.5 7.5
			vertex 4.049652099609375 7.5 0.11253595352172852
			vertex 2.9210357666015625 7.5 -0.18647480010986328
		endloop
	endfacet
	facet normal -0.9679940555813136 -0.005992568095383254 -0.2509015693192519
		outer loop
			vertex -3.2585415840148926 7.5 2.6567400693893433
			vertex -3.240117073059082 4.878769636154175 2.6482629776000977
			vertex -3.8618578910827637 7.5 4.98437237739563
		endloop
	endfacet
	facet normal -0.41797951074073486 2.5604323719276054e-10 -0.9084564538825931
		outer loop
			vertex -3.2585415840148926 7.5 2.6567400693893433
			vertex -0.025087177753448486 0.43164873123168945 1.169032335281372
			vertex -3.240117073059082 4.878769636154175 2.6482629776000977
		endloop
	endfacet
	facet normal -0.41797962449211684 -6.279569812980943e-8 -0.9084564015457348
		outer loop
			vertex -3.2585415840148926 7.5 2.6567400693893433
			vertex 0.3036007583141327 0.5352029800415039 1.017803430557251
			vertex -0.025087177753448486 0.43164873123168945 1.169032335281372
		endloop
	endfacet
	facet normal -0.4179794884597684 2.15060901521162e-8 -0.9084564641340334
		outer loop
			vertex -3.2585415840148926 7.5 2.6567400693893433
			vertex 1.8014235496520996 1.8212356567382812 0.3286573886871338
			vertex 0.3036007583141327 0.5352029800415039 1.017803430557251
		endloop
	endfacet
	facet normal -0.4179795585655188 -5.4184012952419524e-8 -0.9084564318784755
		outer loop
			vertex -3.2585415840148926 7.5 2.6567400693893433
			vertex 2.9210357666015625 4.220009088516235 -0.18647480010986328
			vertex 1.8014235496520996 1.8212356567382812 0.3286573886871338
		endloop
	endfacet
	facet normal -0.4179795348303001 0 -0.9084564427990183
		outer loop
			vertex -3.2585415840148926 7.5 2.6567400693893433
			vertex 2.9210357666015625 7.5 -0.18647480010986328
			vertex 2.9210357666015625 4.220009088516235 -0.18647480010986328
		endloop
	endfacet
	facet normal 0.2560994467752152 2.616136174110536e-7 -0.9666504401081915
		outer loop
			vertex 2.9210357666015625 4.220009088516235 -0.18647480010986328
			vertex 4.049652099609375 7.5 0.11253595352172852
			vertex 3.588069200515747 4.873344659805298 -0.009754180908203125
		endloop
	endfacet
	facet normal 0.2561001572119996 0 -0.9666502518884424
		outer loop
			vertex 2.9210357666015625 4.220009088516235 -0.18647480010986328
			vertex 2.9210357666015625 7.5 -0.18647480010986328
			vertex 4.049652099609375 7.5 0.11253595352172852
		endloop
	endfacet
	facet normal 0.5963890129319869 -0.4246418610230653 -0.6811750400013774
		outer loop
			vertex 2.9210357666015625 4.220009088516235 -0.18647480010986328
			vertex 3.2387442588806152 2.5659842491149902 1.1228010654449463
			vertex 1.8014235496520996 1.8212356567382812 0.3286573886871338
		endloop
	endfacet
	facet normal 0.5963889224113796 -0.42464191467160833 -0.6811750858105601
		outer loop
			vertex 2.9210357666015625 4.220009088516235 -0.18647480010986328
			vertex 3.588069200515747 4.873344659805298 -0.009754180908203125
			vertex 3.2387442588806152 2.5659842491149902 1.1228010654449463
		endloop
	endfacet
	facet normal 0.555013982339324 -0.7884708089883474 -0.2650910462107424
		outer loop
			vertex 0.3036007583141327 0.5352029800415039 1.017803430557251
			vertex 3.2387442588806152 2.5659842491149902 1.1228010654449463
			vertex 3.232025384902954 2.4097952842712402 1.5732929706573486
		endloop
	endfacet
	facet normal 0.5550139514473349 -0.7884707522735368 -0.26509127957746714
		outer loop
			vertex 0.3036007583141327 0.5352029800415039 1.017803430557251
			vertex 1.8014235496520996 1.8212356567382812 0.3286573886871338
			vertex 3.2387442588806152 2.5659842491149902 1.1228010654449463
		endloop
	endfacet
endsolid exported
