solid exported
	facet normal 0 0 -1
		outer loop
			vertex 7.5 -7.499999955296516 -7.5
			vertex 4.800578355789185 3.594391867518425 -7.5
			vertex 7.5 -2.047620251774788 -7.5
		endloop
	endfacet
	facet normal 0 0 -1
		outer loop
			vertex 7.5 -7.499999955296516 -7.5
			vertex 1.5883621610701084 4.255137011408806 -7.5
			vertex 4.800578355789185 3.594391867518425 -7.5
		endloop
	endfacet
	facet normal 0 0 -1
		outer loop
			vertex 7.5 -7.499999955296516 -7.5
			vertex -3.4347095489501953 -0.3389411121606827 -7.5
			vertex 1.5883621610701084 4.255137011408806 -7.5
		endloop
	endfacet
	facet normal 0 0 -1
		outer loop
			vertex 7.5 -7.499999955296516 -7.5
			vertex 0.48104989528656006 -7.499999955296516 -7.5
			vertex -3.4347095489501953 -0.3389411121606827 -7.5
		endloop
	endfacet
	facet normal 1 0 0
		outer loop
			vertex 7.5 -7.499999955296516 -7.5
			vertex 7.5 -4.134321168065071 -6.02189838886261
			vertex 7.5 -7.499999955296516 -6.807875871658325
		endloop
	endfacet
	facet normal 1 0 0
		outer loop
			vertex 7.5 -7.499999955296516 -7.5
			vertex 7.5 -2.047620251774788 -7.5
			vertex 7.5 -4.134321168065071 -6.02189838886261
		endloop
	endfacet
	facet normal 0 -1 0
		outer loop
			vertex 7.5 -7.499999955296516 -7.5
			vertex 0.48104989528656006 -7.499999955296516 -7.457634374499321
			vertex 0.48104989528656006 -7.499999955296516 -7.5
		endloop
	endfacet
	facet normal 0 -1 0
		outer loop
			vertex 7.5 -7.499999955296516 -7.5
			vertex 6.541565895080566 -7.499999955296516 -6.14200234413147
			vertex 0.48104989528656006 -7.499999955296516 -7.457634374499321
		endloop
	endfacet
	facet normal 0 -1 0
		outer loop
			vertex 7.5 -7.499999955296516 -7.5
			vertex 7.5 -7.499999955296516 -6.807875871658325
			vertex 6.541565895080566 -7.499999955296516 -6.14200234413147
		endloop
	endfacet
	facet normal -0.8773940710833241 -0.4797704076199688 0
		outer loop
			vertex 0.48104989528656006 -7.499999955296516 -7.5
			vertex -3.4347095489501953 -0.3389411121606827 -5.418007850646973
			vertex -3.4347095489501953 -0.3389411121606827 -7.5
		endloop
	endfacet
	facet normal -0.8773940725740739 -0.4797704048937165 -1.2180771537897543e-8
		outer loop
			vertex 0.48104989528656006 -7.499999955296516 -7.5
			vertex -2.3877058029174805 -2.25367970764637 -2.914895534515381
			vertex -3.4347095489501953 -0.3389411121606827 -5.418007850646973
		endloop
	endfacet
	facet normal -0.8773940680928424 -0.479770413088899 0
		outer loop
			vertex 0.48104989528656006 -7.499999955296516 -7.5
			vertex 0.48104989528656006 -7.499999955296516 -7.457634374499321
			vertex -2.3877058029174805 -2.25367970764637 -2.914895534515381
		endloop
	endfacet
	facet normal -0.3313780104587271 0.7352465198720347 0.5912708086828552
		outer loop
			vertex 0.4527771472930908 3.2165360897779465 -3.543231248855591
			vertex 1.2408073544502258 1.0873373001813889 -0.453916072845459
			vertex 1.6048738434910774 2.475786730647087 -1.976414680480957
		endloop
	endfacet
	facet normal -0.33137823939128935 0.7352464232711342 0.5912708005008651
		outer loop
			vertex 0.4527771472930908 3.2165360897779465 -3.543231248855591
			vertex 0.19813227653503418 0.20125608146190643 0.06355953216552734
			vertex 1.2408073544502258 1.0873373001813889 -0.453916072845459
		endloop
	endfacet
	facet normal -0.3313778491432091 0.7352465151982188 0.5912709049040854
		outer loop
			vertex 0.4527771472930908 3.2165360897779465 -3.543231248855591
			vertex -0.3589191436767578 0.11540985107421875 -0.1418900489807129
			vertex 0.19813227653503418 0.20125608146190643 0.06355953216552734
		endloop
	endfacet
	facet normal -0.3313780108019564 0.735246491060082 0.5912708443182155
		outer loop
			vertex 0.4527771472930908 3.2165360897779465 -3.543231248855591
			vertex -1.4066734313964844 1.5158912390470505 -2.4706058502197266
			vertex -0.3589191436767578 0.11540985107421875 -0.1418900489807129
		endloop
	endfacet
	facet normal 0.19217463084550335 0.9342580374960705 0.30038447135859997
		outer loop
			vertex 0.4527771472930908 3.2165360897779465 -3.543231248855591
			vertex 4.800578355789185 3.594391867518425 -7.5
			vertex 1.5883621610701084 4.255137011408806 -7.5
		endloop
	endfacet
	facet normal 0.1921746053757601 0.9342580513093871 0.3003844446908956
		outer loop
			vertex 0.4527771472930908 3.2165360897779465 -3.543231248855591
			vertex 1.6048738434910774 2.475786730647087 -1.976414680480957
			vertex 4.800578355789185 3.594391867518425 -7.5
		endloop
	endfacet
	facet normal -0.674893639341754 0.7379150192102358 8.827816380000382e-9
		outer loop
			vertex 0.4527771472930908 3.2165360897779465 -3.543231248855591
			vertex -3.4347095489501953 -0.3389411121606827 -5.418007850646973
			vertex -1.4066734313964844 1.5158912390470505 -2.4706058502197266
		endloop
	endfacet
	facet normal -0.6748936370235769 0.7379150213304297 0
		outer loop
			vertex 0.4527771472930908 3.2165360897779465 -3.543231248855591
			vertex -3.4347095489501953 -0.3389411121606827 -7.5
			vertex -3.4347095489501953 -0.3389411121606827 -5.418007850646973
		endloop
	endfacet
	facet normal -0.6748936501557503 0.7379150093198046 2.3694751883168287e-8
		outer loop
			vertex 0.4527771472930908 3.2165360897779465 -3.543231248855591
			vertex 1.5883621610701084 4.255137011408806 -7.5
			vertex -3.4347095489501953 -0.3389411121606827 -7.5
		endloop
	endfacet
	facet normal 0.7703377982288516 0.3685682486894702 0.5203240554480469
		outer loop
			vertex 1.6048738434910774 2.475786730647087 -1.976414680480957
			vertex 7.5 -2.047620251774788 -7.5
			vertex 4.800578355789185 3.594391867518425 -7.5
		endloop
	endfacet
	facet normal 0.7703377998744995 0.3685682866044203 0.5203240261548543
		outer loop
			vertex 1.6048738434910774 2.475786730647087 -1.976414680480957
			vertex 7.5 -4.134321168065071 -6.02189838886261
			vertex 7.5 -2.047620251774788 -7.5
		endloop
	endfacet
	facet normal 0.7703377998305349 0.3685682864648842 0.5203240263187834
		outer loop
			vertex 1.6048738434910774 2.475786730647087 -1.976414680480957
			vertex 1.2408073544502258 1.0873373001813889 -0.453916072845459
			vertex 7.5 -4.134321168065071 -6.02189838886261
		endloop
	endfacet
	facet normal 0.5603536691055104 -0.18835198462199693 0.8065527232667107
		outer loop
			vertex 1.2408073544502258 1.0873373001813889 -0.453916072845459
			vertex 7.5 -7.499999955296516 -6.807875871658325
			vertex 7.5 -4.134321168065071 -6.02189838886261
		endloop
	endfacet
	facet normal 0.5603537006999874 -0.1883519511375405 0.8065527091359316
		outer loop
			vertex 1.2408073544502258 1.0873373001813889 -0.453916072845459
			vertex 6.541565895080566 -7.499999955296516 -6.14200234413147
			vertex 7.5 -7.499999955296516 -6.807875871658325
		endloop
	endfacet
	facet normal 0.5603535301194008 -0.1883521103107855 0.8065527904757379
		outer loop
			vertex 1.2408073544502258 1.0873373001813889 -0.453916072845459
			vertex 0.19813227653503418 0.20125608146190643 0.06355953216552734
			vertex 6.541565895080566 -7.499999955296516 -6.14200234413147
		endloop
	endfacet
	facet normal -0.1528689670757759 -0.6933504223136672 0.7041990278200082
		outer loop
			vertex -2.3877058029174805 -2.25367970764637 -2.914895534515381
			vertex 0.19813227653503418 0.20125608146190643 0.06355953216552734
			vertex -0.3589191436767578 0.11540985107421875 -0.1418900489807129
		endloop
	endfacet
	facet normal -0.15286929382055808 -0.6933502262725807 0.704199149910425
		outer loop
			vertex -2.3877058029174805 -2.25367970764637 -2.914895534515381
			vertex 6.541565895080566 -7.499999955296516 -6.14200234413147
			vertex 0.19813227653503418 0.20125608146190643 0.06355953216552734
		endloop
	endfacet
	facet normal -0.1528693143557155 -0.6933502463324028 0.7041991257018216
		outer loop
			vertex -2.3877058029174805 -2.25367970764637 -2.914895534515381
			vertex 0.48104989528656006 -7.499999955296516 -7.457634374499321
			vertex 6.541565895080566 -7.499999955296516 -6.14200234413147
		endloop
	endfacet
	facet normal -0.8580795685871733 0.166042647687203 0.4859313666787462
		outer loop
			vertex -2.3877058029174805 -2.25367970764637 -2.914895534515381
			vertex -1.4066734313964844 1.5158912390470505 -2.4706058502197266
			vertex -3.4347095489501953 -0.3389411121606827 -5.418007850646973
		endloop
	endfacet
	facet normal -0.8580795472471483 0.1660426372726008 0.4859314079205917
		outer loop
			vertex -2.3877058029174805 -2.25367970764637 -2.914895534515381
			vertex -0.3589191436767578 0.11540985107421875 -0.1418900489807129
			vertex -1.4066734313964844 1.5158912390470505 -2.4706058502197266
		endloop
	endfacet
endsolid exported
