<?xml version="1.0" encoding="UTF-8" standalone="no"?>
<!DOCTYPE svg PUBLIC "-//W3C//DTD SVG 1.1//EN" "http://www.w3.org/Graphics/SVG/1.1/DTD/svg11.dtd"><svg width="100%"
  height="100%" viewBox="0 0 2600 2600" version="1.1" xmlns="http://www.w3.org/2000/svg"
  xmlns:xlink="http://www.w3.org/1999/xlink" xml:space="preserve" xmlns:serif="http://www.serif.com/"
  style="fill-rule:evenodd;clip-rule:evenodd;stroke-linejoin:round;stroke-miterlimit:2;">
  <style>
    .inside {
      fill: #fff;
    }

    .outside {
      fill: #202020;
    }

    @media (prefers-color-scheme: dark) {
      .inside {
        fill: #202020;
      }

      .outside {
        fill: #fff;
      }
    }
  </style>
  <g id="normal">
    <g>
      <path d="M1300,1585l-398.667,223l-61.333,552l460,140l460,-140l-61.333,-552l-398.667,-223Z" style="fill:#fff9ab;"
        class="color-a" />
      <path
        d="M1271.56,1600.91l28.438,109.093l28.438,-109.093l370.229,207.093l61.333,552l-460,140l-460,-140l61.333,-552l370.229,-207.093Zm28.438,127.32l-281.531,157.478l-42.771,384.933c125.204,38.106 324.302,98.701 324.302,98.701l324.302,-98.701l-42.771,-384.933l-281.531,-157.478Z"
        class="outside" />
      <path d="M1791,1645l-375,-235l-16,-490l470,-300l350,315l110,455l-539,255Z" style="fill:#fff9ab;"
        class="color-a" />
      <path
        d="M1791,1645l-375,-235l-16,-490l470,-300l350,315l110,455l-539,255Zm8.396,-142.255c122.707,-58.053 385.202,-182.239 385.202,-182.239l-76.999,-318.497l-250.52,-225.468l-329.822,210.525l11.505,352.348l260.634,163.331Z"
        class="outside" />
      <path d="M809,1645l375,-235l16,-490l-470,-300l-350,315l-110,455l539,255Z" style="fill:#fff9ab;" class="color-a" />
      <path
        d="M809,1645l-539,-255l110,-455l350,-315l470,300l-16,490l-375,235Zm-8.396,-142.255l260.634,-163.331l11.505,-352.348l-329.822,-210.525l-250.52,225.468l-76.999,318.497l385.202,182.239Z"
        class="outside" />
    </g>
    <g>
      <g>
        <path
          d="M832.051,964.444l57.251,-415.068l410.698,-371.376l410.698,371.376l57.251,415.068l-467.949,293.946l-467.949,-293.946Z"
          class="inside" />
        <path
          d="M764.483,1000l65.517,-475l470,-425l470,425l65.517,475l-535.517,336.39l-535.517,-336.39Zm134.859,-62.902l400.658,251.676l400.658,-251.676l-48.265,-349.918l-352.393,-318.653l-352.393,318.653l-48.265,349.918Z"
          class="outside" />
      </g>
      <g>
        <path
          d="M1964.36,1300l-474.731,252.827l17.343,562.806l400.759,134.167l522.73,-165.531l-121.97,-522.73l-344.131,-261.539Z"
          class="inside" />
        <path
          d="M1965,1229.8l395,300.2l140,600l-600,190l-460,-154l-19.906,-646l544.906,-290.2Zm-11.9,147.959l-405.672,216.049l14.831,481.303l338.818,113.43l450.908,-142.787l-103.48,-443.487l-295.405,-224.508Z"
          class="outside" />
      </g>
      <g>
        <path
          d="M635.638,1300l474.731,252.827l-17.343,562.806l-400.759,134.167l-522.73,-165.531l121.97,-522.73l344.131,-261.539Z"
          class="inside" />
        <path
          d="M1179.91,1520l-19.906,646l-460,154l-600,-190l140,-600l395,-300.2l544.906,290.2Zm-127.334,73.808l-405.672,-216.049c-0,0 -295.405,224.508 -295.405,224.508l-103.48,443.487c0,-0 450.908,142.787 450.908,142.787l338.818,-113.43l14.831,-481.303Z"
          class="outside" />
      </g>
    </g>
    <g>
      <path d="M1300,1999.66l-565,-229.531l80.692,-599.43l484.308,-366.351l484.308,366.351l80.692,599.43l-565,229.531Z"
        style="fill:#8ffffc;" class="color-b" />
      <path
        d="M1300,2079l-640,-260l91.404,-679l548.596,-414.982l548.596,414.982l91.404,679l-640,260Zm0,-134.921l503.192,-204.422l-71.532,-531.378l-431.66,-326.526l-431.66,326.526l-71.532,531.378l503.192,204.422Z"
        class="outside" />
    </g>
  </g>
</svg>