solid exported
	facet normal 0.8773940597005974 0.4797704284364603 0
		outer loop
			vertex 0.4810500144958496 -7.5 -7.5
			vertex -2.3877058029174805 -2.2536797523498535 -2.914895534515381
			vertex 0.4810500144958496 -7.5 -7.457634374499321
		endloop
	endfacet
	facet normal 0.8773940700633193 0.47977040948533156 2.8167691737164048e-8
		outer loop
			vertex 0.4810500144958496 -7.5 -7.5
			vertex -3.4347095489501953 -0.3389410972595215 -5.418007850646973
			vertex -2.3877058029174805 -2.2536797523498535 -2.914895534515381
		endloop
	endfacet
	facet normal 0.8773940666160022 0.47977041578971324 0
		outer loop
			vertex 0.4810500144958496 -7.5 -7.5
			vertex -3.4347095489501953 -0.3389410972595215 -7.5
			vertex -3.4347095489501953 -0.3389410972595215 -5.418007850646973
		endloop
	endfacet
	facet normal 0 -1 0
		outer loop
			vertex 0.4810500144958496 -7.5 -7.5
			vertex -7.5 -7.5 -0.6950979232788086
			vertex -7.5 -7.5 -7.5
		endloop
	endfacet
	facet normal 0 -1 0
		outer loop
			vertex 0.4810500144958496 -7.5 -7.5
			vertex 0.4810500144958496 -7.5 -7.457634374499321
			vertex -7.5 -7.5 -0.6950979232788086
		endloop
	endfacet
	facet normal 0 0 -1
		outer loop
			vertex 0.4810500144958496 -7.5 -7.5
			vertex -6.466986455023289 0.8500204086303711 -7.5
			vertex -3.4347095489501953 -0.3389410972595215 -7.5
		endloop
	endfacet
	facet normal 0 0 -1
		outer loop
			vertex 0.4810500144958496 -7.5 -7.5
			vertex -7.5 0.6571054458618164 -7.5
			vertex -6.466986455023289 0.8500204086303711 -7.5
		endloop
	endfacet
	facet normal 0 0 -1
		outer loop
			vertex 0.4810500144958496 -7.5 -7.5
			vertex -7.5 -7.5 -7.5
			vertex -7.5 0.6571054458618164 -7.5
		endloop
	endfacet
	facet normal 0.3650431709068525 0.9309905925272666 0
		outer loop
			vertex -3.4347095489501953 -0.3389410972595215 -5.418007850646973
			vertex -3.4347095489501953 -0.3389410972595215 -7.5
			vertex -6.466986455023289 0.8500204086303711 -7.5
		endloop
	endfacet
	facet normal -0.14134646728811448 0.7568766101156013 0.6380900980622457
		outer loop
			vertex -3.4347095489501953 -0.3389410972595215 -5.418007850646973
			vertex -6.551885485649109 -5.055200397968292 -0.5142731666564941
			vertex -2.3877058029174805 -2.2536797523498535 -2.914895534515381
		endloop
	endfacet
	facet normal -0.14134644550237838 0.756876605914922 0.638090107870786
		outer loop
			vertex -3.4347095489501953 -0.3389410972595215 -5.418007850646973
			vertex -7.5 -5.189233899116516 -0.5653095245361328
			vertex -6.551885485649109 -5.055200397968292 -0.5142731666564941
		endloop
	endfacet
	facet normal -0.14134642970995098 0.7568766014624249 0.6380901166504147
		outer loop
			vertex -3.4347095489501953 -0.3389410972595215 -5.418007850646973
			vertex -7.5 0.6571054458618164 -7.5
			vertex -7.5 -5.189233899116516 -0.5653095245361328
		endloop
	endfacet
	facet normal -0.1413464647042507 0.7568765557560154 0.6380901631137414
		outer loop
			vertex -3.4347095489501953 -0.3389410972595215 -5.418007850646973
			vertex -6.466986455023289 0.8500204086303711 -7.5
			vertex -7.5 0.6571054458618164 -7.5
		endloop
	endfacet
	facet normal 0.6179721983930195 -0.2935978437958953 0.7293220606369313
		outer loop
			vertex -6.551885485649109 -5.055200397968292 -0.5142731666564941
			vertex 0.4810500144958496 -7.5 -7.457634374499321
			vertex -2.3877058029174805 -2.2536797523498535 -2.914895534515381
		endloop
	endfacet
	facet normal 0.6179721979350428 -0.2935978449247877 0.7293220605705362
		outer loop
			vertex -6.551885485649109 -5.055200397968292 -0.5142731666564941
			vertex -7.5 -7.5 -0.6950979232788086
			vertex 0.4810500144958496 -7.5 -7.457634374499321
		endloop
	endfacet
	facet normal 0.6179724388718331 -0.29359792099745075 0.7293218257948773
		outer loop
			vertex -6.551885485649109 -5.055200397968292 -0.5142731666564941
			vertex -7.5 -6.412262201309204 -0.2572150230407715
			vertex -7.5 -7.5 -0.6950979232788086
		endloop
	endfacet
	facet normal -0.08640758236529349 0.2433658591784646 0.9660780446196431
		outer loop
			vertex -6.551885485649109 -5.055200397968292 -0.5142731666564941
			vertex -7.5 -5.189233899116516 -0.5653095245361328
			vertex -7.5 -6.412262201309204 -0.2572150230407715
		endloop
	endfacet
	facet normal -1 0 0
		outer loop
			vertex -7.5 0.6571054458618164 -7.5
			vertex -7.5 -6.412262201309204 -0.2572150230407715
			vertex -7.5 -5.189233899116516 -0.5653095245361328
		endloop
	endfacet
	facet normal -1 0 0
		outer loop
			vertex -7.5 0.6571054458618164 -7.5
			vertex -7.5 -7.5 -0.6950979232788086
			vertex -7.5 -6.412262201309204 -0.2572150230407715
		endloop
	endfacet
	facet normal -1 0 0
		outer loop
			vertex -7.5 0.6571054458618164 -7.5
			vertex -7.5 -7.5 -7.5
			vertex -7.5 -7.5 -0.6950979232788086
		endloop
	endfacet
endsolid exported
