solid exported
	facet normal 0.927971704968185 0.3211391787249933 -0.18904534552925875
		outer loop
			vertex 3.223846435546875 -0.000050067901611328125 -4.523982048034668
			vertex 3.60835862159729 3.359308958053589 3.0701653957366943
			vertex 4.6842427253723145 -0.000050067901611328125 2.644702434539795
		endloop
	endfacet
	facet normal 0.9279716823446807 0.3211392311269774 -0.18904536756439386
		outer loop
			vertex 3.223846435546875 -0.000050067901611328125 -4.523982048034668
			vertex 2.2676358222961426 6.225936412811279 1.3585854768753052
			vertex 3.60835862159729 3.359308958053589 3.0701653957366943
		endloop
	endfacet
	facet normal 0.9279716915104292 0.32113921534883333 -0.1890453493752448
		outer loop
			vertex 3.223846435546875 -0.000050067901611328125 -4.523982048034668
			vertex 2.0233991146087646 3.4687917232513428 -4.523982048034668
			vertex 2.2676358222961426 6.225936412811279 1.3585854768753052
		endloop
	endfacet
	facet normal 0 -1 0
		outer loop
			vertex 3.223846435546875 -0.000050067901611328125 -4.523982048034668
			vertex -4.731379508972168 -0.000050067901611328125 -3.416834831237793
			vertex -3.462315797805786 -0.000050067901611328125 -4.523982048034668
		endloop
	endfacet
	facet normal 0 -1 0
		outer loop
			vertex 3.223846435546875 -0.000050067901611328125 -4.523982048034668
			vertex -3.1111507415771484 -0.000050067901611328125 5.727422714233398
			vertex -4.731379508972168 -0.000050067901611328125 -3.416834831237793
		endloop
	endfacet
	facet normal 0 -1 0
		outer loop
			vertex 3.223846435546875 -0.000050067901611328125 -4.523982048034668
			vertex 4.6842427253723145 -0.000050067901611328125 2.644702434539795
			vertex -3.1111507415771484 -0.000050067901611328125 5.727422714233398
		endloop
	endfacet
	facet normal 0 0 -1
		outer loop
			vertex 3.223846435546875 -0.000050067901611328125 -4.523982048034668
			vertex 1.6990278959274292 3.588724136352539 -4.523982048034668
			vertex 2.0233991146087646 3.4687917232513428 -4.523982048034668
		endloop
	endfacet
	facet normal 0 0 -1
		outer loop
			vertex 3.223846435546875 -0.000050067901611328125 -4.523982048034668
			vertex -3.462315797805786 -0.000050067901611328125 -4.523982048034668
			vertex 1.6990278959274292 3.588724136352539 -4.523982048034668
		endloop
	endfacet
	facet normal 0.36774354005420445 -0.0000015209061962787257 0.9299272491684974
		outer loop
			vertex 4.6842427253723145 -0.000050067901611328125 2.644702434539795
			vertex -3.1014859676361084 0.07614810019731522 5.7236008644104
			vertex -3.1111507415771484 -0.000050067901611328125 5.727422714233398
		endloop
	endfacet
	facet normal 0.3677435528070599 -1.4126555549549327e-8 0.9299272441265721
		outer loop
			vertex 4.6842427253723145 -0.000050067901611328125 2.644702434539795
			vertex 0.4978190064430237 5.501935958862305 4.300240993499756
			vertex -3.1014859676361084 0.07614810019731522 5.7236008644104
		endloop
	endfacet
	facet normal 0.3677434892469285 -7.005214028961829e-8 0.9299272692616823
		outer loop
			vertex 4.6842427253723145 -0.000050067901611328125 2.644702434539795
			vertex 3.60835862159729 3.359308958053589 3.0701653957366943
			vertex 0.4978190064430237 5.501935958862305 4.300240993499756
		endloop
	endfacet
	facet normal -0.22590226267938443 0.38464321220490616 0.8949959592205018
		outer loop
			vertex 0.4978190064430237 5.501935958862305 4.300240993499756
			vertex -2.8356528282165527 4.33857536315918 3.958831548690796
			vertex -3.1014859676361084 0.07614810019731522 5.7236008644104
		endloop
	endfacet
	facet normal -0.22590222764528245 0.38464309436076966 0.8949960187092854
		outer loop
			vertex 0.4978190064430237 5.501935958862305 4.300240993499756
			vertex -0.34829410910606384 7.187955856323242 3.362075090408325
			vertex -2.8356528282165527 4.33857536315918 3.958831548690796
		endloop
	endfacet
	facet normal 0.6147998870259703 0.5959692645509002 0.5165672605029412
		outer loop
			vertex 0.4978190064430237 5.501935958862305 4.300240993499756
			vertex -0.3185490369796753 7.5017499923706055 2.9646458625793457
			vertex -0.34829410910606384 7.187955856323242 3.362075090408325
		endloop
	endfacet
	facet normal 0.6147994082093126 0.5959693691134295 0.5165677097380557
		outer loop
			vertex 0.4978190064430237 5.501935958862305 4.300240993499756
			vertex 0.13379810750484467 7.5209760665893555 2.4040980339050293
			vertex -0.3185490369796753 7.5017499923706055 2.9646458625793457
		endloop
	endfacet
	facet normal 0.6147993579648366 0.5959693917199689 0.5165677434557397
		outer loop
			vertex 0.4978190064430237 5.501935958862305 4.300240993499756
			vertex 2.2676358222961426 6.225936412811279 1.3585854768753052
			vertex 0.13379810750484467 7.5209760665893555 2.4040980339050293
		endloop
	endfacet
	facet normal 0.6147993084883411 0.595969455050561 0.5165677292756441
		outer loop
			vertex 0.4978190064430237 5.501935958862305 4.300240993499756
			vertex 3.60835862159729 3.359308958053589 3.0701653957366943
			vertex 2.2676358222961426 6.225936412811279 1.3585854768753052
		endloop
	endfacet
	facet normal -0.975985435001476 0.13246706737055644 0.17293035224397216
		outer loop
			vertex -3.1111507415771484 -0.000050067901611328125 5.727422714233398
			vertex -3.0124967098236084 5.542860507965088 2.038259983062744
			vertex -4.731379508972168 -0.000050067901611328125 -3.416834831237793
		endloop
	endfacet
	facet normal -0.9759854220730033 0.13246709938294404 0.17293040068782264
		outer loop
			vertex -3.1111507415771484 -0.000050067901611328125 5.727422714233398
			vertex -2.8356528282165527 4.33857536315918 3.958831548690796
			vertex -3.0124967098236084 5.542860507965088 2.038259983062744
		endloop
	endfacet
	facet normal -0.9759867051912023 0.13246491189112714 0.17292483456027136
		outer loop
			vertex -3.1111507415771484 -0.000050067901611328125 5.727422714233398
			vertex -3.1014859676361084 0.07614810019731522 5.7236008644104
			vertex -2.8356528282165527 4.33857536315918 3.958831548690796
		endloop
	endfacet
	facet normal 0.3157723207036023 0.8540431218209122 -0.4133983400400297
		outer loop
			vertex 1.6990278959274292 3.588724136352539 -4.523982048034668
			vertex 2.2676358222961426 6.225936412811279 1.3585854768753052
			vertex 2.0233991146087646 3.4687917232513428 -4.523982048034668
		endloop
	endfacet
	facet normal 0.3157721880525312 0.8540431672214603 -0.41339834757150845
		outer loop
			vertex 1.6990278959274292 3.588724136352539 -4.523982048034668
			vertex 0.13379810750484467 7.5209760665893555 2.4040980339050293
			vertex 2.2676358222961426 6.225936412811279 1.3585854768753052
		endloop
	endfacet
	facet normal 0.31577169299414454 0.8540432683424491 -0.4133985168122394
		outer loop
			vertex 1.6990278959274292 3.588724136352539 -4.523982048034668
			vertex -0.2423424869775772 7.504570484161377 2.082893133163452
			vertex 0.13379810750484467 7.5209760665893555 2.4040980339050293
		endloop
	endfacet
	facet normal -0.47769432557772745 0.6870160709434303 -0.5475555219119719
		outer loop
			vertex 1.6990278959274292 3.588724136352539 -4.523982048034668
			vertex -0.7057529091835022 7.484770774841309 2.4623355865478516
			vertex -0.2423424869775772 7.504570484161377 2.082893133163452
		endloop
	endfacet
	facet normal -0.47769438093492766 0.6870160337825965 -0.5475555202432231
		outer loop
			vertex 1.6990278959274292 3.588724136352539 -4.523982048034668
			vertex -3.0124967098236084 5.542860507965088 2.038259983062744
			vertex -0.7057529091835022 7.484770774841309 2.4623355865478516
		endloop
	endfacet
	facet normal -0.47769443334972167 0.6870159800880159 -0.5475555418862923
		outer loop
			vertex 1.6990278959274292 3.588724136352539 -4.523982048034668
			vertex -4.731379508972168 -0.000050067901611328125 -3.416834831237793
			vertex -3.0124967098236084 5.542860507965088 2.038259983062744
		endloop
	endfacet
	facet normal -0.47769442232306175 0.6870159430108467 -0.5475555980266785
		outer loop
			vertex 1.6990278959274292 3.588724136352539 -4.523982048034668
			vertex -3.462315797805786 -0.000050067901611328125 -4.523982048034668
			vertex -4.731379508972168 -0.000050067901611328125 -3.416834831237793
		endloop
	endfacet
	facet normal -0.6205492496608569 0.6373770667442483 0.456803134330146
		outer loop
			vertex -3.0124967098236084 5.542860507965088 2.038259983062744
			vertex -0.3185490369796753 7.5017499923706055 2.9646458625793457
			vertex -0.7057529091835022 7.484770774841309 2.4623355865478516
		endloop
	endfacet
	facet normal -0.6205492519821068 0.6373770805135256 0.4568031119645558
		outer loop
			vertex -3.0124967098236084 5.542860507965088 2.038259983062744
			vertex -0.34829410910606384 7.187955856323242 3.362075090408325
			vertex -0.3185490369796753 7.5017499923706055 2.9646458625793457
		endloop
	endfacet
	facet normal -0.6205492642723313 0.6373768090291533 0.4568034740705051
		outer loop
			vertex -3.0124967098236084 5.542860507965088 2.038259983062744
			vertex -2.8356528282165527 4.33857536315918 3.958831548690796
			vertex -0.34829410910606384 7.187955856323242 3.362075090408325
		endloop
	endfacet
	facet normal -0.04312129820277121 0.9990697031548227 -0.0005309231981750906
		outer loop
			vertex 0.13379810750484467 7.5209760665893555 2.4040980339050293
			vertex -0.7057529091835022 7.484770774841309 2.4623355865478516
			vertex -0.3185490369796753 7.5017499923706055 2.9646458625793457
		endloop
	endfacet
	facet normal -0.0431213210208903 0.9990697019947143 -0.0005312528647950884
		outer loop
			vertex 0.13379810750484467 7.5209760665893555 2.4040980339050293
			vertex -0.2423424869775772 7.504570484161377 2.082893133163452
			vertex -0.7057529091835022 7.484770774841309 2.4623355865478516
		endloop
	endfacet
endsolid exported
