solid exported
	facet normal 0.7277792612201242 -0.5840573826393011 0.3594639352180126
		outer loop
			vertex 2.656076192855835 -5.423290729522705 -3.4159698486328125
			vertex -0.03498666733503342 -4.960604667663574 2.7841930389404297
			vertex 0.5727695822715759 -5.404906272888184 0.8318135142326355
		endloop
	endfacet
	facet normal 0.7277794009661813 -0.5840571804607816 0.3594639807845964
		outer loop
			vertex 2.656076192855835 -5.423290729522705 -3.4159698486328125
			vertex 3.946035623550415 0.000050067901611328125 2.7841930389404297
			vertex -0.03498666733503342 -4.960604667663574 2.7841930389404297
		endloop
	endfacet
	facet normal 0.7277793872755729 -0.5840571904107201 0.3594639923362665
		outer loop
			vertex 2.656076192855835 -5.423290729522705 -3.4159698486328125
			vertex 6.240267753601074 0.000050067901611328125 -1.8607641458511353
			vertex 3.946035623550415 0.000050067901611328125 2.7841930389404297
		endloop
	endfacet
	facet normal 0.7277823451829278 -0.5840573524210059 0.3594577403854351
		outer loop
			vertex 2.656076192855835 -5.423290729522705 -3.4159698486328125
			vertex 6.205643653869629 -0.07351982593536377 -1.9102003574371338
			vertex 6.240267753601074 0.000050067901611328125 -1.8607641458511353
		endloop
	endfacet
	facet normal -0.48149879196195156 -0.8450482355888593 -0.23249170494307328
		outer loop
			vertex 2.656076192855835 -5.423290729522705 -3.4159698486328125
			vertex -3.9466347694396973 -1.5614770650863647 -3.7782256603240967
			vertex -0.5577901005744934 -3.216975450515747 -4.779330730438232
		endloop
	endfacet
	facet normal -0.4814988059725052 -0.8450482514227772 -0.23249161837442409
		outer loop
			vertex 2.656076192855835 -5.423290729522705 -3.4159698486328125
			vertex -3.9466347694396973 -3.3669447898864746 2.7841930389404297
			vertex -3.9466347694396973 -1.5614770650863647 -3.7782256603240967
		endloop
	endfacet
	facet normal -0.48149876127210284 -0.8450482938614926 -0.2324915566966063
		outer loop
			vertex 2.656076192855835 -5.423290729522705 -3.4159698486328125
			vertex -0.9545289278030396 -5.071812152862549 2.7841930389404297
			vertex -3.9466347694396973 -3.3669447898864746 2.7841930389404297
		endloop
	endfacet
	facet normal -0.4814988190642729 -0.8450482510046096 -0.23249159278081655
		outer loop
			vertex 2.656076192855835 -5.423290729522705 -3.4159698486328125
			vertex 0.5727695822715759 -5.404906272888184 0.8318135142326355
			vertex -0.9545289278030396 -5.071812152862549 2.7841930389404297
		endloop
	endfacet
	facet normal 0.3905269026222543 -5.54859748200913e-7 -0.9205915154551233
		outer loop
			vertex 2.656076192855835 -5.423290729522705 -3.4159698486328125
			vertex 6.215190887451172 0.000050067901611328125 -1.9061503410339355
			vertex 6.205643653869629 -0.07351982593536377 -1.9102003574371338
		endloop
	endfacet
	facet normal 0.3905261410937889 3.483479359418689e-8 -0.9205918385052049
		outer loop
			vertex 2.656076192855835 -5.423290729522705 -3.4159698486328125
			vertex -1.528908133506775 0.000050067901611328125 -5.191290378570557
			vertex 6.215190887451172 0.000050067901611328125 -1.9061503410339355
		endloop
	endfacet
	facet normal 0.39052623979730916 1.2470699001094692e-7 -0.9205917966339692
		outer loop
			vertex 2.656076192855835 -5.423290729522705 -3.4159698486328125
			vertex -0.5577901005744934 -3.216975450515747 -4.779330730438232
			vertex -1.528908133506775 0.000050067901611328125 -5.191290378570557
		endloop
	endfacet
	facet normal -0.3768838786009064 -0.22870994748897736 -0.8975802482064357
		outer loop
			vertex -1.528908133506775 0.000050067901611328125 -5.191290378570557
			vertex -3.9466347694396973 -1.5614770650863647 -3.7782256603240967
			vertex -3.9466347694396973 0.000050067901611328125 -4.176114082336426
		endloop
	endfacet
	facet normal -0.3768839058072132 -0.2287099048576706 -0.897580247645577
		outer loop
			vertex -1.528908133506775 0.000050067901611328125 -5.191290378570557
			vertex -0.5577901005744934 -3.216975450515747 -4.779330730438232
			vertex -3.9466347694396973 -1.5614770650863647 -3.7782256603240967
		endloop
	endfacet
	facet normal 0 1 0
		outer loop
			vertex -1.528908133506775 0.000050067901611328125 -5.191290378570557
			vertex 6.240267753601074 0.000050067901611328125 -1.8607641458511353
			vertex 6.215190887451172 0.000050067901611328125 -1.9061503410339355
		endloop
	endfacet
	facet normal 0 1 0
		outer loop
			vertex -1.528908133506775 0.000050067901611328125 -5.191290378570557
			vertex 3.946035623550415 0.000050067901611328125 2.7841930389404297
			vertex 6.240267753601074 0.000050067901611328125 -1.8607641458511353
		endloop
	endfacet
	facet normal 0 1 0
		outer loop
			vertex -1.528908133506775 0.000050067901611328125 -5.191290378570557
			vertex -3.9466347694396973 0.000050067901611328125 2.7841930389404297
			vertex 3.946035623550415 0.000050067901611328125 2.7841930389404297
		endloop
	endfacet
	facet normal 0 1 0
		outer loop
			vertex -1.528908133506775 0.000050067901611328125 -5.191290378570557
			vertex -3.9466347694396973 0.000050067901611328125 -4.176114082336426
			vertex -3.9466347694396973 0.000050067901611328125 2.7841930389404297
		endloop
	endfacet
	facet normal 0.8719911182578851 -0.08663637032344332 -0.4817941770263961
		outer loop
			vertex 6.240267753601074 0.000050067901611328125 -1.8607641458511353
			vertex 6.205643653869629 -0.07351982593536377 -1.9102003574371338
			vertex 6.215190887451172 0.000050067901611328125 -1.9061503410339355
		endloop
	endfacet
	facet normal 0 0 1
		outer loop
			vertex -3.9466347694396973 -3.3669447898864746 2.7841930389404297
			vertex 3.946035623550415 0.000050067901611328125 2.7841930389404297
			vertex -3.9466347694396973 0.000050067901611328125 2.7841930389404297
		endloop
	endfacet
	facet normal 0 0 1
		outer loop
			vertex -3.9466347694396973 -3.3669447898864746 2.7841930389404297
			vertex -0.03498666733503342 -4.960604667663574 2.7841930389404297
			vertex 3.946035623550415 0.000050067901611328125 2.7841930389404297
		endloop
	endfacet
	facet normal 0 0 1
		outer loop
			vertex -3.9466347694396973 -3.3669447898864746 2.7841930389404297
			vertex -0.9545289278030396 -5.071812152862549 2.7841930389404297
			vertex -0.03498666733503342 -4.960604667663574 2.7841930389404297
		endloop
	endfacet
	facet normal -1 0 0
		outer loop
			vertex -3.9466347694396973 -3.3669447898864746 2.7841930389404297
			vertex -3.9466347694396973 0.000050067901611328125 -4.176114082336426
			vertex -3.9466347694396973 -1.5614770650863647 -3.7782256603240967
		endloop
	endfacet
	facet normal -1 0 0
		outer loop
			vertex -3.9466347694396973 -3.3669447898864746 2.7841930389404297
			vertex -3.9466347694396973 0.000050067901611328125 2.7841930389404297
			vertex -3.9466347694396973 0.000050067901611328125 -4.176114082336426
		endloop
	endfacet
	facet normal 0.11610591877016549 -0.9600459789968985 0.25461958651765737
		outer loop
			vertex -0.9545289278030396 -5.071812152862549 2.7841930389404297
			vertex 0.5727695822715759 -5.404906272888184 0.8318135142326355
			vertex -0.03498666733503342 -4.960604667663574 2.7841930389404297
		endloop
	endfacet
endsolid exported
