solid exported
	facet normal 0.3912986492662374 0.23790836564153423 -0.8889797391618057
		outer loop
			vertex 1.6084496974945068 -0.000050067901611328125 -5.13317346572876
			vertex 4.063811302185059 1.561747431755066 -3.63443922996521
			vertex 4.063811302185059 -0.000050067901611328125 -4.0524067878723145
		endloop
	endfacet
	facet normal 0.3912986193633337 0.23790841309668015 -0.8889797396241202
		outer loop
			vertex 1.6084496974945068 -0.000050067901611328125 -5.13317346572876
			vertex 0.5325654149055481 3.359308958053589 -4.7077107429504395
			vertex 4.063811302185059 1.561747431755066 -3.63443922996521
		endloop
	endfacet
	facet normal 0 -1 0
		outer loop
			vertex 1.6084496974945068 -0.000050067901611328125 -5.13317346572876
			vertex -6.213775634765625 -0.000050067901611328125 -2.004497528076172
			vertex -6.186944007873535 -0.000050067901611328125 -2.0504531860351562
		endloop
	endfacet
	facet normal 0 -1 0
		outer loop
			vertex 1.6084496974945068 -0.000050067901611328125 -5.13317346572876
			vertex -3.99556303024292 -0.000050067901611328125 2.698141574859619
			vertex -6.213775634765625 -0.000050067901611328125 -2.004497528076172
		endloop
	endfacet
	facet normal 0 -1 0
		outer loop
			vertex 1.6084496974945068 -0.000050067901611328125 -5.13317346572876
			vertex 4.063811302185059 -0.000050067901611328125 2.698141574859619
			vertex -3.99556303024292 -0.000050067901611328125 2.698141574859619
		endloop
	endfacet
	facet normal 0 -1 0
		outer loop
			vertex 1.6084496974945068 -0.000050067901611328125 -5.13317346572876
			vertex 4.063811302185059 -0.000050067901611328125 -4.0524067878723145
			vertex 4.063811302185059 -0.000050067901611328125 2.698141574859619
		endloop
	endfacet
	facet normal -0.3677435702857454 -4.55332567104009e-8 -0.9299272372145528
		outer loop
			vertex 1.6084496974945068 -0.000050067901611328125 -5.13317346572876
			vertex -2.5779740810394287 5.501935958862305 -3.477635145187378
			vertex 0.5325654149055481 3.359308958053589 -4.7077107429504395
		endloop
	endfacet
	facet normal -0.36774352837422386 -8.655950776397414e-9 -0.9299272537886373
		outer loop
			vertex 1.6084496974945068 -0.000050067901611328125 -5.13317346572876
			vertex -6.177278995513916 0.07614810019731522 -2.0542752742767334
			vertex -2.5779740810394287 5.501935958862305 -3.477635145187378
		endloop
	endfacet
	facet normal -0.3677435303283778 -2.395527430913449e-7 -0.9299272530158281
		outer loop
			vertex 1.6084496974945068 -0.000050067901611328125 -5.13317346572876
			vertex -6.186944007873535 -0.000050067901611328125 -2.0504531860351562
			vertex -6.177278995513916 0.07614810019731522 -2.0542752742767334
		endloop
	endfacet
	facet normal -0.12407562175286178 0.9609160298521449 0.24747853171504128
		outer loop
			vertex 0.8345116972923279 5.0857462882995605 2.698141574859619
			vertex -0.7438217401504517 5.447759628295898 0.501194953918457
			vertex -0.08603548258543015 4.966883182525635 2.698141574859619
		endloop
	endfacet
	facet normal 0 0 1
		outer loop
			vertex 0.8345116972923279 5.0857462882995605 2.698141574859619
			vertex 4.063811302185059 -0.000050067901611328125 2.698141574859619
			vertex 4.063811302185059 3.189586877822876 2.698141574859619
		endloop
	endfacet
	facet normal 0 0 1
		outer loop
			vertex 0.8345116972923279 5.0857462882995605 2.698141574859619
			vertex -3.99556303024292 -0.000050067901611328125 2.698141574859619
			vertex 4.063811302185059 -0.000050067901611328125 2.698141574859619
		endloop
	endfacet
	facet normal 0 0 1
		outer loop
			vertex 0.8345116972923279 5.0857462882995605 2.698141574859619
			vertex -0.08603548258543015 4.966883182525635 2.698141574859619
			vertex -3.99556303024292 -0.000050067901611328125 2.698141574859619
		endloop
	endfacet
	facet normal 0.49434010168178905 0.841897738158978 -0.21641640961820657
		outer loop
			vertex 0.8345116972923279 5.0857462882995605 2.698141574859619
			vertex -2.5779740810394287 5.501935958862305 -3.477635145187378
			vertex -0.7438217401504517 5.447759628295898 0.501194953918457
		endloop
	endfacet
	facet normal 0.4943400778955042 0.8418977558100293 -0.21641639528534642
		outer loop
			vertex 0.8345116972923279 5.0857462882995605 2.698141574859619
			vertex 0.5325654149055481 3.359308958053589 -4.7077107429504395
			vertex -2.5779740810394287 5.501935958862305 -3.477635145187378
		endloop
	endfacet
	facet normal 0.49434012096565266 0.8418977315242943 -0.21641639137993118
		outer loop
			vertex 0.8345116972923279 5.0857462882995605 2.698141574859619
			vertex 4.063811302185059 1.561747431755066 -3.63443922996521
			vertex 0.5325654149055481 3.359308958053589 -4.7077107429504395
		endloop
	endfacet
	facet normal 0.49434010816341356 0.8418977366325027 -0.21641640075108462
		outer loop
			vertex 0.8345116972923279 5.0857462882995605 2.698141574859619
			vertex 4.063811302185059 3.189586877822876 2.698141574859619
			vertex 4.063811302185059 1.561747431755066 -3.63443922996521
		endloop
	endfacet
	facet normal -0.7368015589046479 0.5799443099250451 0.34754576703111206
		outer loop
			vertex -2.5779740810394287 5.501935958862305 -3.477635145187378
			vertex -0.08603548258543015 4.966883182525635 2.698141574859619
			vertex -0.7438217401504517 5.447759628295898 0.501194953918457
		endloop
	endfacet
	facet normal -0.7368014398719247 0.5799444810508001 0.34754573382704135
		outer loop
			vertex -2.5779740810394287 5.501935958862305 -3.477635145187378
			vertex -3.99556303024292 -0.000050067901611328125 2.698141574859619
			vertex -0.08603548258543015 4.966883182525635 2.698141574859619
		endloop
	endfacet
	facet normal -0.7368014268868479 0.579944490641398 0.347545745351881
		outer loop
			vertex -2.5779740810394287 5.501935958862305 -3.477635145187378
			vertex -6.213775634765625 -0.000050067901611328125 -2.004497528076172
			vertex -3.99556303024292 -0.000050067901611328125 2.698141574859619
		endloop
	endfacet
	facet normal -0.7368028393539723 0.5799445816179287 0.3475425990751784
		outer loop
			vertex -2.5779740810394287 5.501935958862305 -3.477635145187378
			vertex -6.177278995513916 0.07614810019731522 -2.0542752742767334
			vertex -6.213775634765625 -0.000050067901611328125 -2.004497528076172
		endloop
	endfacet
	facet normal 1 0 0
		outer loop
			vertex 4.063811302185059 -0.000050067901611328125 2.698141574859619
			vertex 4.063811302185059 1.561747431755066 -3.63443922996521
			vertex 4.063811302185059 3.189586877822876 2.698141574859619
		endloop
	endfacet
	facet normal 1 0 0
		outer loop
			vertex 4.063811302185059 -0.000050067901611328125 2.698141574859619
			vertex 4.063811302185059 -0.000050067901611328125 -4.0524067878723145
			vertex 4.063811302185059 1.561747431755066 -3.63443922996521
		endloop
	endfacet
	facet normal -0.860532871012171 0.08394859819608566 -0.5024299063237203
		outer loop
			vertex -6.177278995513916 0.07614810019731522 -2.0542752742767334
			vertex -6.186944007873535 -0.000050067901611328125 -2.0504531860351562
			vertex -6.213775634765625 -0.000050067901611328125 -2.004497528076172
		endloop
	endfacet
endsolid exported
