solid exported
	facet normal 0.14134658386293977 -0.7568765706177334 -0.638090119089942
		outer loop
			vertex -7.5 0.6571053862571716 -7.499999761581421
			vertex -6.551885485649109 -5.0552003383636475 -0.5142731666564941
			vertex -7.5 -5.189234018325806 -0.5653095245361328
		endloop
	endfacet
	facet normal 0.1413464101829023 -0.7568766015802489 -0.638090120836187
		outer loop
			vertex -7.5 0.6571053862571716 -7.499999761581421
			vertex -2.3877058029174805 -2.2536797523498535 -2.914895713329315
			vertex -6.551885485649109 -5.0552003383636475 -0.5142731666564941
		endloop
	endfacet
	facet normal 0.141346400581661 -0.7568766086269468 -0.638090114604497
		outer loop
			vertex -7.5 0.6571053862571716 -7.499999761581421
			vertex -3.4347095489501953 -0.3389410972595215 -5.418007850646973
			vertex -2.3877058029174805 -2.2536797523498535 -2.914895713329315
		endloop
	endfacet
	facet normal 0.14134642086223956 -0.7568765821382768 -0.6380901415318331
		outer loop
			vertex -7.5 0.6571053862571716 -7.499999761581421
			vertex -6.466986417770386 0.8500202894210815 -7.499999761581421
			vertex -3.4347095489501953 -0.3389410972595215 -5.418007850646973
		endloop
	endfacet
	facet normal -1 0 0
		outer loop
			vertex -7.5 0.6571053862571716 -7.499999761581421
			vertex -7.5 7.500000238418579 -4.544999361038208
			vertex -7.5 2.4638699889183044 -7.499999761581421
		endloop
	endfacet
	facet normal -1 0 0
		outer loop
			vertex -7.5 0.6571053862571716 -7.499999761581421
			vertex -7.5 7.500000238418579 -4.062649488449097
			vertex -7.5 7.500000238418579 -4.544999361038208
		endloop
	endfacet
	facet normal -1 0 0
		outer loop
			vertex -7.5 0.6571053862571716 -7.499999761581421
			vertex -7.5 2.623918116092682 2.4097306728363037
			vertex -7.5 7.500000238418579 -4.062649488449097
		endloop
	endfacet
	facet normal -1 0 0
		outer loop
			vertex -7.5 0.6571053862571716 -7.499999761581421
			vertex -7.5 -5.189234018325806 -0.5653095245361328
			vertex -7.5 2.623918116092682 2.4097306728363037
		endloop
	endfacet
	facet normal 0 0 -1
		outer loop
			vertex -7.5 0.6571053862571716 -7.499999761581421
			vertex -7.5 2.4638699889183044 -7.499999761581421
			vertex -6.466986417770386 0.8500202894210815 -7.499999761581421
		endloop
	endfacet
	facet normal 0.6202014747481127 0.3969864360110279 -0.6765736473906802
		outer loop
			vertex -7.24358868598938 7.500000238418579 -4.309952259063721
			vertex -7.5 2.4638699889183044 -7.499999761581421
			vertex -7.5 7.500000238418579 -4.544999361038208
		endloop
	endfacet
	facet normal 0.6202014146876533 0.39698646366508783 -0.6765736862205931
		outer loop
			vertex -7.24358868598938 7.500000238418579 -4.309952259063721
			vertex -6.466986417770386 0.8500202894210815 -7.499999761581421
			vertex -7.5 2.4638699889183044 -7.499999761581421
		endloop
	endfacet
	facet normal 0.6202014378861611 0.3969864578186197 -0.6765736683854638
		outer loop
			vertex -7.24358868598938 7.500000238418579 -4.309952259063721
			vertex -3.4347095489501953 -0.3389410972595215 -5.418007850646973
			vertex -6.466986417770386 0.8500202894210815 -7.499999761581421
		endloop
	endfacet
	facet normal 0.6202014706625212 0.39698646860293635 -0.6765736320122266
		outer loop
			vertex -7.24358868598938 7.500000238418579 -4.309952259063721
			vertex -1.4066734313964844 1.5158912986516953 -2.470606043934822
			vertex -3.4347095489501953 -0.3389410972595215 -5.418007850646973
		endloop
	endfacet
	facet normal 0 1 0
		outer loop
			vertex -7.24358868598938 7.500000238418579 -4.309952259063721
			vertex -7.5 7.500000238418579 -4.062649488449097
			vertex -7.285053938627243 7.500000238418579 -4.062649488449097
		endloop
	endfacet
	facet normal 0 1 0
		outer loop
			vertex -7.24358868598938 7.500000238418579 -4.309952259063721
			vertex -7.5 7.500000238418579 -4.544999361038208
			vertex -7.5 7.500000238418579 -4.062649488449097
		endloop
	endfacet
	facet normal 0.6929226504941541 0.7115896860529886 0.11618226687048917
		outer loop
			vertex -7.24358868598938 7.500000238418579 -4.309952259063721
			vertex -0.3589191436767578 0.11540985107421875 -0.141890287399292
			vertex -1.4066734313964844 1.5158912986516953 -2.470606043934822
		endloop
	endfacet
	facet normal 0.6929226729084637 0.7115896738123463 0.1161822081604111
		outer loop
			vertex -7.24358868598938 7.500000238418579 -4.309952259063721
			vertex -0.6197528839111328 0.18667805194854736 0.9772474765777588
			vertex -0.3589191436767578 0.11540985107421875 -0.141890287399292
		endloop
	endfacet
	facet normal 0.6929226255423886 0.7115897035347772 0.11618230861336236
		outer loop
			vertex -7.24358868598938 7.500000238418579 -4.309952259063721
			vertex -3.7346866130828857 3.086201310157776 1.7961084842681885
			vertex -0.6197528839111328 0.18667805194854736 0.9772474765777588
		endloop
	endfacet
	facet normal 0.6929226104006337 0.7115897154521317 0.11618232592923022
		outer loop
			vertex -7.24358868598938 7.500000238418579 -4.309952259063721
			vertex -7.285053938627243 7.500000238418579 -4.062649488449097
			vertex -3.7346866130828857 3.086201310157776 1.7961084842681885
		endloop
	endfacet
	facet normal -3.485853090054245e-8 0.7987070368641387 0.601720092122331
		outer loop
			vertex -7.285053938627243 7.500000238418579 -4.062649488449097
			vertex -4.890510082244873 2.623918116092682 2.4097306728363037
			vertex -3.7346866130828857 3.086201310157776 1.7961084842681885
		endloop
	endfacet
	facet normal 0 0.7987070430621149 0.6017200838953051
		outer loop
			vertex -7.285053938627243 7.500000238418579 -4.062649488449097
			vertex -7.5 2.623918116092682 2.4097306728363037
			vertex -4.890510082244873 2.623918116092682 2.4097306728363037
		endloop
	endfacet
	facet normal 0 0.798707043062115 0.6017200838953051
		outer loop
			vertex -7.285053938627243 7.500000238418579 -4.062649488449097
			vertex -7.5 7.500000238418579 -4.062649488449097
			vertex -7.5 2.623918116092682 2.4097306728363037
		endloop
	endfacet
	facet normal 0 -0.3558491936541808 0.9345433919169668
		outer loop
			vertex -7.5 2.623918116092682 2.4097306728363037
			vertex -1.2197918891906738 -0.21564948558807373 1.3284990787506104
			vertex -4.890510082244873 2.623918116092682 2.4097306728363037
		endloop
	endfacet
	facet normal -2.2209593745156997e-8 -0.35584923655458406 0.9345433755816362
		outer loop
			vertex -7.5 2.623918116092682 2.4097306728363037
			vertex -6.551885485649109 -5.0552003383636475 -0.5142731666564941
			vertex -1.2197918891906738 -0.21564948558807373 1.3284990787506104
		endloop
	endfacet
	facet normal 9.552491168985062e-8 -0.355849223859015 0.9345433804157663
		outer loop
			vertex -7.5 2.623918116092682 2.4097306728363037
			vertex -7.5 -5.189234018325806 -0.5653095245361328
			vertex -6.551885485649109 -5.0552003383636475 -0.5142731666564941
		endloop
	endfacet
	facet normal 0.403875152541017 0.18061007303500584 0.8968081526604562
		outer loop
			vertex -4.890510082244873 2.623918116092682 2.4097306728363037
			vertex -0.6197528839111328 0.18667805194854736 0.9772474765777588
			vertex -3.7346866130828857 3.086201310157776 1.7961084842681885
		endloop
	endfacet
	facet normal 0.40387517956485885 0.18061013485969518 0.8968081280393347
		outer loop
			vertex -4.890510082244873 2.623918116092682 2.4097306728363037
			vertex -1.2197918891906738 -0.21564948558807373 1.3284990787506104
			vertex -0.6197528839111328 0.18667805194854736 0.9772474765777588
		endloop
	endfacet
	facet normal 0.621942484663645 -0.7588354357758736 0.19327784969119347
		outer loop
			vertex -0.3589191436767578 0.11540985107421875 -0.141890287399292
			vertex -6.551885485649109 -5.0552003383636475 -0.5142731666564941
			vertex -2.3877058029174805 -2.2536797523498535 -2.914895713329315
		endloop
	endfacet
	facet normal 0.6219424760549014 -0.7588354292930841 0.1932779028453058
		outer loop
			vertex -0.3589191436767578 0.11540985107421875 -0.141890287399292
			vertex -1.2197918891906738 -0.21564948558807373 1.3284990787506104
			vertex -6.551885485649109 -5.0552003383636475 -0.5142731666564941
		endloop
	endfacet
	facet normal 0.6219422256038192 -0.7588356866704482 0.19327769826433072
		outer loop
			vertex -0.3589191436767578 0.11540985107421875 -0.141890287399292
			vertex -0.6197528839111328 0.18667805194854736 0.9772474765777588
			vertex -1.2197918891906738 -0.21564948558807373 1.3284990787506104
		endloop
	endfacet
	facet normal 0.8580795522993128 -0.16604261100525192 -0.4859314079747981
		outer loop
			vertex -0.3589191436767578 0.11540985107421875 -0.141890287399292
			vertex -3.4347095489501953 -0.3389410972595215 -5.418007850646973
			vertex -1.4066734313964844 1.5158912986516953 -2.470606043934822
		endloop
	endfacet
	facet normal 0.8580795476033293 -0.166042654161023 -0.4859314015208619
		outer loop
			vertex -0.3589191436767578 0.11540985107421875 -0.141890287399292
			vertex -2.3877058029174805 -2.2536797523498535 -2.914895713329315
			vertex -3.4347095489501953 -0.3389410972595215 -5.418007850646973
		endloop
	endfacet
endsolid exported
