solid exported
	facet normal -0.6118233288008814 0.6347693860859909 -0.4719534307778925
		outer loop
			vertex -4.8795061111450195 2.4053595066070557 -3.9230477809906006
			vertex -7.444013595581055 0.8202412724494934 -2.7304704189300537
			vertex -5.0928521156311035 3.574871301651001 -2.073500156402588
		endloop
	endfacet
	facet normal -0.6118233304045344 0.6347690368844986 -0.47195389836871776
		outer loop
			vertex -4.8795061111450195 2.4053595066070557 -3.9230477809906006
			vertex -7.458103179931641 0.580864429473877 -3.0341625213623047
			vertex -7.444013595581055 0.8202412724494934 -2.7304704189300537
		endloop
	endfacet
	facet normal -0.6118234179933836 0.6347695564513014 -0.4719530860133363
		outer loop
			vertex -4.8795061111450195 2.4053595066070557 -3.9230477809906006
			vertex -7.005756378173828 0.6000904440879822 -3.594710350036621
			vertex -7.458103179931641 0.580864429473877 -3.0341625213623047
		endloop
	endfacet
	facet normal 0 0.8452047815748845 -0.5344425855065742
		outer loop
			vertex -4.8795061111450195 2.4053595066070557 -3.9230477809906006
			vertex 0.000050067901611328125 1.226460576057434 -5.787440776824951
			vertex -0.3301995098590851 1.226460576057434 -5.787440776824951
		endloop
	endfacet
	facet normal 2.5002098273590735e-9 0.8452047845307341 -0.5344425808319876
		outer loop
			vertex -4.8795061111450195 2.4053595066070557 -3.9230477809906006
			vertex 0.000050067901611328125 6.168516159057617 2.028270721435547
			vertex 0.000050067901611328125 1.226460576057434 -5.787440776824951
		endloop
	endfacet
	facet normal -2.1579651098765825e-8 0.8452047934490754 -0.5344425667278998
		outer loop
			vertex -4.8795061111450195 2.4053595066070557 -3.9230477809906006
			vertex -5.0928521156311035 3.574871301651001 -2.073500156402588
			vertex 0.000050067901611328125 6.168516159057617 2.028270721435547
		endloop
	endfacet
	facet normal -0.3228810403454043 0.2125513097154672 -0.922263397584285
		outer loop
			vertex -4.8795061111450195 2.4053595066070557 -3.9230477809906006
			vertex -4.871918678283691 -0.6949490308761597 -4.640223026275635
			vertex -7.005756378173828 0.6000904440879822 -3.594710350036621
		endloop
	endfacet
	facet normal -0.32288105192987104 0.21255130879786094 -0.9222633937400835
		outer loop
			vertex -4.8795061111450195 2.4053595066070557 -3.9230477809906006
			vertex -0.3301995098590851 1.226460576057434 -5.787440776824951
			vertex -4.871918678283691 -0.6949490308761597 -4.640223026275635
		endloop
	endfacet
	facet normal -0.8871750633894886 -0.21931695253188177 0.40598088776688157
		outer loop
			vertex -6.641735553741455 -1.4189496040344238 -1.6985673904418945
			vertex -7.473825454711914 0.4760373532772064 -2.4932024478912354
			vertex -7.487848281860352 0.2670700252056122 -2.636733293533325
		endloop
	endfacet
	facet normal -0.8871747977025816 -0.21931648693178463 0.4059817198856171
		outer loop
			vertex -6.641735553741455 -1.4189496040344238 -1.6985673904418945
			vertex -4.807582855224609 -1.47312593460083 2.2802627086639404
			vertex -7.473825454711914 0.4760373532772064 -2.4932024478912354
		endloop
	endfacet
	facet normal -0.6147993261853527 -0.5959694212003913 -0.5165677472666165
		outer loop
			vertex -6.641735553741455 -1.4189496040344238 -1.6985673904418945
			vertex -4.871918678283691 -0.6949490308761597 -4.640223026275635
			vertex -3.531195878982544 -3.5615768432617188 -2.928642988204956
		endloop
	endfacet
	facet normal -0.6147993474199305 -0.5959693940198406 -0.5165677533525022
		outer loop
			vertex -6.641735553741455 -1.4189496040344238 -1.6985673904418945
			vertex -7.005756378173828 0.6000904440879822 -3.594710350036621
			vertex -4.871918678283691 -0.6949490308761597 -4.640223026275635
		endloop
	endfacet
	facet normal -0.6147997105258424 -0.5959692306472057 -0.5165675096820533
		outer loop
			vertex -6.641735553741455 -1.4189496040344238 -1.6985673904418945
			vertex -7.458103179931641 0.580864429473877 -3.0341625213623047
			vertex -7.005756378173828 0.6000904440879822 -3.594710350036621
		endloop
	endfacet
	facet normal -0.6147995211966273 -0.5959692719923506 -0.5165676873143591
		outer loop
			vertex -6.641735553741455 -1.4189496040344238 -1.6985673904418945
			vertex -7.487848281860352 0.2670700252056122 -2.636733293533325
			vertex -7.458103179931641 0.580864429473877 -3.0341625213623047
		endloop
	endfacet
	facet normal -0.49434031652465354 -0.8418975745560425 0.21641655531626577
		outer loop
			vertex -6.641735553741455 -1.4189496040344238 -1.6985673904418945
			vertex -3.2292494773864746 -1.8351393938064575 4.477209091186523
			vertex -4.807582855224609 -1.47312593460083 2.2802627086639404
		endloop
	endfacet
	facet normal -0.49434013311504926 -0.8418977106585849 0.21641644479944067
		outer loop
			vertex -6.641735553741455 -1.4189496040344238 -1.6985673904418945
			vertex 0.000050067901611328125 -3.7312989234924316 4.477209091186523
			vertex -3.2292494773864746 -1.8351393938064575 4.477209091186523
		endloop
	endfacet
	facet normal -0.4943400794354859 -0.8418977619549638 0.21641636786283186
		outer loop
			vertex -6.641735553741455 -1.4189496040344238 -1.6985673904418945
			vertex 0.000050067901611328125 -5.359138011932373 -1.8553714752197266
			vertex 0.000050067901611328125 -3.7312989234924316 4.477209091186523
		endloop
	endfacet
	facet normal -0.49434006276888276 -0.8418977389390851 0.21641649546860695
		outer loop
			vertex -6.641735553741455 -1.4189496040344238 -1.6985673904418945
			vertex -3.531195878982544 -3.5615768432617188 -2.928642988204956
			vertex 0.000050067901611328125 -5.359138011932373 -1.8553714752197266
		endloop
	endfacet
	facet normal 0 -0.5126453441308162 -0.8586004607155747
		outer loop
			vertex 0.000050067901611328125 1.226460576057434 -5.787440776824951
			vertex -4.871918678283691 -0.6949490308761597 -4.640223026275635
			vertex -0.3301995098590851 1.226460576057434 -5.787440776824951
		endloop
	endfacet
	facet normal 9.133847870848091e-10 -0.5126453458381582 -0.8586004596961706
		outer loop
			vertex 0.000050067901611328125 1.226460576057434 -5.787440776824951
			vertex -3.531195878982544 -3.5615768432617188 -2.928642988204956
			vertex -4.871918678283691 -0.6949490308761597 -4.640223026275635
		endloop
	endfacet
	facet normal 1.0018670070582092e-8 -0.5126453507886257 -0.8586004567403902
		outer loop
			vertex 0.000050067901611328125 1.226460576057434 -5.787440776824951
			vertex 0.000050067901611328125 -5.359138011932373 -1.8553714752197266
			vertex -3.531195878982544 -3.5615768432617188 -2.928642988204956
		endloop
	endfacet
	facet normal 1 0 0
		outer loop
			vertex 0.000050067901611328125 1.226460576057434 -5.787440776824951
			vertex 0.000050067901611328125 -3.7312989234924316 4.477209091186523
			vertex 0.000050067901611328125 -5.359138011932373 -1.8553714752197266
		endloop
	endfacet
	facet normal 1 0 0
		outer loop
			vertex 0.000050067901611328125 1.226460576057434 -5.787440776824951
			vertex 0.000050067901611328125 3.0846214294433594 4.477209091186523
			vertex 0.000050067901611328125 -3.7312989234924316 4.477209091186523
		endloop
	endfacet
	facet normal 1 0 0
		outer loop
			vertex 0.000050067901611328125 1.226460576057434 -5.787440776824951
			vertex 0.000050067901611328125 6.168516159057617 2.028270721435547
			vertex 0.000050067901611328125 3.0846214294433594 4.477209091186523
		endloop
	endfacet
	facet normal -0.6877620340818935 0.4514426013214118 0.5684918312409539
		outer loop
			vertex 0.000050067901611328125 3.0846214294433594 4.477209091186523
			vertex -4.807582855224609 -1.47312593460083 2.2802627086639404
			vertex -3.2292494773864746 -1.8351393938064575 4.477209091186523
		endloop
	endfacet
	facet normal -0.6877620412441752 0.4514426203286523 0.568491807482259
		outer loop
			vertex 0.000050067901611328125 3.0846214294433594 4.477209091186523
			vertex -7.473825454711914 0.4760373532772064 -2.4932024478912354
			vertex -4.807582855224609 -1.47312593460083 2.2802627086639404
		endloop
	endfacet
	facet normal -0.6877620247124768 0.4514427101800529 0.568491756130802
		outer loop
			vertex 0.000050067901611328125 3.0846214294433594 4.477209091186523
			vertex -7.444013595581055 0.8202412724494934 -2.7304704189300537
			vertex -7.473825454711914 0.4760373532772064 -2.4932024478912354
		endloop
	endfacet
	facet normal -0.6877620427041565 0.4514426261116696 0.5684918011236444
		outer loop
			vertex 0.000050067901611328125 3.0846214294433594 4.477209091186523
			vertex -5.0928521156311035 3.574871301651001 -2.073500156402588
			vertex -7.444013595581055 0.8202412724494934 -2.7304704189300537
		endloop
	endfacet
	facet normal -0.6877620603588183 0.45144258573581963 0.5684918118277082
		outer loop
			vertex 0.000050067901611328125 3.0846214294433594 4.477209091186523
			vertex 0.000050067901611328125 6.168516159057617 2.028270721435547
			vertex -5.0928521156311035 3.574871301651001 -2.073500156402588
		endloop
	endfacet
	facet normal 0 0 1
		outer loop
			vertex 0.000050067901611328125 3.0846214294433594 4.477209091186523
			vertex -3.2292494773864746 -1.8351393938064575 4.477209091186523
			vertex 0.000050067901611328125 -3.7312989234924316 4.477209091186523
		endloop
	endfacet
	facet normal -0.9969612115605102 0.07660721898703643 -0.014130698598154719
		outer loop
			vertex -7.444013595581055 0.8202412724494934 -2.7304704189300537
			vertex -7.487848281860352 0.2670700252056122 -2.636733293533325
			vertex -7.473825454711914 0.4760373532772064 -2.4932024478912354
		endloop
	endfacet
	facet normal -0.9969612120810252 0.07660729602239146 -0.014130244232537718
		outer loop
			vertex -7.444013595581055 0.8202412724494934 -2.7304704189300537
			vertex -7.458103179931641 0.580864429473877 -3.0341625213623047
			vertex -7.487848281860352 0.2670700252056122 -2.636733293533325
		endloop
	endfacet
endsolid exported
