solid exported
	facet normal -3.57417554687771e-8 0.5174594417358948 -0.8557077340765216
		outer loop
			vertex 3.3887946605682373 3.7094273567199707 -2.873722791671753
			vertex -0.000050067901611328125 -1.2125046253204346 -5.8500895500183105
			vertex -0.000050067901611328125 5.364925861358643 -1.8726176023483276
		endloop
	endfacet
	facet normal 0 0.5174594237163899 -0.85570774497319
		outer loop
			vertex 3.3887946605682373 3.7094273567199707 -2.873722791671753
			vertex 0.11735568940639496 -1.2125046253204346 -5.8500895500183105
			vertex -0.000050067901611328125 -1.2125046253204346 -5.8500895500183105
		endloop
	endfacet
	facet normal -7.464846690267124e-8 0.5174594600471939 -0.8557077230033985
		outer loop
			vertex 3.3887946605682373 3.7094273567199707 -2.873722791671753
			vertex 4.731603145599365 0.8795111179351807 -4.585016250610352
			vertex 0.11735568940639496 -1.2125046253204346 -5.8500895500183105
		endloop
	endfacet
	facet normal 0.4814987537645768 0.845048277531018 0.23249163160212663
		outer loop
			vertex 3.3887946605682373 3.7094273567199707 -2.873722791671753
			vertex 4.519354343414307 1.5214965343475342 2.7374215126037598
			vertex 6.6026611328125 1.5031123161315918 -1.5103617906570435
		endloop
	endfacet
	facet normal 0.4814987698607946 0.8450482700539583 0.23249162544348545
		outer loop
			vertex 3.3887946605682373 3.7094273567199707 -2.873722791671753
			vertex 2.992055654525757 1.8545905351638794 4.689801216125488
			vertex 4.519354343414307 1.5214965343475342 2.7374215126037598
		endloop
	endfacet
	facet normal 0.4814987932609971 0.8450482572471638 0.2324916235302581
		outer loop
			vertex 3.3887946605682373 3.7094273567199707 -2.873722791671753
			vertex -0.000050067901611328125 3.559458017349243 4.689801216125488
			vertex 2.992055654525757 1.8545905351638794 4.689801216125488
		endloop
	endfacet
	facet normal 0.48149880539825934 0.8450482488809832 0.23249162880248658
		outer loop
			vertex 3.3887946605682373 3.7094273567199707 -2.873722791671753
			vertex -0.000050067901611328125 5.364925861358643 -1.8726176023483276
			vertex -0.000050067901611328125 3.559458017349243 4.689801216125488
		endloop
	endfacet
	facet normal 0.6240950781691137 0.5993033696350188 -0.5013390115971426
		outer loop
			vertex 3.3887946605682373 3.7094273567199707 -2.873722791671753
			vertex 7.154592514038086 -0.5887261033058167 -3.323881149291992
			vertex 4.731603145599365 0.8795111179351807 -4.585016250610352
		endloop
	endfacet
	facet normal 0.624094975377995 0.5993033015065022 -0.5013392209984636
		outer loop
			vertex 3.3887946605682373 3.7094273567199707 -2.873722791671753
			vertex 7.541796684265137 -0.5717469453811646 -2.821570873260498
			vertex 7.154592514038086 -0.5887261033058167 -3.323881149291992
		endloop
	endfacet
	facet normal 0.6240951674074598 0.5993034934946404 -0.5013387524456635
		outer loop
			vertex 3.3887946605682373 3.7094273567199707 -2.873722791671753
			vertex 7.555886268615723 -0.3323701024055481 -2.517878770828247
			vertex 7.541796684265137 -0.5717469453811646 -2.821570873260498
		endloop
	endfacet
	facet normal 0.6240950431133744 0.5993033350495288 -0.5013390965801764
		outer loop
			vertex 3.3887946605682373 3.7094273567199707 -2.873722791671753
			vertex 6.6026611328125 1.5031123161315918 -1.5103617906570435
			vertex 7.555886268615723 -0.3323701024055481 -2.517878770828247
		endloop
	endfacet
	facet normal 0.9969612118520104 -0.07660721137486748 0.01413071930006967
		outer loop
			vertex 7.512051582336426 -0.8855413794517517 -2.4241416454315186
			vertex 7.555886268615723 -0.3323701024055481 -2.517878770828247
			vertex 7.526074409484863 -0.6765739917755127 -2.2806107997894287
		endloop
	endfacet
	facet normal 0.9969612123995286 -0.07660729240592778 0.014130241367184184
		outer loop
			vertex 7.512051582336426 -0.8855413794517517 -2.4241416454315186
			vertex 7.541796684265137 -0.5717469453811646 -2.821570873260498
			vertex 7.555886268615723 -0.3323701024055481 -2.517878770828247
		endloop
	endfacet
	facet normal 0.6626886108624619 -0.4537091637609837 0.595811882856065
		outer loop
			vertex 7.512051582336426 -0.8855413794517517 -2.4241416454315186
			vertex -0.000050067901611328125 -6.106772422790527 1.9552000761032104
			vertex 5.024692535400391 -3.734921455383301 -1.8273850679397583
		endloop
	endfacet
	facet normal 0.6626885980750182 -0.45370907981851766 0.5958119610007852
		outer loop
			vertex 7.512051582336426 -0.8855413794517517 -2.4241416454315186
			vertex -0.000050067901611328125 -2.5156869888305664 4.689801216125488
			vertex -0.000050067901611328125 -6.106772422790527 1.9552000761032104
		endloop
	endfacet
	facet normal 0.6626886099775215 -0.45370903134061485 0.5958119846780705
		outer loop
			vertex 7.512051582336426 -0.8855413794517517 -2.4241416454315186
			vertex 2.992055654525757 1.8545905351638794 4.689801216125488
			vertex -0.000050067901611328125 -2.5156869888305664 4.689801216125488
		endloop
	endfacet
	facet normal 0.6626886363314672 -0.453708991175275 0.5958119859518224
		outer loop
			vertex 7.512051582336426 -0.8855413794517517 -2.4241416454315186
			vertex 4.519354343414307 1.5214965343475342 2.7374215126037598
			vertex 2.992055654525757 1.8545905351638794 4.689801216125488
		endloop
	endfacet
	facet normal 0.6626893744933252 -0.45370797393233986 0.5958119395613489
		outer loop
			vertex 7.512051582336426 -0.8855413794517517 -2.4241416454315186
			vertex 7.526074409484863 -0.6765739917755127 -2.2806107997894287
			vertex 4.519354343414307 1.5214965343475342 2.7374215126037598
		endloop
	endfacet
	facet normal 0.6205491025516304 -0.637376970845279 -0.45680346797989874
		outer loop
			vertex 7.512051582336426 -0.8855413794517517 -2.4241416454315186
			vertex 7.154592514038086 -0.5887261033058167 -3.323881149291992
			vertex 7.541796684265137 -0.5717469453811646 -2.821570873260498
		endloop
	endfacet
	facet normal 0.6205492245975268 -0.6373768466372158 -0.4568034754926975
		outer loop
			vertex 7.512051582336426 -0.8855413794517517 -2.4241416454315186
			vertex 4.847848892211914 -2.5306365489959717 -3.7479567527770996
			vertex 7.154592514038086 -0.5887261033058167 -3.323881149291992
		endloop
	endfacet
	facet normal 0.6205492207567702 -0.6373769314776341 -0.4568033623325474
		outer loop
			vertex 7.512051582336426 -0.8855413794517517 -2.4241416454315186
			vertex 5.024692535400391 -3.734921455383301 -1.8273850679397583
			vertex 4.847848892211914 -2.5306365489959717 -3.7479567527770996
		endloop
	endfacet
	facet normal 0.34678172748019853 -0.21242598460754022 -0.9135740991016363
		outer loop
			vertex 4.731603145599365 0.8795111179351807 -4.585016250610352
			vertex 4.847848892211914 -2.5306365489959717 -3.7479567527770996
			vertex 0.11735568940639496 -1.2125046253204346 -5.8500895500183105
		endloop
	endfacet
	facet normal 0.3467817973110447 -0.2124259762005321 -0.9135740745494985
		outer loop
			vertex 4.731603145599365 0.8795111179351807 -4.585016250610352
			vertex 7.154592514038086 -0.5887261033058167 -3.323881149291992
			vertex 4.847848892211914 -2.5306365489959717 -3.7479567527770996
		endloop
	endfacet
	facet normal 0.8762722196474289 0.2196960700489062 0.4288130523657538
		outer loop
			vertex 4.519354343414307 1.5214965343475342 2.7374215126037598
			vertex 7.555886268615723 -0.3323701024055481 -2.517878770828247
			vertex 6.6026611328125 1.5031123161315918 -1.5103617906570435
		endloop
	endfacet
	facet normal 0.8762722116423113 0.21969620154705333 0.42881300135290806
		outer loop
			vertex 4.519354343414307 1.5214965343475342 2.7374215126037598
			vertex 7.526074409484863 -0.6765739917755127 -2.2806107997894287
			vertex 7.555886268615723 -0.3323701024055481 -2.517878770828247
		endloop
	endfacet
	facet normal -1 0 0
		outer loop
			vertex -0.000050067901611328125 3.559458017349243 4.689801216125488
			vertex -0.000050067901611328125 -6.106772422790527 1.9552000761032104
			vertex -0.000050067901611328125 -2.5156869888305664 4.689801216125488
		endloop
	endfacet
	facet normal -1 0 0
		outer loop
			vertex -0.000050067901611328125 3.559458017349243 4.689801216125488
			vertex -0.000050067901611328125 -1.2125046253204346 -5.8500895500183105
			vertex -0.000050067901611328125 -6.106772422790527 1.9552000761032104
		endloop
	endfacet
	facet normal -1 0 0
		outer loop
			vertex -0.000050067901611328125 3.559458017349243 4.689801216125488
			vertex -0.000050067901611328125 5.364925861358643 -1.8726176023483276
			vertex -0.000050067901611328125 -1.2125046253204346 -5.8500895500183105
		endloop
	endfacet
	facet normal 0 0 1
		outer loop
			vertex -0.000050067901611328125 3.559458017349243 4.689801216125488
			vertex -0.000050067901611328125 -2.5156869888305664 4.689801216125488
			vertex 2.992055654525757 1.8545905351638794 4.689801216125488
		endloop
	endfacet
	facet normal -4.915203618332107e-9 -0.8472187025019781 -0.5312442659745751
		outer loop
			vertex 5.024692535400391 -3.734921455383301 -1.8273850679397583
			vertex 0.11735568940639496 -1.2125046253204346 -5.8500895500183105
			vertex 4.847848892211914 -2.5306365489959717 -3.7479567527770996
		endloop
	endfacet
	facet normal 0 -0.8472186998032503 -0.5312442702784567
		outer loop
			vertex 5.024692535400391 -3.734921455383301 -1.8273850679397583
			vertex -0.000050067901611328125 -1.2125046253204346 -5.8500895500183105
			vertex 0.11735568940639496 -1.2125046253204346 -5.8500895500183105
		endloop
	endfacet
	facet normal -1.9680841256781577e-8 -0.8472187108676824 -0.5312442526331009
		outer loop
			vertex 5.024692535400391 -3.734921455383301 -1.8273850679397583
			vertex -0.000050067901611328125 -6.106772422790527 1.9552000761032104
			vertex -0.000050067901611328125 -1.2125046253204346 -5.8500895500183105
		endloop
	endfacet
endsolid exported
