solid exported
	facet normal 0.43949503066043244 -0.8202148491617917 0.3661853618582878
		outer loop
			vertex 3.684023141860962 -3.135826349258423 -0.000050067901611328125
			vertex -1.1879454851150513 -3.120093584060669 5.8825178146362305
			vertex -1.4321820735931396 -5.8772382736206055 -0.000050067901611328125
		endloop
	endfacet
	facet normal 0.4394950441931541 -0.8202148369214247 0.366185373033411
		outer loop
			vertex 3.684023141860962 -3.135826349258423 -0.000050067901611328125
			vertex 3.353773593902588 -1.1986839771270752 4.735300064086914
			vertex -1.1879454851150513 -3.120093584060669 5.8825178146362305
		endloop
	endfacet
	facet normal 0.4394951922859035 -0.8202147659244627 0.36618535431807686
		outer loop
			vertex 3.684023141860962 -3.135826349258423 -0.000050067901611328125
			vertex 3.684023141860962 -1.1326358318328857 4.486875534057617
			vertex 3.353773593902588 -1.1986839771270752 4.735300064086914
		endloop
	endfacet
	facet normal 0 0 -1
		outer loop
			vertex 3.684023141860962 -3.135826349258423 -0.000050067901611328125
			vertex 2.7316455841064453 5.653919696807861 -0.000050067901611328125
			vertex 3.684023141860962 4.883775234222412 -0.000050067901611328125
		endloop
	endfacet
	facet normal 0 0 -1
		outer loop
			vertex 3.684023141860962 -3.135826349258423 -0.000050067901611328125
			vertex -0.6412546038627625 5.653919696807861 -0.000050067901611328125
			vertex 2.7316455841064453 5.653919696807861 -0.000050067901611328125
		endloop
	endfacet
	facet normal 0 0 -1
		outer loop
			vertex 3.684023141860962 -3.135826349258423 -0.000050067901611328125
			vertex -5.621964931488037 2.039433240890503 -0.000050067901611328125
			vertex -0.6412546038627625 5.653919696807861 -0.000050067901611328125
		endloop
	endfacet
	facet normal 0 0 -1
		outer loop
			vertex 3.684023141860962 -3.135826349258423 -0.000050067901611328125
			vertex -1.756553292274475 -5.757306098937988 -0.000050067901611328125
			vertex -5.621964931488037 2.039433240890503 -0.000050067901611328125
		endloop
	endfacet
	facet normal 0 0 -1
		outer loop
			vertex 3.684023141860962 -3.135826349258423 -0.000050067901611328125
			vertex -1.4321820735931396 -5.8772382736206055 -0.000050067901611328125
			vertex -1.756553292274475 -5.757306098937988 -0.000050067901611328125
		endloop
	endfacet
	facet normal 1 0 0
		outer loop
			vertex 3.684023141860962 -3.135826349258423 -0.000050067901611328125
			vertex 3.684023141860962 4.883775234222412 -0.000050067901611328125
			vertex 3.684023141860962 -1.1326358318328857 4.486875534057617
		endloop
	endfacet
	facet normal 0.43524699269543426 0.538235990857733 0.7217077479804239
		outer loop
			vertex 2.7316455841064453 5.653919696807861 -0.000050067901611328125
			vertex 3.684023141860962 -1.1326358318328857 4.486875534057617
			vertex 3.684023141860962 4.883775234222412 -0.000050067901611328125
		endloop
	endfacet
	facet normal 0.4352476720638435 0.5382358732854864 0.7217074259501665
		outer loop
			vertex 2.7316455841064453 5.653919696807861 -0.000050067901611328125
			vertex 3.353773593902588 -1.1986839771270752 4.735300064086914
			vertex 3.684023141860962 -1.1326358318328857 4.486875534057617
		endloop
	endfacet
	facet normal 0.43524707993127537 0.538236000655401 0.7217076880633718
		outer loop
			vertex 2.7316455841064453 5.653919696807861 -0.000050067901611328125
			vertex -1.1955329179763794 -0.01978515274822712 6.5996928215026855
			vertex 3.353773593902588 -1.1986839771270752 4.735300064086914
		endloop
	endfacet
	facet normal 0.43524713005630594 0.5382359632480341 0.7217076857317026
		outer loop
			vertex 2.7316455841064453 5.653919696807861 -0.000050067901611328125
			vertex 0.7043934464454651 5.653919696807861 1.2225441932678223
			vertex -1.1955329179763794 -0.01978515274822712 6.5996928215026855
		endloop
	endfacet
	facet normal 0 1 0
		outer loop
			vertex 2.7316455841064453 5.653919696807861 -0.000050067901611328125
			vertex -0.6412546038627625 5.653919696807861 -0.000050067901611328125
			vertex 0.7043934464454651 5.653919696807861 1.2225441932678223
		endloop
	endfacet
	facet normal -0.3157717436620216 -0.8540432589322996 0.4133984975504192
		outer loop
			vertex -1.4321820735931396 -5.8772382736206055 -0.000050067901611328125
			vertex -3.6979236602783203 -1.8414596319198608 6.606825351715088
			vertex -1.756553292274475 -5.757306098937988 -0.000050067901611328125
		endloop
	endfacet
	facet normal -0.3157720842999771 -0.8540432053685602 0.4133983480139265
		outer loop
			vertex -1.4321820735931396 -5.8772382736206055 -0.000050067901611328125
			vertex -3.3217830657958984 -1.8250541687011719 6.928030490875244
			vertex -3.6979236602783203 -1.8414596319198608 6.606825351715088
		endloop
	endfacet
	facet normal -0.31577211456264254 -0.8540431997619629 0.4133983364806705
		outer loop
			vertex -1.4321820735931396 -5.8772382736206055 -0.000050067901611328125
			vertex -1.1879454851150513 -3.120093584060669 5.8825178146362305
			vertex -3.3217830657958984 -1.8250541687011719 6.928030490875244
		endloop
	endfacet
	facet normal 0.32288105904190106 -0.2125513125935323 0.9222633903754106
		outer loop
			vertex 3.353773593902588 -1.1986839771270752 4.735300064086914
			vertex -3.3217830657958984 -1.8250541687011719 6.928030490875244
			vertex -1.1879454851150513 -3.120093584060669 5.8825178146362305
		endloop
	endfacet
	facet normal 0.3228810570104289 -0.2125511876479114 0.9222634198824599
		outer loop
			vertex 3.353773593902588 -1.1986839771270752 4.735300064086914
			vertex -1.1955329179763794 -0.01978515274822712 6.5996928215026855
			vertex -3.3217830657958984 -1.8250541687011719 6.928030490875244
		endloop
	endfacet
	facet normal -0.4932471294816557 0.6796875122487387 0.5428923972125852
		outer loop
			vertex 0.7043934464454651 5.653919696807861 1.2225441932678223
			vertex -3.3217830657958984 -1.8250541687011719 6.928030490875244
			vertex -1.1955329179763794 -0.01978515274822712 6.5996928215026855
		endloop
	endfacet
	facet normal -0.49324736161176497 0.6796874938719957 0.5428922093169496
		outer loop
			vertex 0.7043934464454651 5.653919696807861 1.2225441932678223
			vertex -3.6979236602783203 -1.8414596319198608 6.606825351715088
			vertex -3.3217830657958984 -1.8250541687011719 6.928030490875244
		endloop
	endfacet
	facet normal -0.493247170086902 0.6796875004586369 0.5428923750814276
		outer loop
			vertex 0.7043934464454651 5.653919696807861 1.2225441932678223
			vertex -5.621964931488037 2.039433240890503 -0.000050067901611328125
			vertex -3.6979236602783203 -1.8414596319198608 6.606825351715088
		endloop
	endfacet
	facet normal -0.4932471712814104 0.679687504721817 0.5428923686587582
		outer loop
			vertex 0.7043934464454651 5.653919696807861 1.2225441932678223
			vertex -0.6412546038627625 5.653919696807861 -0.000050067901611328125
			vertex -5.621964931488037 2.039433240890503 -0.000050067901611328125
		endloop
	endfacet
	facet normal -0.8959369653426115 -0.44418121767210306 -3.659569439769826e-9
		outer loop
			vertex -5.621964931488037 2.039433240890503 -0.000050067901611328125
			vertex -1.756553292274475 -5.757306098937988 -0.000050067901611328125
			vertex -3.6979236602783203 -1.8414596319198608 6.606825351715088
		endloop
	endfacet
endsolid exported
