solid exported
	facet normal 0.5901656875305706 0.8072821447682017 -1.4526440297047505e-7
		outer loop
			vertex 5.63395357131958 0.46461760997772217 0.000050067901611328125
			vertex -0.6967955231666565 5.0927276611328125 -1.9523295164108276
			vertex -1.3045517206192017 5.53702974319458 0.000050067901611328125
		endloop
	endfacet
	facet normal 0.5901656576833083 0.8072821665881318 3.2418452295491237e-9
		outer loop
			vertex 5.63395357131958 0.46461760997772217 0.000050067901611328125
			vertex 2.309924602508545 2.8946573734283447 -6.970361709594727
			vertex -0.6967955231666565 5.0927276611328125 -1.9523295164108276
		endloop
	endfacet
	facet normal 0.5901657406277733 0.8072821059513636 -5.7451780263943037e-8
		outer loop
			vertex 5.63395357131958 0.46461760997772217 0.000050067901611328125
			vertex 4.97616720199585 0.9454939365386963 -2.196896553039551
			vertex 2.309924602508545 2.8946573734283447 -6.970361709594727
		endloop
	endfacet
	facet normal 0 0 1
		outer loop
			vertex 5.63395357131958 0.46461760997772217 0.000050067901611328125
			vertex -5.21619987487793 -4.502315521240234 0.000050067901611328125
			vertex 1.7244257926940918 -4.502315521240234 0.000050067901611328125
		endloop
	endfacet
	facet normal 0 0 1
		outer loop
			vertex 5.63395357131958 0.46461760997772217 0.000050067901611328125
			vertex -5.21619987487793 1.0555442571640015 0.000050067901611328125
			vertex -5.21619987487793 -4.502315521240234 0.000050067901611328125
		endloop
	endfacet
	facet normal 0 0 1
		outer loop
			vertex 5.63395357131958 0.46461760997772217 0.000050067901611328125
			vertex -2.2240941524505615 5.425821781158447 0.000050067901611328125
			vertex -5.21619987487793 1.0555442571640015 0.000050067901611328125
		endloop
	endfacet
	facet normal 0 0 1
		outer loop
			vertex 5.63395357131958 0.46461760997772217 0.000050067901611328125
			vertex -1.3045517206192017 5.53702974319458 0.000050067901611328125
			vertex -2.2240941524505615 5.425821781158447 0.000050067901611328125
		endloop
	endfacet
	facet normal 0.7368014295871733 -0.5799444724944891 -0.34754576990863617
		outer loop
			vertex 5.63395357131958 0.46461760997772217 0.000050067901611328125
			vertex 3.142014741897583 0.9996703863143921 -6.175726413726807
			vertex 4.97616720199585 0.9454939365386963 -2.196896553039551
		endloop
	endfacet
	facet normal 0.7368014262451051 -0.5799444772991665 -0.3475457689763689
		outer loop
			vertex 5.63395357131958 0.46461760997772217 0.000050067901611328125
			vertex -0.4572901427745819 -4.426117420196533 -4.752366542816162
			vertex 3.142014741897583 0.9996703863143921 -6.175726413726807
		endloop
	endfacet
	facet normal 0.7368014771421036 -0.5799442065935193 -0.3475461127963132
		outer loop
			vertex 5.63395357131958 0.46461760997772217 0.000050067901611328125
			vertex -0.49378663301467896 -4.502315521240234 -4.70258903503418
			vertex -0.4572901427745819 -4.426117420196533 -4.752366542816162
		endloop
	endfacet
	facet normal 0.7368014219385017 -0.5799445151163097 -0.3475457150015092
		outer loop
			vertex 5.63395357131958 0.46461760997772217 0.000050067901611328125
			vertex 1.7244257926940918 -4.502315521240234 0.000050067901611328125
			vertex -0.49378663301467896 -4.502315521240234 -4.70258903503418
		endloop
	endfacet
	facet normal -0.4731889360074171 -0.31164694775456175 -0.8239953948872737
		outer loop
			vertex -5.21619987487793 -2.535541296005249 -2.734550714492798
			vertex -0.49378663301467896 -4.502315521240234 -4.70258903503418
			vertex -5.21619987487793 -4.502315521240234 -1.9906883239746094
		endloop
	endfacet
	facet normal -0.4731885440679013 -0.31164507129066243 -0.8239963296660597
		outer loop
			vertex -5.21619987487793 -2.535541296005249 -2.734550714492798
			vertex -0.4572901427745819 -4.426117420196533 -4.752366542816162
			vertex -0.49378663301467896 -4.502315521240234 -4.70258903503418
		endloop
	endfacet
	facet normal -0.47318891258321405 -0.311647005587877 -0.823995386465498
		outer loop
			vertex -5.21619987487793 -2.535541296005249 -2.734550714492798
			vertex -0.19145703315734863 -0.16369016468524933 -6.517136096954346
			vertex -0.4572901427745819 -4.426117420196533 -4.752366542816162
		endloop
	endfacet
	facet normal -1 0 0
		outer loop
			vertex -5.21619987487793 -2.535541296005249 -2.734550714492798
			vertex -5.21619987487793 -4.502315521240234 0.000050067901611328125
			vertex -5.21619987487793 1.0555442571640015 0.000050067901611328125
		endloop
	endfacet
	facet normal -1 0 0
		outer loop
			vertex -5.21619987487793 -2.535541296005249 -2.734550714492798
			vertex -5.21619987487793 -4.502315521240234 -1.9906883239746094
			vertex -5.21619987487793 -4.502315521240234 0.000050067901611328125
		endloop
	endfacet
	facet normal -0.6626886221622419 0.45370907352019735 -0.5958119390060539
		outer loop
			vertex -5.21619987487793 -2.535541296005249 -2.734550714492798
			vertex 2.2959015369415283 2.685689926147461 -7.113892555236816
			vertex -0.19145703315734863 -0.16369016468524933 -6.517136096954346
		endloop
	endfacet
	facet normal -0.6626885731865775 0.4537087520226362 -0.595812238298275
		outer loop
			vertex -5.21619987487793 -2.535541296005249 -2.734550714492798
			vertex 2.309924602508545 2.8946573734283447 -6.970361709594727
			vertex 2.2959015369415283 2.685689926147461 -7.113892555236816
		endloop
	endfacet
	facet normal -0.66268862546648 0.45370904221434005 -0.5958119591702518
		outer loop
			vertex -5.21619987487793 -2.535541296005249 -2.734550714492798
			vertex -0.6967955231666565 5.0927276611328125 -1.9523295164108276
			vertex 2.309924602508545 2.8946573734283447 -6.970361709594727
		endloop
	endfacet
	facet normal -0.6626885947748672 0.4537090285948807 -0.5958120036780074
		outer loop
			vertex -5.21619987487793 -2.535541296005249 -2.734550714492798
			vertex -2.2240941524505615 5.425821781158447 0.000050067901611328125
			vertex -0.6967955231666565 5.0927276611328125 -1.9523295164108276
		endloop
	endfacet
	facet normal -0.6626886058872018 0.45370902854018186 -0.5958119913600275
		outer loop
			vertex -5.21619987487793 -2.535541296005249 -2.734550714492798
			vertex -5.21619987487793 1.0555442571640015 0.000050067901611328125
			vertex -2.2240941524505615 5.425821781158447 0.000050067901611328125
		endloop
	endfacet
	facet normal -0.11610637756145216 0.9600458350212244 -0.2546199201711396
		outer loop
			vertex -1.3045517206192017 5.53702974319458 0.000050067901611328125
			vertex -0.6967955231666565 5.0927276611328125 -1.9523295164108276
			vertex -2.2240941524505615 5.425821781158447 0.000050067901611328125
		endloop
	endfacet
	facet normal 0 -1 0
		outer loop
			vertex -5.21619987487793 -4.502315521240234 0.000050067901611328125
			vertex -0.49378663301467896 -4.502315521240234 -4.70258903503418
			vertex 1.7244257926940918 -4.502315521240234 0.000050067901611328125
		endloop
	endfacet
	facet normal 0 -1 0
		outer loop
			vertex -5.21619987487793 -4.502315521240234 0.000050067901611328125
			vertex -5.21619987487793 -4.502315521240234 -1.9906883239746094
			vertex -0.49378663301467896 -4.502315521240234 -4.70258903503418
		endloop
	endfacet
	facet normal 0.887174803397655 0.21931642035675117 -0.405981743405086
		outer loop
			vertex 4.97616720199585 0.9454939365386963 -2.196896553039551
			vertex 2.2959015369415283 2.685689926147461 -7.113892555236816
			vertex 2.309924602508545 2.8946573734283447 -6.970361709594727
		endloop
	endfacet
	facet normal 0.8871747924753068 0.21931658043307165 -0.4059816807979646
		outer loop
			vertex 4.97616720199585 0.9454939365386963 -2.196896553039551
			vertex 3.142014741897583 0.9996703863143921 -6.175726413726807
			vertex 2.2959015369415283 2.685689926147461 -7.113892555236816
		endloop
	endfacet
	facet normal 0.22590232154826015 -0.3846432039984948 -0.8949959478885248
		outer loop
			vertex 3.142014741897583 0.9996703863143921 -6.175726413726807
			vertex -0.19145703315734863 -0.16369016468524933 -6.517136096954346
			vertex 2.2959015369415283 2.685689926147461 -7.113892555236816
		endloop
	endfacet
	facet normal 0.225902335618033 -0.38464325132496974 -0.8949959239976872
		outer loop
			vertex 3.142014741897583 0.9996703863143921 -6.175726413726807
			vertex -0.4572901427745819 -4.426117420196533 -4.752366542816162
			vertex -0.19145703315734863 -0.16369016468524933 -6.517136096954346
		endloop
	endfacet
endsolid exported
