solid exported
	facet normal 0 0.9657494262928643 -0.2594764837417904
		outer loop
			vertex -0.000050067901611328125 5.794135093688965 -1.4566113948822021
			vertex 0.11735568940639496 5.794135093688965 -1.4566113948822021
			vertex -0.000050067901611328125 5.767746448516846 -1.5548276901245117
		endloop
	endfacet
	facet normal -1 0 0
		outer loop
			vertex -0.000050067901611328125 5.794135093688965 -1.4566113948822021
			vertex -0.000050067901611328125 -1.0669074058532715 7.092540740966797
			vertex -0.000050067901611328125 0.899867057800293 6.3486785888671875
		endloop
	endfacet
	facet normal -1 0 0
		outer loop
			vertex -0.000050067901611328125 5.794135093688965 -1.4566113948822021
			vertex -0.000050067901611328125 -1.0669074058532715 -5.916720390319824
			vertex -0.000050067901611328125 -1.0669074058532715 7.092540740966797
		endloop
	endfacet
	facet normal -1 0 0
		outer loop
			vertex -0.000050067901611328125 5.794135093688965 -1.4566113948822021
			vertex -0.000050067901611328125 0.16866253316402435 -5.916720390319824
			vertex -0.000050067901611328125 -1.0669074058532715 -5.916720390319824
		endloop
	endfacet
	facet normal -1 0 0
		outer loop
			vertex -0.000050067901611328125 5.794135093688965 -1.4566113948822021
			vertex -0.000050067901611328125 5.767746448516846 -1.5548276901245117
			vertex -0.000050067901611328125 0.16866253316402435 -5.916720390319824
		endloop
	endfacet
	facet normal 0 0.8472187314217089 0.5312442198539108
		outer loop
			vertex -0.000050067901611328125 5.794135093688965 -1.4566113948822021
			vertex 4.847848892211914 4.476003170013428 0.6455217003822327
			vertex 0.11735568940639496 5.794135093688965 -1.4566113948822021
		endloop
	endfacet
	facet normal -5.156422955069754e-8 0.8472186778997869 0.5312443052096978
		outer loop
			vertex -0.000050067901611328125 5.794135093688965 -1.4566113948822021
			vertex 5.024692535400391 3.2717182636260986 2.5660932064056396
			vertex 4.847848892211914 4.476003170013428 0.6455217003822327
		endloop
	endfacet
	facet normal 5.846028426843745e-9 0.8472187101754366 0.5312442537370824
		outer loop
			vertex -0.000050067901611328125 5.794135093688965 -1.4566113948822021
			vertex -0.000050067901611328125 0.899867057800293 6.3486785888671875
			vertex 5.024692535400391 3.2717182636260986 2.5660932064056396
		endloop
	endfacet
	facet normal 0.9759854298144296 -0.13246710678726484 -0.17293035132490336
		outer loop
			vertex 4.847848892211914 4.476003170013428 0.6455217003822327
			vertex 4.749194622039795 -1.0669074058532715 4.334684371948242
			vertex 3.1289658546447754 -1.0669074058532715 -4.809573173522949
		endloop
	endfacet
	facet normal 0.9759850212099067 -0.13246811853464519 -0.17293188238664783
		outer loop
			vertex 4.847848892211914 4.476003170013428 0.6455217003822327
			vertex 4.758859634399414 -0.9907092452049255 4.330862522125244
			vertex 4.749194622039795 -1.0669074058532715 4.334684371948242
		endloop
	endfacet
	facet normal 0.9759854697830673 -0.13246699786265534 -0.17293020918735064
		outer loop
			vertex 4.847848892211914 4.476003170013428 0.6455217003822327
			vertex 5.024692535400391 3.2717182636260986 2.5660932064056396
			vertex 4.758859634399414 -0.9907092452049255 4.330862522125244
		endloop
	endfacet
	facet normal 0.46260989108254463 0.5448448201266447 -0.6993827354558878
		outer loop
			vertex 4.847848892211914 4.476003170013428 0.6455217003822327
			vertex -0.000050067901611328125 5.767746448516846 -1.5548276901245117
			vertex 0.11735568940639496 5.794135093688965 -1.4566113948822021
		endloop
	endfacet
	facet normal 0.4626098866699758 0.5448448859723637 -0.699382687078365
		outer loop
			vertex 4.847848892211914 4.476003170013428 0.6455217003822327
			vertex -0.000050067901611328125 0.16866253316402435 -5.916720390319824
			vertex -0.000050067901611328125 5.767746448516846 -1.5548276901245117
		endloop
	endfacet
	facet normal 0.4626098845976407 0.544844887993868 -0.6993826868742942
		outer loop
			vertex 4.847848892211914 4.476003170013428 0.6455217003822327
			vertex 1.4551587104797363 -1.0669074058532715 -5.916720390319824
			vertex -0.000050067901611328125 0.16866253316402435 -5.916720390319824
		endloop
	endfacet
	facet normal 0.4626098090125598 0.5448449428522065 -0.6993826941337188
		outer loop
			vertex 4.847848892211914 4.476003170013428 0.6455217003822327
			vertex 3.1289658546447754 -1.0669074058532715 -4.809573173522949
			vertex 1.4551587104797363 -1.0669074058532715 -5.916720390319824
		endloop
	endfacet
	facet normal 0.47318868718373136 0.3116481706018743 0.8239950752776635
		outer loop
			vertex 4.758859634399414 -0.9907092452049255 4.330862522125244
			vertex -0.000050067901611328125 -1.0669074058532715 7.092540740966797
			vertex 4.722362995147705 -1.0669074058532715 4.380640506744385
		endloop
	endfacet
	facet normal 0.47318892405082336 0.31164682958851614 0.8239954464455801
		outer loop
			vertex 4.758859634399414 -0.9907092452049255 4.330862522125244
			vertex -0.000050067901611328125 0.899867057800293 6.3486785888671875
			vertex -0.000050067901611328125 -1.0669074058532715 7.092540740966797
		endloop
	endfacet
	facet normal 0.4731889489552678 0.3116469603095728 0.8239953827033334
		outer loop
			vertex 4.758859634399414 -0.9907092452049255 4.330862522125244
			vertex 5.024692535400391 3.2717182636260986 2.5660932064056396
			vertex -0.000050067901611328125 0.899867057800293 6.3486785888671875
		endloop
	endfacet
	facet normal 0.8605349919116603 -0.08395064685445704 0.5024259314449415
		outer loop
			vertex 4.758859634399414 -0.9907092452049255 4.330862522125244
			vertex 4.722362995147705 -1.0669074058532715 4.380640506744385
			vertex 4.749194622039795 -1.0669074058532715 4.334684371948242
		endloop
	endfacet
	facet normal 0 -1 0
		outer loop
			vertex -0.000050067901611328125 -1.0669074058532715 7.092540740966797
			vertex 4.749194622039795 -1.0669074058532715 4.334684371948242
			vertex 4.722362995147705 -1.0669074058532715 4.380640506744385
		endloop
	endfacet
	facet normal 0 -1 0
		outer loop
			vertex -0.000050067901611328125 -1.0669074058532715 7.092540740966797
			vertex 3.1289658546447754 -1.0669074058532715 -4.809573173522949
			vertex 4.749194622039795 -1.0669074058532715 4.334684371948242
		endloop
	endfacet
	facet normal 0 -1 0
		outer loop
			vertex -0.000050067901611328125 -1.0669074058532715 7.092540740966797
			vertex 1.4551587104797363 -1.0669074058532715 -5.916720390319824
			vertex 3.1289658546447754 -1.0669074058532715 -4.809573173522949
		endloop
	endfacet
	facet normal 0 -1 0
		outer loop
			vertex -0.000050067901611328125 -1.0669074058532715 7.092540740966797
			vertex -0.000050067901611328125 -1.0669074058532715 -5.916720390319824
			vertex 1.4551587104797363 -1.0669074058532715 -5.916720390319824
		endloop
	endfacet
	facet normal 0 0 -1
		outer loop
			vertex 1.4551587104797363 -1.0669074058532715 -5.916720390319824
			vertex -0.000050067901611328125 -1.0669074058532715 -5.916720390319824
			vertex -0.000050067901611328125 0.16866253316402435 -5.916720390319824
		endloop
	endfacet
endsolid exported
