solid exported
	facet normal 0.6748936369389159 -0.7379150214078601 1.1021082858185371e-9
		outer loop
			vertex 0.4527771472930908 3.2165361642837524 -3.543231248855591
			vertex -3.43470960855484 -0.3389410972595215 -7.5
			vertex 1.588362216949463 4.255136966705322 -7.5
		endloop
	endfacet
	facet normal 0.6748936375497295 -0.7379150208492129 0
		outer loop
			vertex 0.4527771472930908 3.2165361642837524 -3.543231248855591
			vertex -3.43470960855484 -0.3389410972595215 -5.418007850646973
			vertex -3.43470960855484 -0.3389410972595215 -7.5
		endloop
	endfacet
	facet normal 0.6748936396283262 -0.7379150189481382 -7.915473641674994e-9
		outer loop
			vertex 0.4527771472930908 3.2165361642837524 -3.543231248855591
			vertex -1.4066734313964844 1.5158913135528564 -2.4706058502197266
			vertex -3.43470960855484 -0.3389410972595215 -5.418007850646973
		endloop
	endfacet
	facet normal 0.8474096156717186 0.40066479558845963 0.34837431714058437
		outer loop
			vertex 0.4527771472930908 3.2165361642837524 -3.543231248855591
			vertex 0.05415463447570801 7.5 -7.5
			vertex -0.8462303876876831 7.5 -5.309841632843018
		endloop
	endfacet
	facet normal 0.8474096412906131 0.4006647688328965 0.34837428559495637
		outer loop
			vertex 0.4527771472930908 3.2165361642837524 -3.543231248855591
			vertex 1.588362216949463 4.255136966705322 -7.5
			vertex 0.05415463447570801 7.5 -7.5
		endloop
	endfacet
	facet normal 0.1405935668191649 0.41362449222209446 0.8995266690894049
		outer loop
			vertex 0.4527771472930908 3.2165361642837524 -3.543231248855591
			vertex -7.243588924407959 7.5 -4.309952259063721
			vertex -1.4066734313964844 1.5158913135528564 -2.4706058502197266
		endloop
	endfacet
	facet normal 0.1405935261561203 0.41362442576752795 0.8995267060023682
		outer loop
			vertex 0.4527771472930908 3.2165361642837524 -3.543231248855591
			vertex -0.8462303876876831 7.5 -5.309841632843018
			vertex -7.243588924407959 7.5 -4.309952259063721
		endloop
	endfacet
	facet normal 0 0 -1
		outer loop
			vertex -7.5 7.5 -7.5
			vertex -6.466986417770386 0.850020170211792 -7.5
			vertex -7.5 2.463870048522949 -7.5
		endloop
	endfacet
	facet normal 0 0 -1
		outer loop
			vertex -7.5 7.5 -7.5
			vertex -3.43470960855484 -0.3389410972595215 -7.5
			vertex -6.466986417770386 0.850020170211792 -7.5
		endloop
	endfacet
	facet normal 0 0 -1
		outer loop
			vertex -7.5 7.5 -7.5
			vertex 1.588362216949463 4.255136966705322 -7.5
			vertex -3.43470960855484 -0.3389410972595215 -7.5
		endloop
	endfacet
	facet normal 0 0 -1
		outer loop
			vertex -7.5 7.5 -7.5
			vertex 0.05415463447570801 7.5 -7.5
			vertex 1.588362216949463 4.255136966705322 -7.5
		endloop
	endfacet
	facet normal -1 0 0
		outer loop
			vertex -7.5 7.5 -7.5
			vertex -7.5 2.463870048522949 -7.5
			vertex -7.5 7.5 -4.544999361038208
		endloop
	endfacet
	facet normal 0 1 0
		outer loop
			vertex -7.5 7.5 -7.5
			vertex -0.8462303876876831 7.5 -5.309841632843018
			vertex 0.05415463447570801 7.5 -7.5
		endloop
	endfacet
	facet normal 0 1 0
		outer loop
			vertex -7.5 7.5 -7.5
			vertex -7.243588924407959 7.5 -4.309952259063721
			vertex -0.8462303876876831 7.5 -5.309841632843018
		endloop
	endfacet
	facet normal 0 1 0
		outer loop
			vertex -7.5 7.5 -7.5
			vertex -7.5 7.5 -4.544999361038208
			vertex -7.243588924407959 7.5 -4.309952259063721
		endloop
	endfacet
	facet normal -0.6202016784448312 -0.3969868112263896 0.6765732405043204
		outer loop
			vertex -7.5 7.5 -4.544999361038208
			vertex -1.4066734313964844 1.5158913135528564 -2.4706058502197266
			vertex -7.243588924407959 7.5 -4.309952259063721
		endloop
	endfacet
	facet normal -0.620201480827246 -0.39698647979142515 0.6765736161294673
		outer loop
			vertex -7.5 7.5 -4.544999361038208
			vertex -3.43470960855484 -0.3389410972595215 -5.418007850646973
			vertex -1.4066734313964844 1.5158913135528564 -2.4706058502197266
		endloop
	endfacet
	facet normal -0.6202014683249749 -0.3969864749034763 0.6765736304581023
		outer loop
			vertex -7.5 7.5 -4.544999361038208
			vertex -6.466986417770386 0.850020170211792 -7.5
			vertex -3.43470960855484 -0.3389410972595215 -5.418007850646973
		endloop
	endfacet
	facet normal -0.6202014931965448 -0.3969864699321143 0.67657361057583
		outer loop
			vertex -7.5 7.5 -4.544999361038208
			vertex -7.5 2.463870048522949 -7.5
			vertex -6.466986417770386 0.850020170211792 -7.5
		endloop
	endfacet
	facet normal -0.36504311756689845 -0.9309906134419614 0
		outer loop
			vertex -3.43470960855484 -0.3389410972595215 -7.5
			vertex -3.43470960855484 -0.3389410972595215 -5.418007850646973
			vertex -6.466986417770386 0.850020170211792 -7.5
		endloop
	endfacet
endsolid exported
