solid exported
	facet normal 0.4636193249322254 -0.8208059383911267 -0.3336685976403076
		outer loop
			vertex 5.216675758361816 -1.0505789518356323 -2.8166894912719727
			vertex -0.000050067901611328125 -5.770332336425781 1.545203447341919
			vertex -0.000050067901611328125 -3.997164487838745 -2.8166894912719727
		endloop
	endfacet
	facet normal 0.4636196232011886 -0.8208059220979217 -0.3336682232873979
		outer loop
			vertex 5.216675758361816 -1.0505789518356323 -2.8166894912719727
			vertex 0.11735568940639496 -5.743943691253662 1.6434197425842285
			vertex -0.000050067901611328125 -5.770332336425781 1.545203447341919
		endloop
	endfacet
	facet normal 0.46361933170792746 -0.8208059425263032 -0.333668578053436
		outer loop
			vertex 5.216675758361816 -1.0505789518356323 -2.8166894912719727
			vertex 4.731603145599365 -3.651927947998047 2.9084935188293457
			vertex 0.11735568940639496 -5.743943691253662 1.6434197425842285
		endloop
	endfacet
	facet normal 0 0 -1
		outer loop
			vertex 5.216675758361816 -1.0505789518356323 -2.8166894912719727
			vertex -0.000050067901611328125 2.3950138092041016 -2.8166894912719727
			vertex 4.0726094245910645 2.3950138092041016 -2.8166894912719727
		endloop
	endfacet
	facet normal 0 0 -1
		outer loop
			vertex 5.216675758361816 -1.0505789518356323 -2.8166894912719727
			vertex -0.000050067901611328125 -3.997164487838745 -2.8166894912719727
			vertex -0.000050067901611328125 2.3950138092041016 -2.8166894912719727
		endloop
	endfacet
	facet normal 0.9261826913378093 0.30752737944368913 0.21820296322174348
		outer loop
			vertex 5.216675758361816 -1.0505789518356323 -2.8166894912719727
			vertex 3.3887946605682373 -0.8220117092132568 4.619786739349365
			vertex 4.731603145599365 -3.651927947998047 2.9084935188293457
		endloop
	endfacet
	facet normal 0.9261826872995721 0.307527392596816 0.2182029618248734
		outer loop
			vertex 5.216675758361816 -1.0505789518356323 -2.8166894912719727
			vertex 2.4176766872406006 2.3950138092041016 4.207827091217041
			vertex 3.3887946605682373 -0.8220117092132568 4.619786739349365
		endloop
	endfacet
	facet normal 0.926182672548376 0.307527467135922 0.21820291938494396
		outer loop
			vertex 5.216675758361816 -1.0505789518356323 -2.8166894912719727
			vertex 4.0726094245910645 2.3950138092041016 -2.8166894912719727
			vertex 2.4176766872406006 2.3950138092041016 4.207827091217041
		endloop
	endfacet
	facet normal -1 0 0
		outer loop
			vertex -0.000050067901611328125 2.3950138092041016 -2.8166894912719727
			vertex -0.000050067901611328125 0.8334866166114807 5.62089204788208
			vertex -0.000050067901611328125 2.3950138092041016 5.223003387451172
		endloop
	endfacet
	facet normal -1 0 0
		outer loop
			vertex -0.000050067901611328125 2.3950138092041016 -2.8166894912719727
			vertex -0.000050067901611328125 -5.743943691253662 1.6434197425842285
			vertex -0.000050067901611328125 0.8334866166114807 5.62089204788208
		endloop
	endfacet
	facet normal -1 0 0
		outer loop
			vertex -0.000050067901611328125 2.3950138092041016 -2.8166894912719727
			vertex -0.000050067901611328125 -5.770332336425781 1.545203447341919
			vertex -0.000050067901611328125 -5.743943691253662 1.6434197425842285
		endloop
	endfacet
	facet normal -1 0 0
		outer loop
			vertex -0.000050067901611328125 2.3950138092041016 -2.8166894912719727
			vertex -0.000050067901611328125 -3.997164487838745 -2.8166894912719727
			vertex -0.000050067901611328125 -5.770332336425781 1.545203447341919
		endloop
	endfacet
	facet normal 0 1 0
		outer loop
			vertex -0.000050067901611328125 2.3950138092041016 -2.8166894912719727
			vertex 2.4176766872406006 2.3950138092041016 4.207827091217041
			vertex 4.0726094245910645 2.3950138092041016 -2.8166894912719727
		endloop
	endfacet
	facet normal 0 1 0
		outer loop
			vertex -0.000050067901611328125 2.3950138092041016 -2.8166894912719727
			vertex -0.000050067901611328125 2.3950138092041016 5.223003387451172
			vertex 2.4176766872406006 2.3950138092041016 4.207827091217041
		endloop
	endfacet
	facet normal 0 -0.9657494262928643 0.2594764837417904
		outer loop
			vertex -0.000050067901611328125 -5.770332336425781 1.545203447341919
			vertex 0.11735568940639496 -5.743943691253662 1.6434197425842285
			vertex -0.000050067901611328125 -5.743943691253662 1.6434197425842285
		endloop
	endfacet
	facet normal 0 -0.5174594823034718 0.855707709544692
		outer loop
			vertex 4.731603145599365 -3.651927947998047 2.9084935188293457
			vertex -0.000050067901611328125 -5.743943691253662 1.6434197425842285
			vertex 0.11735568940639496 -5.743943691253662 1.6434197425842285
		endloop
	endfacet
	facet normal 2.2954685187103433e-9 -0.5174594861051047 0.8557077072457866
		outer loop
			vertex 4.731603145599365 -3.651927947998047 2.9084935188293457
			vertex -0.000050067901611328125 0.8334866166114807 5.62089204788208
			vertex -0.000050067901611328125 -5.743943691253662 1.6434197425842285
		endloop
	endfacet
	facet normal 1.2867149962457212e-7 -0.5174593884879937 0.8557077662763237
		outer loop
			vertex 4.731603145599365 -3.651927947998047 2.9084935188293457
			vertex 3.3887946605682373 -0.8220117092132568 4.619786739349365
			vertex -0.000050067901611328125 0.8334866166114807 5.62089204788208
		endloop
	endfacet
	facet normal 0.3768838515972631 0.2287100706939858 0.8975802281514251
		outer loop
			vertex -0.000050067901611328125 0.8334866166114807 5.62089204788208
			vertex 2.4176766872406006 2.3950138092041016 4.207827091217041
			vertex -0.000050067901611328125 2.3950138092041016 5.223003387451172
		endloop
	endfacet
	facet normal 0.37688395430895183 0.22870990974845967 0.8975802260340294
		outer loop
			vertex -0.000050067901611328125 0.8334866166114807 5.62089204788208
			vertex 3.3887946605682373 -0.8220117092132568 4.619786739349365
			vertex 2.4176766872406006 2.3950138092041016 4.207827091217041
		endloop
	endfacet
endsolid exported
