solid exported
	facet normal 0.4179795270216112 0 0.908456446391785
		outer loop
			vertex -3.258541464805603 7.5 2.6567400693893433
			vertex 2.9210357666015625 4.220009088516235 -0.18647468090057373
			vertex 2.9210357666015625 7.5 -0.18647468090057373
		endloop
	endfacet
	facet normal 0.41797952060764626 -1.4642137455262607e-8 0.9084564493428412
		outer loop
			vertex -3.258541464805603 7.5 2.6567400693893433
			vertex 1.8014235496520996 1.8212356567382812 0.32865726947784424
			vertex 2.9210357666015625 4.220009088516235 -0.18647468090057373
		endloop
	endfacet
	facet normal 0.4179795711410591 3.991657130116134e-8 0.9084564260924873
		outer loop
			vertex -3.258541464805603 7.5 2.6567400693893433
			vertex 0.3036007881164551 0.5352029800415039 1.0178035497665405
			vertex 1.8014235496520996 1.8212356567382812 0.32865726947784424
		endloop
	endfacet
	facet normal 0.41797918078142077 -2.0199655443589832e-7 0.9084566056963049
		outer loop
			vertex -3.258541464805603 7.5 2.6567400693893433
			vertex -0.02508711814880371 0.43164873123168945 1.1690322160720825
			vertex 0.3036007881164551 0.5352029800415039 1.0178035497665405
		endloop
	endfacet
	facet normal 0.4179794347423941 -6.122746133992323e-8 0.9084564888493148
		outer loop
			vertex -3.258541464805603 7.5 2.6567400693893433
			vertex -3.240117073059082 4.878769636154175 2.648262858390808
			vertex -0.02508711814880371 0.43164873123168945 1.1690322160720825
		endloop
	endfacet
	facet normal 0 1 0
		outer loop
			vertex -3.258541464805603 7.5 2.6567400693893433
			vertex -7.243588924407959 7.5 -4.30995237827301
			vertex -7.285053730010986 7.5 -4.062649369239807
		endloop
	endfacet
	facet normal 0 1 0
		outer loop
			vertex -3.258541464805603 7.5 2.6567400693893433
			vertex -0.8462303876876831 7.5 -5.309841752052307
			vertex -7.243588924407959 7.5 -4.30995237827301
		endloop
	endfacet
	facet normal 0 1 0
		outer loop
			vertex -3.258541464805603 7.5 2.6567400693893433
			vertex 2.9210357666015625 7.5 -0.18647468090057373
			vertex -0.8462303876876831 7.5 -5.309841752052307
		endloop
	endfacet
	facet normal -0.8577557613724259 -0.007691393342053525 0.513999899125348
		outer loop
			vertex -3.258541464805603 7.5 2.6567400693893433
			vertex -3.7346867322921753 3.0862011909484863 1.796108365058899
			vertex -3.240117073059082 4.878769636154175 2.648262858390808
		endloop
	endfacet
	facet normal -0.8577558534950287 -0.007691353544442544 0.5139997459879422
		outer loop
			vertex -3.258541464805603 7.5 2.6567400693893433
			vertex -7.285053730010986 7.5 -4.062649369239807
			vertex -3.7346867322921753 3.0862011909484863 1.796108365058899
		endloop
	endfacet
	facet normal -0.6929226355530427 -0.711589691638894 -0.11618232176837057
		outer loop
			vertex -7.285053730010986 7.5 -4.062649369239807
			vertex -0.6197531223297119 0.1866779327392578 0.9772475957870483
			vertex -3.7346867322921753 3.0862011909484863 1.796108365058899
		endloop
	endfacet
	facet normal -0.6929225953029524 -0.7115897162993988 -0.11618241078391367
		outer loop
			vertex -7.285053730010986 7.5 -4.062649369239807
			vertex -0.3589191436767578 0.11540985107421875 -0.14189016819000244
			vertex -0.6197531223297119 0.1866779327392578 0.9772475957870483
		endloop
	endfacet
	facet normal -0.6929226934147069 -0.7115896648734212 -0.11618214060792754
		outer loop
			vertex -7.285053730010986 7.5 -4.062649369239807
			vertex -1.4066734910011292 1.5158910751342773 -2.4706060886383057
			vertex -0.3589191436767578 0.11540985107421875 -0.14189016819000244
		endloop
	endfacet
	facet normal -0.6929229400967865 -0.7115896081723104 -0.1161810166455914
		outer loop
			vertex -7.285053730010986 7.5 -4.062649369239807
			vertex -7.243588924407959 7.5 -4.30995237827301
			vertex -1.4066734910011292 1.5158910751342773 -2.4706060886383057
		endloop
	endfacet
	facet normal 0.33137830782643574 -0.7352463682516949 -0.5912708305631026
		outer loop
			vertex -1.4066734910011292 1.5158910751342773 -2.4706060886383057
			vertex 0.19813227653503418 0.20125627517700195 0.0635596513748169
			vertex -0.3589191436767578 0.11540985107421875 -0.14189016819000244
		endloop
	endfacet
	facet normal 0.3313781248116583 -0.7352464922216991 -0.5912707789769389
		outer loop
			vertex -1.4066734910011292 1.5158910751342773 -2.4706060886383057
			vertex 1.240807294845581 1.0873374938964844 -0.4539163112640381
			vertex 0.19813227653503418 0.20125627517700195 0.0635596513748169
		endloop
	endfacet
	facet normal 0.3313780680496351 -0.735246565249341 -0.5912707199792141
		outer loop
			vertex -1.4066734910011292 1.5158910751342773 -2.4706060886383057
			vertex 1.6048738956451416 2.4757866859436035 -1.9764148592948914
			vertex 1.240807294845581 1.0873374938964844 -0.4539163112640381
		endloop
	endfacet
	facet normal 0.3313780575025216 -0.7352464648219985 -0.5912708507719701
		outer loop
			vertex -1.4066734910011292 1.5158910751342773 -2.4706060886383057
			vertex 0.4527771472930908 3.216536045074463 -3.5432313680648804
			vertex 1.6048738956451416 2.4757866859436035 -1.9764148592948914
		endloop
	endfacet
	facet normal -0.14059356041324506 -0.4136244229678543 -0.8995267019354327
		outer loop
			vertex -1.4066734910011292 1.5158910751342773 -2.4706060886383057
			vertex -0.8462303876876831 7.5 -5.309841752052307
			vertex 0.4527771472930908 3.216536045074463 -3.5432313680648804
		endloop
	endfacet
	facet normal -0.14059352602014172 -0.41362442770577457 -0.8995267051323682
		outer loop
			vertex -1.4066734910011292 1.5158910751342773 -2.4706060886383057
			vertex -7.243588924407959 7.5 -4.30995237827301
			vertex -0.8462303876876831 7.5 -5.309841752052307
		endloop
	endfacet
	facet normal 0.11892978455177858 -0.9887528457845665 0.09068360546090411
		outer loop
			vertex -0.3589191436767578 0.11540985107421875 -0.14189016819000244
			vertex -0.08890283107757568 0.2604374885559082 1.085272192955017
			vertex -0.6197531223297119 0.1866779327392578 0.9772475957870483
		endloop
	endfacet
	facet normal 0.11892965544928208 -0.9887528585694335 0.09068363537865605
		outer loop
			vertex -0.3589191436767578 0.11540985107421875 -0.14189016819000244
			vertex 0.030411720275878906 0.267669677734375 1.0076485872268677
			vertex -0.08890283107757568 0.2604374885559082 1.085272192955017
		endloop
	endfacet
	facet normal 0.11892971072370415 -0.9887528536970378 0.0906836160127073
		outer loop
			vertex -0.3589191436767578 0.11540985107421875 -0.14189016819000244
			vertex 0.19813227653503418 0.20125627517700195 0.0635596513748169
			vertex 0.030411720275878906 0.267669677734375 1.0076485872268677
		endloop
	endfacet
	facet normal 0.8056446721660071 3.386515539966789e-8 -0.5923990734382746
		outer loop
			vertex 2.9210357666015625 7.5 -0.18647468090057373
			vertex 0.4527771472930908 3.216536045074463 -3.5432313680648804
			vertex -0.8462303876876831 7.5 -5.309841752052307
		endloop
	endfacet
	facet normal 0.8056446868350454 9.778945461841121e-9 -0.5923990534888299
		outer loop
			vertex 2.9210357666015625 7.5 -0.18647468090057373
			vertex 1.6048738956451416 2.4757866859436035 -1.9764148592948914
			vertex 0.4527771472930908 3.216536045074463 -3.5432313680648804
		endloop
	endfacet
	facet normal 0.8056446999352923 0 -0.5923990356728923
		outer loop
			vertex 2.9210357666015625 7.5 -0.18647468090057373
			vertex 2.9210357666015625 4.220009088516235 -0.18647468090057373
			vertex 1.6048738956451416 2.4757866859436035 -1.9764148592948914
		endloop
	endfacet
	facet normal 0.8701809271762713 -0.44949583697715184 -0.20183816913273514
		outer loop
			vertex 2.9210357666015625 4.220009088516235 -0.18647468090057373
			vertex 1.240807294845581 1.0873374938964844 -0.4539163112640381
			vertex 1.6048738956451416 2.4757866859436035 -1.9764148592948914
		endloop
	endfacet
	facet normal 0.8701808906855044 -0.4494957962266147 -0.20183841720639797
		outer loop
			vertex 2.9210357666015625 4.220009088516235 -0.18647468090057373
			vertex 1.8014235496520996 1.8212356567382812 0.32865726947784424
			vertex 1.240807294845581 1.0873374938964844 -0.4539163112640381
		endloop
	endfacet
	facet normal -0.12990124623387136 -0.39623970058750557 0.9089113080522276
		outer loop
			vertex -3.240117073059082 4.878769636154175 2.648262858390808
			vertex -0.08890283107757568 0.2604374885559082 1.085272192955017
			vertex -0.02508711814880371 0.43164873123168945 1.1690322160720825
		endloop
	endfacet
	facet normal -0.12990157117116513 -0.39623988009928696 0.9089111833541083
		outer loop
			vertex -3.240117073059082 4.878769636154175 2.648262858390808
			vertex -0.6197531223297119 0.1866779327392578 0.9772475957870483
			vertex -0.08890283107757568 0.2604374885559082 1.085272192955017
		endloop
	endfacet
	facet normal -0.12990174176697175 -0.39623995505100934 0.9089111262973301
		outer loop
			vertex -3.240117073059082 4.878769636154175 2.648262858390808
			vertex -3.7346867322921753 3.0862011909484863 1.796108365058899
			vertex -0.6197531223297119 0.1866779327392578 0.9772475957870483
		endloop
	endfacet
	facet normal 0.686029089107937 -0.7070452081930438 0.17161340993345914
		outer loop
			vertex 0.3036007881164551 0.5352029800415039 1.0178035497665405
			vertex 1.240807294845581 1.0873374938964844 -0.4539163112640381
			vertex 1.8014235496520996 1.8212356567382812 0.32865726947784424
		endloop
	endfacet
	facet normal 0.6860290261717731 -0.7070452860784708 0.1716133406353424
		outer loop
			vertex 0.3036007881164551 0.5352029800415039 1.0178035497665405
			vertex 0.19813227653503418 0.20125627517700195 0.0635596513748169
			vertex 1.240807294845581 1.0873374938964844 -0.4539163112640381
		endloop
	endfacet
	facet normal 0.6860286335399628 -0.7070456275050458 0.1716135035167321
		outer loop
			vertex 0.3036007881164551 0.5352029800415039 1.0178035497665405
			vertex 0.030411720275878906 0.267669677734375 1.0076485872268677
			vertex 0.19813227653503418 0.20125627517700195 0.0635596513748169
		endloop
	endfacet
	facet normal 0.4866952677274822 -0.5235287393935276 0.6993177928529334
		outer loop
			vertex 0.3036007881164551 0.5352029800415039 1.0178035497665405
			vertex -0.08890283107757568 0.2604374885559082 1.085272192955017
			vertex 0.030411720275878906 0.267669677734375 1.0076485872268677
		endloop
	endfacet
	facet normal 0.48669454772656967 -0.5235273284625152 0.6993193502014167
		outer loop
			vertex 0.3036007881164551 0.5352029800415039 1.0178035497665405
			vertex -0.02508711814880371 0.43164873123168945 1.1690322160720825
			vertex -0.08890283107757568 0.2604374885559082 1.085272192955017
		endloop
	endfacet
endsolid exported
