solid exported
	facet normal 0.8959369653426115 0.44418121767210306 -1.250601600530459e-8
		outer loop
			vertex 5.645764350891113 -2.087437868118286 -0.000050067901611328125
			vertex 1.7803527116775513 5.709301471710205 -0.000050067901611328125
			vertex 3.7043941020965576 1.8284085988998413 6.606825351715088
		endloop
	endfacet
	facet normal 0.4776944614170795 -0.6870159535939294 0.547555550642006
		outer loop
			vertex 5.645764350891113 -2.087437868118286 -0.000050067901611328125
			vertex -0.7846431136131287 -5.676212310791016 1.1070973873138428
			vertex 0.48442065715789795 -5.676212310791016 -0.000050067901611328125
		endloop
	endfacet
	facet normal 0.4776944709460421 -0.6870159856350925 0.5475555021268834
		outer loop
			vertex 5.645764350891113 -2.087437868118286 -0.000050067901611328125
			vertex 0.93423992395401 -0.13330164551734924 6.562192440032959
			vertex -0.7846431136131287 -5.676212310791016 1.1070973873138428
		endloop
	endfacet
	facet normal 0.47769447200063425 -0.6870159845547507 0.5475555025623446
		outer loop
			vertex 5.645764350891113 -2.087437868118286 -0.000050067901611328125
			vertex 3.240983486175537 1.808608889579773 6.986268043518066
			vertex 0.93423992395401 -0.13330164551734924 6.562192440032959
		endloop
	endfacet
	facet normal 0.47769439231931704 -0.687016038044173 0.5475555049643515
		outer loop
			vertex 5.645764350891113 -2.087437868118286 -0.000050067901611328125
			vertex 3.7043941020965576 1.8284085988998413 6.606825351715088
			vertex 3.240983486175537 1.808608889579773 6.986268043518066
		endloop
	endfacet
	facet normal 0 0 -1
		outer loop
			vertex 5.645764350891113 -2.087437868118286 -0.000050067901611328125
			vertex 1.303066611289978 5.878195285797119 -0.000050067901611328125
			vertex 1.7803527116775513 5.709301471710205 -0.000050067901611328125
		endloop
	endfacet
	facet normal 0 0 -1
		outer loop
			vertex 5.645764350891113 -2.087437868118286 -0.000050067901611328125
			vertex -3.91365909576416 2.931609630584717 -0.000050067901611328125
			vertex 1.303066611289978 5.878195285797119 -0.000050067901611328125
		endloop
	endfacet
	facet normal 0 0 -1
		outer loop
			vertex 5.645764350891113 -2.087437868118286 -0.000050067901611328125
			vertex -3.91365909576416 -4.440642356872559 -0.000050067901611328125
			vertex -3.91365909576416 2.931609630584717 -0.000050067901611328125
		endloop
	endfacet
	facet normal 0 0 -1
		outer loop
			vertex 5.645764350891113 -2.087437868118286 -0.000050067901611328125
			vertex -2.4584503173828125 -5.676212310791016 -0.000050067901611328125
			vertex -3.91365909576416 -4.440642356872559 -0.000050067901611328125
		endloop
	endfacet
	facet normal 0 0 -1
		outer loop
			vertex 5.645764350891113 -2.087437868118286 -0.000050067901611328125
			vertex 0.48442065715789795 -5.676212310791016 -0.000050067901611328125
			vertex -2.4584503173828125 -5.676212310791016 -0.000050067901611328125
		endloop
	endfacet
	facet normal -0.34678180603934605 0.21242596636862787 0.9135740735224727
		outer loop
			vertex 0.8179941773414612 3.276846170425415 5.725132942199707
			vertex 0.93423992395401 -0.13330164551734924 6.562192440032959
			vertex 3.240983486175537 1.808608889579773 6.986268043518066
		endloop
	endfacet
	facet normal -0.3467817958296166 0.2124259675977879 0.9135740771121573
		outer loop
			vertex 0.8179941773414612 3.276846170425415 5.725132942199707
			vertex -3.7962534427642822 1.1848304271697998 4.46005916595459
			vertex 0.93423992395401 -0.13330164551734924 6.562192440032959
		endloop
	endfacet
	facet normal 0.3034555408687079 0.8575513113090939 0.41535585127470376
		outer loop
			vertex 0.8179941773414612 3.276846170425415 5.725132942199707
			vertex 1.7803527116775513 5.709301471710205 -0.000050067901611328125
			vertex 1.303066611289978 5.878195285797119 -0.000050067901611328125
		endloop
	endfacet
	facet normal 0.303455361794847 0.8575513759532154 0.4153558486390986
		outer loop
			vertex 0.8179941773414612 3.276846170425415 5.725132942199707
			vertex 3.7043941020965576 1.8284085988998413 6.606825351715088
			vertex 1.7803527116775513 5.709301471710205 -0.000050067901611328125
		endloop
	endfacet
	facet normal 0.30345539058027526 0.8575513956986883 0.4153557868418406
		outer loop
			vertex 0.8179941773414612 3.276846170425415 5.725132942199707
			vertex 3.240983486175537 1.808608889579773 6.986268043518066
			vertex 3.7043941020965576 1.8284085988998413 6.606825351715088
		endloop
	endfacet
	facet normal -0.4636192817847595 0.8208061798977199 0.3336680634988848
		outer loop
			vertex 0.8179941773414612 3.276846170425415 5.725132942199707
			vertex -3.91365909576416 1.1584417819976807 4.361843109130859
			vertex -3.7962534427642822 1.1848304271697998 4.46005916595459
		endloop
	endfacet
	facet normal -0.4636193256892888 0.8208059443867598 0.3336685818394784
		outer loop
			vertex 0.8179941773414612 3.276846170425415 5.725132942199707
			vertex -3.91365909576416 2.931609630584717 -0.000050067901611328125
			vertex -3.91365909576416 1.1584417819976807 4.361843109130859
		endloop
	endfacet
	facet normal -0.4636193467070005 0.8208059249781808 0.33366860038020885
		outer loop
			vertex 0.8179941773414612 3.276846170425415 5.725132942199707
			vertex 1.303066611289978 5.878195285797119 -0.000050067901611328125
			vertex -3.91365909576416 2.931609630584717 -0.000050067901611328125
		endloop
	endfacet
	facet normal -1 0 0
		outer loop
			vertex -3.91365909576416 2.931609630584717 -0.000050067901611328125
			vertex -3.91365909576416 -4.440642356872559 -0.000050067901611328125
			vertex -3.91365909576416 1.1584417819976807 4.361843109130859
		endloop
	endfacet
	facet normal -0.46260998079518234 -0.5448435096340013 0.699383697035029
		outer loop
			vertex -3.91365909576416 1.1584417819976807 4.361843109130859
			vertex 0.93423992395401 -0.13330164551734924 6.562192440032959
			vertex -3.7962534427642822 1.1848304271697998 4.46005916595459
		endloop
	endfacet
	facet normal -0.46260988707388356 -0.5448449081832483 0.6993826695081002
		outer loop
			vertex -3.91365909576416 1.1584417819976807 4.361843109130859
			vertex -0.7846431136131287 -5.676212310791016 1.1070973873138428
			vertex 0.93423992395401 -0.13330164551734924 6.562192440032959
		endloop
	endfacet
	facet normal -0.4626098795611606 -0.544844907400605 0.6993826750871334
		outer loop
			vertex -3.91365909576416 1.1584417819976807 4.361843109130859
			vertex -2.4584503173828125 -5.676212310791016 -0.000050067901611328125
			vertex -0.7846431136131287 -5.676212310791016 1.1070973873138428
		endloop
	endfacet
	facet normal -0.4626099037806687 -0.5448449040160197 0.699382661703745
		outer loop
			vertex -3.91365909576416 1.1584417819976807 4.361843109130859
			vertex -3.91365909576416 -4.440642356872559 -0.000050067901611328125
			vertex -2.4584503173828125 -5.676212310791016 -0.000050067901611328125
		endloop
	endfacet
	facet normal 0 -1 0
		outer loop
			vertex -2.4584503173828125 -5.676212310791016 -0.000050067901611328125
			vertex 0.48442065715789795 -5.676212310791016 -0.000050067901611328125
			vertex -0.7846431136131287 -5.676212310791016 1.1070973873138428
		endloop
	endfacet
endsolid exported
