solid exported
	facet normal 0.7216428143956075 0.3335992739079954 -0.6065831953485401
		outer loop
			vertex 5.232127010822296 -7.5 4.1764137744903564
			vertex 7.499999821186066 -6.3625951409339905 7.5
			vertex 7.499999821186066 -7.5 6.874467611312866
		endloop
	endfacet
	facet normal 0.721643884617389 0.33359702829608107 -0.606583157123859
		outer loop
			vertex 5.232127010822296 -7.5 4.1764137744903564
			vertex 7.461160480976105 -6.278577089309692 7.5
			vertex 7.499999821186066 -6.3625951409339905 7.5
		endloop
	endfacet
	facet normal 0.7216427994272648 0.33359922875349973 -0.60658323798952
		outer loop
			vertex 5.232127010822296 -7.5 4.1764137744903564
			vertex 1.4474756121635437 -1.9945557117462158 2.7016706466674805
			vertex 7.461160480976105 -6.278577089309692 7.5
		endloop
	endfacet
	facet normal 0 -1 0
		outer loop
			vertex 5.232127010822296 -7.5 4.1764137744903564
			vertex -6.7071115374565125 -7.5 7.5
			vertex -5.56663054227829 -7.5 3.758391857147217
		endloop
	endfacet
	facet normal 0 -1 0
		outer loop
			vertex 5.232127010822296 -7.5 4.1764137744903564
			vertex 7.499999821186066 -7.5 7.5
			vertex -6.7071115374565125 -7.5 7.5
		endloop
	endfacet
	facet normal 0 -1 0
		outer loop
			vertex 5.232127010822296 -7.5 4.1764137744903564
			vertex 7.499999821186066 -7.5 6.874467611312866
			vertex 7.499999821186066 -7.5 7.5
		endloop
	endfacet
	facet normal 0.037603677089228994 -0.23436438149499655 -0.9714212784141784
		outer loop
			vertex 5.232127010822296 -7.5 4.1764137744903564
			vertex -0.43070346117019653 -0.656580924987793 2.3061676025390625
			vertex 1.4474756121635437 -1.9945557117462158 2.7016706466674805
		endloop
	endfacet
	facet normal 0.037604130029399864 -0.23436402538178278 -0.9714213467963216
		outer loop
			vertex 5.232127010822296 -7.5 4.1764137744903564
			vertex -1.0306808352470398 -0.8356776237487793 2.326150894165039
			vertex -0.43070346117019653 -0.656580924987793 2.3061676025390625
		endloop
	endfacet
	facet normal 0.037603899798687924 -0.2343642304780105 -0.9714213062273137
		outer loop
			vertex 5.232127010822296 -7.5 4.1764137744903564
			vertex -5.56663054227829 -7.5 3.758391857147217
			vertex -1.0306808352470398 -0.8356776237487793 2.326150894165039
		endloop
	endfacet
	facet normal -0.2860340226077921 0.9582194622897223 3.0213098504371246e-8
		outer loop
			vertex -2.962427794933319 -1.4123153686523438 7.5
			vertex -0.43070346117019653 -0.656580924987793 2.3061676025390625
			vertex -1.0306808352470398 -0.8356776237487793 2.326150894165039
		endloop
	endfacet
	facet normal -0.28603407951886145 0.9582194453014391 0
		outer loop
			vertex -2.962427794933319 -1.4123153686523438 7.5
			vertex -0.43070346117019653 -0.656580924987793 7.5
			vertex -0.43070346117019653 -0.656580924987793 2.3061676025390625
		endloop
	endfacet
	facet normal -0.8244251490360617 0.5071240774572076 -0.2512933419333743
		outer loop
			vertex -2.962427794933319 -1.4123153686523438 7.5
			vertex -5.56663054227829 -7.5 3.758391857147217
			vertex -6.7071115374565125 -7.5 7.5
		endloop
	endfacet
	facet normal -0.8244251441444067 0.5071240809258672 -0.25129335098161415
		outer loop
			vertex -2.962427794933319 -1.4123153686523438 7.5
			vertex -1.0306808352470398 -0.8356776237487793 2.326150894165039
			vertex -5.56663054227829 -7.5 3.758391857147217
		endloop
	endfacet
	facet normal 0 0 1
		outer loop
			vertex -2.962427794933319 -1.4123153686523438 7.5
			vertex 7.461160480976105 -6.278577089309692 7.5
			vertex -0.43070346117019653 -0.656580924987793 7.5
		endloop
	endfacet
	facet normal 0 0 1
		outer loop
			vertex -2.962427794933319 -1.4123153686523438 7.5
			vertex 7.499999821186066 -6.3625951409339905 7.5
			vertex 7.461160480976105 -6.278577089309692 7.5
		endloop
	endfacet
	facet normal 0 0 1
		outer loop
			vertex -2.962427794933319 -1.4123153686523438 7.5
			vertex 7.499999821186066 -7.5 7.5
			vertex 7.499999821186066 -6.3625951409339905 7.5
		endloop
	endfacet
	facet normal 0 0 1
		outer loop
			vertex -2.962427794933319 -1.4123153686523438 7.5
			vertex -6.7071115374565125 -7.5 7.5
			vertex 7.499999821186066 -7.5 7.5
		endloop
	endfacet
	facet normal 1 0 0
		outer loop
			vertex 7.499999821186066 -7.5 6.874467611312866
			vertex 7.499999821186066 -6.3625951409339905 7.5
			vertex 7.499999821186066 -7.5 7.5
		endloop
	endfacet
	facet normal 0.5802092851186214 0.8144674244327631 1.228273670967809e-8
		outer loop
			vertex 1.4474756121635437 -1.9945557117462158 2.7016706466674805
			vertex -0.43070346117019653 -0.656580924987793 7.5
			vertex 7.461160480976105 -6.278577089309692 7.5
		endloop
	endfacet
	facet normal 0.5802092643026995 0.814467439261583 0
		outer loop
			vertex 1.4474756121635437 -1.9945557117462158 2.7016706466674805
			vertex -0.43070346117019653 -0.656580924987793 2.3061676025390625
			vertex -0.43070346117019653 -0.656580924987793 7.5
		endloop
	endfacet
endsolid exported
