solid exported
	facet normal 0.5533192247011207 -0.47721314557972605 0.6827191584114612
		outer loop
			vertex -6.965793132781982 7.5 7.5
			vertex -3.240117073059082 4.878769636154175 2.6482630372047424
			vertex -3.8618576526641846 7.5 4.98437237739563
		endloop
	endfacet
	facet normal 0.5533192748005593 -0.4772130817708973 0.6827191624093366
		outer loop
			vertex -6.965793132781982 7.5 7.5
			vertex -3.7346866130828857 3.0862011909484863 1.7961084693670273
			vertex -3.240117073059082 4.878769636154175 2.6482630372047424
		endloop
	endfacet
	facet normal 0.5533191997961301 -0.4772131518928794 0.6827191741832318
		outer loop
			vertex -6.965793132781982 7.5 7.5
			vertex -4.890510082244873 2.623918056488037 2.4097307920455933
			vertex -3.7346866130828857 3.0862011909484863 1.7961084693670273
		endloop
	endfacet
	facet normal 0.5533191728488437 -0.4772131717045057 0.6827191821749243
		outer loop
			vertex -6.965793132781982 7.5 7.5
			vertex -7.5 3.699087619781494 5.2761595249176025
			vertex -4.890510082244873 2.623918056488037 2.4097307920455933
		endloop
	endfacet
	facet normal 0.5533192157078793 -0.4772131615555823 0.6827191545332115
		outer loop
			vertex -6.965793132781982 7.5 7.5
			vertex -7.5 6.880597710609436 7.5
			vertex -7.5 3.699087619781494 5.2761595249176025
		endloop
	endfacet
	facet normal 0 1 0
		outer loop
			vertex -6.965793132781982 7.5 7.5
			vertex -7.5 7.5 -4.062649250030518
			vertex -7.5 7.5 7.5
		endloop
	endfacet
	facet normal 0 1 0
		outer loop
			vertex -6.965793132781982 7.5 7.5
			vertex -7.285053938627243 7.5 -4.062649250030518
			vertex -7.5 7.5 -4.062649250030518
		endloop
	endfacet
	facet normal 0 1 0
		outer loop
			vertex -6.965793132781982 7.5 7.5
			vertex -3.2585415840148926 7.5 2.6567400097846985
			vertex -7.285053938627243 7.5 -4.062649250030518
		endloop
	endfacet
	facet normal 0 1 0
		outer loop
			vertex -6.965793132781982 7.5 7.5
			vertex -3.8618576526641846 7.5 4.98437237739563
			vertex -3.2585415840148926 7.5 2.6567400097846985
		endloop
	endfacet
	facet normal 0 0 1
		outer loop
			vertex -6.965793132781982 7.5 7.5
			vertex -7.5 7.5 7.5
			vertex -7.5 6.880597710609436 7.5
		endloop
	endfacet
	facet normal 0 -0.7987070483407593 -0.6017200768885745
		outer loop
			vertex -7.5 7.5 -4.062649250030518
			vertex -4.890510082244873 2.623918056488037 2.4097307920455933
			vertex -7.5 2.623918056488037 2.4097307920455933
		endloop
	endfacet
	facet normal -5.2279826893574985e-8 -0.7987070584707192 -0.6017200634423359
		outer loop
			vertex -7.5 7.5 -4.062649250030518
			vertex -3.7346866130828857 3.0862011909484863 1.7961084693670273
			vertex -4.890510082244873 2.623918056488037 2.4097307920455933
		endloop
	endfacet
	facet normal 0 -0.7987070423229803 -0.6017200848764124
		outer loop
			vertex -7.5 7.5 -4.062649250030518
			vertex -7.285053938627243 7.5 -4.062649250030518
			vertex -3.7346866130828857 3.0862011909484863 1.7961084693670273
		endloop
	endfacet
	facet normal -1 0 0
		outer loop
			vertex -7.5 7.5 -4.062649250030518
			vertex -7.5 6.880597710609436 7.5
			vertex -7.5 7.5 7.5
		endloop
	endfacet
	facet normal -1 0 0
		outer loop
			vertex -7.5 7.5 -4.062649250030518
			vertex -7.5 3.699087619781494 5.2761595249176025
			vertex -7.5 6.880597710609436 7.5
		endloop
	endfacet
	facet normal -1 0 0
		outer loop
			vertex -7.5 7.5 -4.062649250030518
			vertex -7.5 2.623918056488037 2.4097307920455933
			vertex -7.5 3.699087619781494 5.2761595249176025
		endloop
	endfacet
	facet normal 0.8577558421675247 0.007691385417616637 -0.5139997644141857
		outer loop
			vertex -7.285053938627243 7.5 -4.062649250030518
			vertex -3.240117073059082 4.878769636154175 2.6482630372047424
			vertex -3.7346866130828857 3.0862011909484863 1.7961084693670273
		endloop
	endfacet
	facet normal 0.857755842219505 0.007691385731955192 -0.5139997643227381
		outer loop
			vertex -7.285053938627243 7.5 -4.062649250030518
			vertex -3.2585415840148926 7.5 2.6567400097846985
			vertex -3.240117073059082 4.878769636154175 2.6482630372047424
		endloop
	endfacet
	facet normal 0.9679940811545685 0.005992580005725077 0.25090147037153415
		outer loop
			vertex -3.2585415840148926 7.5 2.6567400097846985
			vertex -3.8618576526641846 7.5 4.98437237739563
			vertex -3.240117073059082 4.878769636154175 2.6482630372047424
		endloop
	endfacet
	facet normal 0 -0.9363013834031739 0.35119755044319817
		outer loop
			vertex -4.890510082244873 2.623918056488037 2.4097307920455933
			vertex -7.5 3.699087619781494 5.2761595249176025
			vertex -7.5 2.623918056488037 2.4097307920455933
		endloop
	endfacet
endsolid exported
