solid exported
	facet normal 0.39931031439880993 -0.376013354130691 -0.8361610074202883
		outer loop
			vertex 7.5 -6.237330853939056 7.5
			vertex 3.232025384902954 2.409795105457306 1.5732932090759277
			vertex 7.5 1.57261723279953 3.987943410873413
		endloop
	endfacet
	facet normal 0.39931035591227115 -0.37601332808168325 -0.8361609993094345
		outer loop
			vertex 7.5 -6.237330853939056 7.5
			vertex 0.3036007881164551 0.5352030992507935 1.01780366897583
			vertex 3.232025384902954 2.409795105457306 1.5732932090759277
		endloop
	endfacet
	facet normal 0.39931095886162316 -0.37601268750980726 -0.8361609994281385
		outer loop
			vertex 7.5 -6.237330853939056 7.5
			vertex 0.030411720275878906 0.26766955852508545 1.0076484680175781
			vertex 0.3036007881164551 0.5352030992507935 1.01780366897583
		endloop
	endfacet
	facet normal 0.39931033123806825 -0.3760133914162222 -0.8361609826117308
		outer loop
			vertex 7.5 -6.237330853939056 7.5
			vertex 1.4474756717681885 -1.994555652141571 2.7016706466674805
			vertex 0.030411720275878906 0.26766955852508545 1.0076484680175781
		endloop
	endfacet
	facet normal 0.39931204891400096 -0.3760111521869094 -0.8361611692868639
		outer loop
			vertex 7.5 -6.237330853939056 7.5
			vertex 7.46116042137146 -6.278577268123627 7.5
			vertex 1.4474756717681885 -1.994555652141571 2.7016706466674805
		endloop
	endfacet
	facet normal 1 0 0
		outer loop
			vertex 7.5 -6.237330853939056 7.5
			vertex 7.5 1.57261723279953 3.987943410873413
			vertex 7.5 3.9020844101905823 7.5
		endloop
	endfacet
	facet normal 0 0 1
		outer loop
			vertex 7.5 -6.237330853939056 7.5
			vertex -0.43070363998413086 -0.6565807461738586 7.5
			vertex 7.46116042137146 -6.278577268123627 7.5
		endloop
	endfacet
	facet normal 0 0 1
		outer loop
			vertex 7.5 -6.237330853939056 7.5
			vertex 1.456587314605713 4.406838238239288 7.5
			vertex -0.43070363998413086 -0.6565807461738586 7.5
		endloop
	endfacet
	facet normal 0 0 1
		outer loop
			vertex 7.5 -6.237330853939056 7.5
			vertex 4.097090899944305 5.846538603305817 7.5
			vertex 1.456587314605713 4.406838238239288 7.5
		endloop
	endfacet
	facet normal 0 0 1
		outer loop
			vertex 7.5 -6.237330853939056 7.5
			vertex 7.5 3.9020844101905823 7.5
			vertex 4.097090899944305 5.846538603305817 7.5
		endloop
	endfacet
	facet normal -0.937026455457827 0.3492583882631043 0
		outer loop
			vertex 1.456587314605713 4.406838238239288 7.5
			vertex -0.43070363998413086 -0.6565807461738586 2.3061676025390625
			vertex -0.43070363998413086 -0.6565807461738586 7.5
		endloop
	endfacet
	facet normal -0.9370264523975232 0.3492583964736028 -9.116366150951012e-9
		outer loop
			vertex 1.456587314605713 4.406838238239288 7.5
			vertex -0.08890295028686523 0.26043736934661865 1.0852723121643066
			vertex -0.43070363998413086 -0.6565807461738586 2.3061676025390625
		endloop
	endfacet
	facet normal -0.9370267183770079 0.3492576828751933 5.162268648496443e-7
		outer loop
			vertex 1.456587314605713 4.406838238239288 7.5
			vertex -0.025087356567382812 0.43164870142936707 1.169032096862793
			vertex -0.08890295028686523 0.26043736934661865 1.0852723121643066
		endloop
	endfacet
	facet normal -0.4382873501061168 0.8038487562528009 -0.40215839641586887
		outer loop
			vertex 1.456587314605713 4.406838238239288 7.5
			vertex 0.3036007881164551 0.5352030992507935 1.01780366897583
			vertex -0.025087356567382812 0.43164870142936707 1.169032096862793
		endloop
	endfacet
	facet normal -0.4382880066185714 0.8038485256310826 -0.4021581418982518
		outer loop
			vertex 1.456587314605713 4.406838238239288 7.5
			vertex 3.232025384902954 2.409795105457306 1.5732932090759277
			vertex 0.3036007881164551 0.5352030992507935 1.01780366897583
		endloop
	endfacet
	facet normal -0.43828799601542223 0.803848531938179 -0.40215814084713
		outer loop
			vertex 1.456587314605713 4.406838238239288 7.5
			vertex 4.097090899944305 5.846538603305817 7.5
			vertex 3.232025384902954 2.409795105457306 1.5732932090759277
		endloop
	endfacet
	facet normal -0.5802092497368703 -0.8144674496379694 0
		outer loop
			vertex 1.4474756717681885 -1.994555652141571 2.7016706466674805
			vertex -0.43070363998413086 -0.6565807461738586 7.5
			vertex -0.43070363998413086 -0.6565807461738586 2.3061676025390625
		endloop
	endfacet
	facet normal -0.5802093037882537 -0.8144674111329129 -3.189380683508825e-8
		outer loop
			vertex 1.4474756717681885 -1.994555652141571 2.7016706466674805
			vertex 7.46116042137146 -6.278577268123627 7.5
			vertex -0.43070363998413086 -0.6565807461738586 7.5
		endloop
	endfacet
	facet normal -0.36291759728722917 -0.693436981004867 -0.6224435484075005
		outer loop
			vertex 1.4474756717681885 -1.994555652141571 2.7016706466674805
			vertex -0.08890295028686523 0.26043736934661865 1.0852723121643066
			vertex 0.030411720275878906 0.26766955852508545 1.0076484680175781
		endloop
	endfacet
	facet normal -0.36291661551575605 -0.6934368372317194 -0.6224442810024515
		outer loop
			vertex 1.4474756717681885 -1.994555652141571 2.7016706466674805
			vertex -0.43070363998413086 -0.6565807461738586 2.3061676025390625
			vertex -0.08890295028686523 0.26043736934661865 1.0852723121643066
		endloop
	endfacet
	facet normal 0.42992947399713005 0.7524019169196843 -0.49905110239747585
		outer loop
			vertex 4.097090899944305 5.846538603305817 7.5
			vertex 7.5 1.57261723279953 3.987943410873413
			vertex 3.232025384902954 2.409795105457306 1.5732932090759277
		endloop
	endfacet
	facet normal 0.42992951693311154 0.7524019186126086 -0.49905106285602396
		outer loop
			vertex 4.097090899944305 5.846538603305817 7.5
			vertex 7.5 3.9020844101905823 7.5
			vertex 7.5 1.57261723279953 3.987943410873413
		endloop
	endfacet
	facet normal -0.48669410194299007 0.5235261570233279 -0.6993205374120598
		outer loop
			vertex 0.3036007881164551 0.5352030992507935 1.01780366897583
			vertex -0.08890295028686523 0.26043736934661865 1.0852723121643066
			vertex -0.025087356567382812 0.43164870142936707 1.169032096862793
		endloop
	endfacet
	facet normal -0.4866957213846962 0.5235293305168072 -0.6993170345947923
		outer loop
			vertex 0.3036007881164551 0.5352030992507935 1.01780366897583
			vertex 0.030411720275878906 0.26766955852508545 1.0076484680175781
			vertex -0.08890295028686523 0.26043736934661865 1.0852723121643066
		endloop
	endfacet
endsolid exported
