solid exported
	facet normal 0.6752735821356329 -0.5622138627447189 -0.47741089410210696
		outer loop
			vertex -7.5 -7.5 1.0237383842468262
			vertex -1.0306806564331055 -0.835677444934845 2.326150894165039
			vertex -5.566630482673645 -7.5 3.758391857147217
		endloop
	endfacet
	facet normal 0.6752735181598525 -0.5622137591038854 -0.4774111066432093
		outer loop
			vertex -7.5 -7.5 1.0237383842468262
			vertex -1.2197918891906738 -0.21564948558807373 1.3284990787506104
			vertex -1.0306806564331055 -0.835677444934845 2.326150894165039
		endloop
	endfacet
	facet normal 0.6752735951906279 -0.5622138337523871 -0.4774109097787433
		outer loop
			vertex -7.5 -7.5 1.0237383842468262
			vertex -6.551885485649109 -5.0552003383636475 -0.5142731666564941
			vertex -1.2197918891906738 -0.21564948558807373 1.3284990787506104
		endloop
	endfacet
	facet normal 0.6752736212265043 -0.5622138262443009 -0.47741088179406493
		outer loop
			vertex -7.5 -7.5 1.0237383842468262
			vertex -7.5 -6.412262439727783 -0.2572150230407715
			vertex -6.551885485649109 -5.0552003383636475 -0.5142731666564941
		endloop
	endfacet
	facet normal 0 -1 0
		outer loop
			vertex -7.5 -7.5 1.0237383842468262
			vertex -6.7071115374565125 -7.5 7.5
			vertex -7.5 -7.5 7.5
		endloop
	endfacet
	facet normal 0 -1 0
		outer loop
			vertex -7.5 -7.5 1.0237383842468262
			vertex -5.566630482673645 -7.5 3.758391857147217
			vertex -6.7071115374565125 -7.5 7.5
		endloop
	endfacet
	facet normal -1 0 0
		outer loop
			vertex -7.5 -7.5 1.0237383842468262
			vertex -7.5 -5.189233779907227 -0.5653095245361328
			vertex -7.5 -6.412262439727783 -0.2572150230407715
		endloop
	endfacet
	facet normal -1 0 0
		outer loop
			vertex -7.5 -7.5 1.0237383842468262
			vertex -7.5 2.623918056488037 2.4097306728363037
			vertex -7.5 -5.189233779907227 -0.5653095245361328
		endloop
	endfacet
	facet normal -1 0 0
		outer loop
			vertex -7.5 -7.5 1.0237383842468262
			vertex -7.5 3.699087619781494 5.276159627363086
			vertex -7.5 2.623918056488037 2.4097306728363037
		endloop
	endfacet
	facet normal -1 0 0
		outer loop
			vertex -7.5 -7.5 1.0237383842468262
			vertex -7.5 2.6989359855651855 7.5
			vertex -7.5 3.699087619781494 5.276159627363086
		endloop
	endfacet
	facet normal -1 0 0
		outer loop
			vertex -7.5 -7.5 1.0237383842468262
			vertex -7.5 -7.5 7.5
			vertex -7.5 2.6989359855651855 7.5
		endloop
	endfacet
	facet normal 0 0.9363013923332368 -0.35119752663542814
		outer loop
			vertex -7.5 3.699087619781494 5.276159627363086
			vertex -4.890510082244873 2.623918056488037 2.4097306728363037
			vertex -7.5 2.623918056488037 2.4097306728363037
		endloop
	endfacet
	facet normal 0.6369898046418058 0.703043177265562 0.31618709600921074
		outer loop
			vertex -7.5 3.699087619781494 5.276159627363086
			vertex -1.2197918891906738 -0.21564948558807373 1.3284990787506104
			vertex -4.890510082244873 2.623918056488037 2.4097306728363037
		endloop
	endfacet
	facet normal 0.6369897844431976 0.7030432363845696 0.3161870052499294
		outer loop
			vertex -7.5 3.699087619781494 5.276159627363086
			vertex -1.0306806564331055 -0.835677444934845 2.326150894165039
			vertex -1.2197918891906738 -0.21564948558807373 1.3284990787506104
		endloop
	endfacet
	facet normal 0.6369897976688619 0.7030431553004096 0.3161871588964782
		outer loop
			vertex -7.5 3.699087619781494 5.276159627363086
			vertex -2.962428092956543 -1.4123152196407318 7.5
			vertex -1.0306806564331055 -0.835677444934845 2.326150894165039
		endloop
	endfacet
	facet normal 0.6369897995662654 0.7030431553112454 0.31618715504988054
		outer loop
			vertex -7.5 3.699087619781494 5.276159627363086
			vertex -7.5 2.6989359855651855 7.5
			vertex -2.962428092956543 -1.4123152196407318 7.5
		endloop
	endfacet
	facet normal 0 0.3558492357136682 -0.9345433759018349
		outer loop
			vertex -4.890510082244873 2.623918056488037 2.4097306728363037
			vertex -7.5 -5.189233779907227 -0.5653095245361328
			vertex -7.5 2.623918056488037 2.4097306728363037
		endloop
	endfacet
	facet normal -8.354226996656112e-9 0.35584923815055053 -0.934543374973935
		outer loop
			vertex -4.890510082244873 2.623918056488037 2.4097306728363037
			vertex -6.551885485649109 -5.0552003383636475 -0.5142731666564941
			vertex -7.5 -5.189233779907227 -0.5653095245361328
		endloop
	endfacet
	facet normal 2.7613906756794105e-8 0.3558492313542394 -0.9345433775617888
		outer loop
			vertex -4.890510082244873 2.623918056488037 2.4097306728363037
			vertex -1.2197918891906738 -0.21564948558807373 1.3284990787506104
			vertex -6.551885485649109 -5.0552003383636475 -0.5142731666564941
		endloop
	endfacet
	facet normal 0 0 1
		outer loop
			vertex -7.5 -7.5 7.5
			vertex -2.962428092956543 -1.4123152196407318 7.5
			vertex -7.5 2.6989359855651855 7.5
		endloop
	endfacet
	facet normal 0 0 1
		outer loop
			vertex -7.5 -7.5 7.5
			vertex -6.7071115374565125 -7.5 7.5
			vertex -2.962428092956543 -1.4123152196407318 7.5
		endloop
	endfacet
	facet normal 0.8244251349011432 -0.5071240603213958 0.25129342288721596
		outer loop
			vertex -2.962428092956543 -1.4123152196407318 7.5
			vertex -5.566630482673645 -7.5 3.758391857147217
			vertex -1.0306806564331055 -0.835677444934845 2.326150894165039
		endloop
	endfacet
	facet normal 0.8244251683788396 -0.5071240365824504 0.2512933609625289
		outer loop
			vertex -2.962428092956543 -1.4123152196407318 7.5
			vertex -6.7071115374565125 -7.5 7.5
			vertex -5.566630482673645 -7.5 3.758391857147217
		endloop
	endfacet
	facet normal 0.0864075586913345 -0.243365792763492 -0.9660780634677514
		outer loop
			vertex -7.5 -6.412262439727783 -0.2572150230407715
			vertex -7.5 -5.189233779907227 -0.5653095245361328
			vertex -6.551885485649109 -5.0552003383636475 -0.5142731666564941
		endloop
	endfacet
endsolid exported
