solid exported
	facet normal 0.4941923589394749 0.31253463249045893 -0.8112311728847033
		outer loop
			vertex 5.416522979736328 4.523726463317871 -1.7128251791000366
			vertex 0.5688012838363647 4.450156211853027 -4.694343090057373
			vertex 0.603425145149231 4.523726463317871 -4.644906997680664
		endloop
	endfacet
	facet normal 0.4941919001122992 0.3125371341692992 -0.8112304885965744
		outer loop
			vertex 5.416522979736328 4.523726463317871 -1.7128251791000366
			vertex 0.323620468378067 0.01953318901360035 -6.550659656524658
			vertex 0.5688012838363647 4.450156211853027 -4.694343090057373
		endloop
	endfacet
	facet normal 0.4941920278940854 0.3125369728364919 -0.811230472908984
		outer loop
			vertex 5.416522979736328 4.523726463317871 -1.7128251791000366
			vertex 5.416522979736328 2.613178014755249 -2.4488885402679443
			vertex 0.323620468378067 0.01953318901360035 -6.550659656524658
		endloop
	endfacet
	facet normal 0 1 0
		outer loop
			vertex 5.416522979736328 4.523726463317871 -1.7128251791000366
			vertex -1.6908069849014282 4.523726463317871 0.000050067901611328125
			vertex 5.416522979736328 4.523726463317871 0.000050067901611328125
		endloop
	endfacet
	facet normal 0 1 0
		outer loop
			vertex 5.416522979736328 4.523726463317871 -1.7128251791000366
			vertex 0.603425145149231 4.523726463317871 -4.644906997680664
			vertex -1.6908069849014282 4.523726463317871 0.000050067901611328125
		endloop
	endfacet
	facet normal 1 0 0
		outer loop
			vertex 5.416522979736328 4.523726463317871 -1.7128251791000366
			vertex 5.416522979736328 -0.470716655254364 0.000050067901611328125
			vertex 5.416522979736328 2.613178014755249 -2.4488885402679443
		endloop
	endfacet
	facet normal 1 0 0
		outer loop
			vertex 5.416522979736328 4.523726463317871 -1.7128251791000366
			vertex 5.416522979736328 4.523726463317871 0.000050067901611328125
			vertex 5.416522979736328 -0.470716655254364 0.000050067901611328125
		endloop
	endfacet
	facet normal -0.7277794238279189 0.5840571771207772 -0.35946393992501036
		outer loop
			vertex -1.6908069849014282 4.523726463317871 0.000050067901611328125
			vertex -5.064073085784912 -0.8812301754951477 -1.9523295164108276
			vertex -5.6718292236328125 -0.436928391456604 0.000050067901611328125
		endloop
	endfacet
	facet normal -0.7277793917893302 0.5840571792856557 -0.3594640012736133
		outer loop
			vertex -1.6908069849014282 4.523726463317871 0.000050067901611328125
			vertex -2.9807662963867188 -0.8996143937110901 -6.200112819671631
			vertex -5.064073085784912 -0.8812301754951477 -1.9523295164108276
		endloop
	endfacet
	facet normal -0.7277793566119686 0.5840572048515441 -0.35946403095507423
		outer loop
			vertex -1.6908069849014282 4.523726463317871 0.000050067901611328125
			vertex 0.5688012838363647 4.450156211853027 -4.694343090057373
			vertex -2.9807662963867188 -0.8996143937110901 -6.200112819671631
		endloop
	endfacet
	facet normal -0.7277805762740294 0.5840553417058968 -0.35946458883045784
		outer loop
			vertex -1.6908069849014282 4.523726463317871 0.000050067901611328125
			vertex 0.603425145149231 4.523726463317871 -4.644906997680664
			vertex 0.5688012838363647 4.450156211853027 -4.694343090057373
		endloop
	endfacet
	facet normal 0 0 1
		outer loop
			vertex -1.6908069849014282 4.523726463317871 0.000050067901611328125
			vertex 5.416522979736328 -0.470716655254364 0.000050067901611328125
			vertex 5.416522979736328 4.523726463317871 0.000050067901611328125
		endloop
	endfacet
	facet normal 0 0 1
		outer loop
			vertex -1.6908069849014282 4.523726463317871 0.000050067901611328125
			vertex 2.187223196029663 -5.390477657318115 0.000050067901611328125
			vertex 5.416522979736328 -0.470716655254364 0.000050067901611328125
		endloop
	endfacet
	facet normal 0 0 1
		outer loop
			vertex -1.6908069849014282 4.523726463317871 0.000050067901611328125
			vertex 1.2666759490966797 -5.509340286254883 0.000050067901611328125
			vertex 2.187223196029663 -5.390477657318115 0.000050067901611328125
		endloop
	endfacet
	facet normal 0 0 1
		outer loop
			vertex -1.6908069849014282 4.523726463317871 0.000050067901611328125
			vertex -5.6718292236328125 -0.436928391456604 0.000050067901611328125
			vertex 1.2666759490966797 -5.509340286254883 0.000050067901611328125
		endloop
	endfacet
	facet normal 0.687762046047637 -0.4514426455318198 -0.5684917816570437
		outer loop
			vertex 5.416522979736328 2.613178014755249 -2.4488885402679443
			vertex -2.027540922164917 -2.7350969314575195 -7.207629680633545
			vertex 0.323620468378067 0.01953318901360035 -6.550659656524658
		endloop
	endfacet
	facet normal 0.6877620720359501 -0.45144286414548646 -0.5684915766138814
		outer loop
			vertex 5.416522979736328 2.613178014755249 -2.4488885402679443
			vertex -2.0573527812957764 -3.07930064201355 -6.970361709594727
			vertex -2.027540922164917 -2.7350969314575195 -7.207629680633545
		endloop
	endfacet
	facet normal 0.6877620369337881 -0.4514426479837153 -0.5684917907359243
		outer loop
			vertex 5.416522979736328 2.613178014755249 -2.4488885402679443
			vertex 0.6088896989822388 -5.028463840484619 -2.196896553039551
			vertex -2.0573527812957764 -3.07930064201355 -6.970361709594727
		endloop
	endfacet
	facet normal 0.6877619968521302 -0.45144262496862203 -0.5684918575031754
		outer loop
			vertex 5.416522979736328 2.613178014755249 -2.4488885402679443
			vertex 2.187223196029663 -5.390477657318115 0.000050067901611328125
			vertex 0.6088896989822388 -5.028463840484619 -2.196896553039551
		endloop
	endfacet
	facet normal 0.6877620463485081 -0.4514426262949004 -0.5684917965691991
		outer loop
			vertex 5.416522979736328 2.613178014755249 -2.4488885402679443
			vertex 5.416522979736328 -0.470716655254364 0.000050067901611328125
			vertex 2.187223196029663 -5.390477657318115 0.000050067901611328125
		endloop
	endfacet
	facet normal 0.12407512744086535 -0.960916126458121 -0.24747840443815214
		outer loop
			vertex 0.6088896989822388 -5.028463840484619 -2.196896553039551
			vertex 2.187223196029663 -5.390477657318115 0.000050067901611328125
			vertex 1.2666759490966797 -5.509340286254883 0.000050067901611328125
		endloop
	endfacet
	facet normal -0.5901656534893673 -0.8072821696541228 8.350892028093936e-9
		outer loop
			vertex 0.6088896989822388 -5.028463840484619 -2.196896553039551
			vertex -5.064073085784912 -0.8812301754951477 -1.9523295164108276
			vertex -2.0573527812957764 -3.07930064201355 -6.970361709594727
		endloop
	endfacet
	facet normal -0.5901656521235069 -0.8072821706526367 5.696556417161488e-8
		outer loop
			vertex 0.6088896989822388 -5.028463840484619 -2.196896553039551
			vertex -5.6718292236328125 -0.436928391456604 0.000050067901611328125
			vertex -5.064073085784912 -0.8812301754951477 -1.9523295164108276
		endloop
	endfacet
	facet normal -0.5901656760605646 -0.8072821531533909 -4.803941732223594e-8
		outer loop
			vertex 0.6088896989822388 -5.028463840484619 -2.196896553039551
			vertex 1.2666759490966797 -5.509340286254883 0.000050067901611328125
			vertex -5.6718292236328125 -0.436928391456604 0.000050067901611328125
		endloop
	endfacet
	facet normal -0.8762722284267015 -0.21969626734510708 -0.4288129333435853
		outer loop
			vertex -2.0573527812957764 -3.07930064201355 -6.970361709594727
			vertex -2.9807662963867188 -0.8996143937110901 -6.200112819671631
			vertex -2.027540922164917 -2.7350969314575195 -7.207629680633545
		endloop
	endfacet
	facet normal -0.8762721906803851 -0.21969621453578703 -0.42881303753366073
		outer loop
			vertex -2.0573527812957764 -3.07930064201355 -6.970361709594727
			vertex -5.064073085784912 -0.8812301754951477 -1.9523295164108276
			vertex -2.9807662963867188 -0.8996143937110901 -6.200112819671631
		endloop
	endfacet
	facet normal -0.2032713762455776 0.3879079383384315 -0.8990039927460037
		outer loop
			vertex 0.5688012838363647 4.450156211853027 -4.694343090057373
			vertex -2.027540922164917 -2.7350969314575195 -7.207629680633545
			vertex -2.9807662963867188 -0.8996143937110901 -6.200112819671631
		endloop
	endfacet
	facet normal -0.2032716537646525 0.38790800639746337 -0.8990039006303192
		outer loop
			vertex 0.5688012838363647 4.450156211853027 -4.694343090057373
			vertex 0.323620468378067 0.01953318901360035 -6.550659656524658
			vertex -2.027540922164917 -2.7350969314575195 -7.207629680633545
		endloop
	endfacet
endsolid exported
