solid exported
	facet normal 0.20327146843232127 -0.38790796434051455 0.8990039606823576
		outer loop
			vertex 0.3429555594921112 -7.258772850036621 3.276308536529541
			vertex 2.939297676086426 -0.07351982593536377 5.789595127105713
			vertex -0.6102697849273682 -5.423290729522705 4.283825397491455
		endloop
	endfacet
	facet normal 0.2032715219825302 -0.3879079774732168 0.8990039429076739
		outer loop
			vertex 0.3429555594921112 -7.258772850036621 3.276308536529541
			vertex 2.6941168308258057 -4.504142761230469 3.933278799057007
			vertex 2.939297676086426 -0.07351982593536377 5.789595127105713
		endloop
	endfacet
	facet normal -0.6240953191841606 -0.599302969803559 0.5013391895284619
		outer loop
			vertex 0.3429555594921112 -7.258772850036621 3.276308536529541
			vertex -0.05833814665675163 -7.515129089355469 2.470306158065796
			vertex 0.32886573672294617 -7.498149871826172 2.97261643409729
		endloop
	endfacet
	facet normal -0.6240950884499784 -0.5993032354916338 0.5013391591546317
		outer loop
			vertex 0.3429555594921112 -7.258772850036621 3.276308536529541
			vertex -2.481327533721924 -6.046891689300537 1.209171175956726
			vertex -0.05833814665675163 -7.515129089355469 2.470306158065796
		endloop
	endfacet
	facet normal -0.6240950519064562 -0.5993033921375746 0.5013390173907016
		outer loop
			vertex 0.3429555594921112 -7.258772850036621 3.276308536529541
			vertex -3.824136257171631 -3.216975450515747 2.920464515686035
			vertex -2.481327533721924 -6.046891689300537 1.209171175956726
		endloop
	endfacet
	facet normal -0.6240950693513035 -0.5993034143755663 0.5013389690909533
		outer loop
			vertex 0.3429555594921112 -7.258772850036621 3.276308536529541
			vertex -0.6102697849273682 -5.423290729522705 4.283825397491455
			vertex -3.824136257171631 -3.216975450515747 2.920464515686035
		endloop
	endfacet
	facet normal 0.6118233337689577 -0.6347693426524209 0.4719534827548707
		outer loop
			vertex 0.3429555594921112 -7.258772850036621 3.276308536529541
			vertex 2.9074630737304688 -5.673654556274414 2.083731174468994
			vertex 2.6941168308258057 -4.504142761230469 3.933278799057007
		endloop
	endfacet
	facet normal 0.6118233340138993 -0.6347692893174306 0.47195355417197643
		outer loop
			vertex 0.3429555594921112 -7.258772850036621 3.276308536529541
			vertex 0.7812128663063049 -7.478923797607422 2.4120686054229736
			vertex 2.9074630737304688 -5.673654556274414 2.083731174468994
		endloop
	endfacet
	facet normal 0.6118237118991372 -0.6347688633024096 0.47195363727778256
		outer loop
			vertex 0.3429555594921112 -7.258772850036621 3.276308536529541
			vertex 0.32886573672294617 -7.498149871826172 2.97261643409729
			vertex 0.7812128663063049 -7.478923797607422 2.4120686054229736
		endloop
	endfacet
	facet normal -0.9261826827229186 -0.3075274072327756 -0.2182029606235088
		outer loop
			vertex -3.1403212547302246 0.000050067901611328125 -4.516011714935303
			vertex -3.824136257171631 -3.216975450515747 2.920464515686035
			vertex -4.795254230499268 0.000050067901611328125 2.508504629135132
		endloop
	endfacet
	facet normal -0.926182671353244 -0.3075274340004545 -0.21820297115773893
		outer loop
			vertex -3.1403212547302246 0.000050067901611328125 -4.516011714935303
			vertex -2.481327533721924 -6.046891689300537 1.209171175956726
			vertex -3.824136257171631 -3.216975450515747 2.920464515686035
		endloop
	endfacet
	facet normal -0.926182692275284 -0.3075273989588595 -0.21820293173856553
		outer loop
			vertex -3.1403212547302246 0.000050067901611328125 -4.516011714935303
			vertex -1.9962551593780518 -3.445542812347412 -4.516011714935303
			vertex -2.481327533721924 -6.046891689300537 1.209171175956726
		endloop
	endfacet
	facet normal 0 1 0
		outer loop
			vertex -3.1403212547302246 0.000050067901611328125 -4.516011714935303
			vertex 4.807389259338379 0.000050067901611328125 -3.293417453765869
			vertex 3.4617414474487305 0.000050067901611328125 -4.516011714935303
		endloop
	endfacet
	facet normal 0 1 0
		outer loop
			vertex -3.1403212547302246 0.000050067901611328125 -4.516011714935303
			vertex 2.9488449096679688 0.000050067901611328125 5.793644905090332
			vertex 4.807389259338379 0.000050067901611328125 -3.293417453765869
		endloop
	endfacet
	facet normal 0 1 0
		outer loop
			vertex -3.1403212547302246 0.000050067901611328125 -4.516011714935303
			vertex -4.795254230499268 0.000050067901611328125 2.508504629135132
			vertex 2.9488449096679688 0.000050067901611328125 5.793644905090332
		endloop
	endfacet
	facet normal 0 0 -1
		outer loop
			vertex -3.1403212547302246 0.000050067901611328125 -4.516011714935303
			vertex -1.5189690589904785 -3.614436388015747 -4.516011714935303
			vertex -1.9962551593780518 -3.445542812347412 -4.516011714935303
		endloop
	endfacet
	facet normal 0 0 -1
		outer loop
			vertex -3.1403212547302246 0.000050067901611328125 -4.516011714935303
			vertex 3.4617414474487305 0.000050067901611328125 -4.516011714935303
			vertex -1.5189690589904785 -3.614436388015747 -4.516011714935303
		endloop
	endfacet
	facet normal 0.4932471888579772 -0.6796875533437335 -0.542892291816077
		outer loop
			vertex 4.807389259338379 0.000050067901611328125 -3.293417453765869
			vertex -1.5189690589904785 -3.614436388015747 -4.516011714935303
			vertex 3.4617414474487305 0.000050067901611328125 -4.516011714935303
		endloop
	endfacet
	facet normal 0.4932471712765915 -0.6796874905960635 -0.5428923863482218
		outer loop
			vertex 4.807389259338379 0.000050067901611328125 -3.293417453765869
			vertex 0.40507227182388306 -7.4953293800354 2.0908637046813965
			vertex -1.5189690589904785 -3.614436388015747 -4.516011714935303
		endloop
	endfacet
	facet normal 0.493247293456152 -0.6796874863942488 -0.5428922806020073
		outer loop
			vertex 4.807389259338379 0.000050067901611328125 -3.293417453765869
			vertex 0.7812128663063049 -7.478923797607422 2.4120686054229736
			vertex 0.40507227182388306 -7.4953293800354 2.0908637046813965
		endloop
	endfacet
	facet normal 0.4932472416372982 -0.6796874904965253 -0.5428923225463155
		outer loop
			vertex 4.807389259338379 0.000050067901611328125 -3.293417453765869
			vertex 2.9074630737304688 -5.673654556274414 2.083731174468994
			vertex 0.7812128663063049 -7.478923797607422 2.4120686054229736
		endloop
	endfacet
	facet normal 0.9704986796642177 -0.136868504467661 0.19849263274690093
		outer loop
			vertex 4.807389259338379 0.000050067901611328125 -3.293417453765869
			vertex 2.6941168308258057 -4.504142761230469 3.933278799057007
			vertex 2.9074630737304688 -5.673654556274414 2.083731174468994
		endloop
	endfacet
	facet normal 0.9704986795117047 -0.13686851639327383 0.19849262526940928
		outer loop
			vertex 4.807389259338379 0.000050067901611328125 -3.293417453765869
			vertex 2.939297676086426 -0.07351982593536377 5.789595127105713
			vertex 2.6941168308258057 -4.504142761230469 3.933278799057007
		endloop
	endfacet
	facet normal 0.9704986323788675 -0.13686886879720492 0.19849261272128438
		outer loop
			vertex 4.807389259338379 0.000050067901611328125 -3.293417453765869
			vertex 2.9488449096679688 0.000050067901611328125 5.793644905090332
			vertex 2.939297676086426 -0.07351982593536377 5.789595127105713
		endloop
	endfacet
	facet normal -0.39052616001660556 0.0000034245192497116507 0.9205918304715491
		outer loop
			vertex -4.795254230499268 0.000050067901611328125 2.508504629135132
			vertex 2.939297676086426 -0.07351982593536377 5.789595127105713
			vertex 2.9488449096679688 0.000050067901611328125 5.793644905090332
		endloop
	endfacet
	facet normal -0.39052618799259786 -4.5650822651604e-8 0.9205918186101636
		outer loop
			vertex -4.795254230499268 0.000050067901611328125 2.508504629135132
			vertex -0.6102697849273682 -5.423290729522705 4.283825397491455
			vertex 2.939297676086426 -0.07351982593536377 5.789595127105713
		endloop
	endfacet
	facet normal -0.3905261611888375 -2.1245281132190532e-8 0.9205918299806434
		outer loop
			vertex -4.795254230499268 0.000050067901611328125 2.508504629135132
			vertex -3.824136257171631 -3.216975450515747 2.920464515686035
			vertex -0.6102697849273682 -5.423290729522705 4.283825397491455
		endloop
	endfacet
	facet normal -0.3034553772071012 -0.8575513593322671 -0.4153558716949562
		outer loop
			vertex -2.481327533721924 -6.046891689300537 1.209171175956726
			vertex 0.40507227182388306 -7.4953293800354 2.0908637046813965
			vertex -0.05833814665675163 -7.515129089355469 2.470306158065796
		endloop
	endfacet
	facet normal -0.30345538566245406 -0.8575513651322477 -0.4153558535428022
		outer loop
			vertex -2.481327533721924 -6.046891689300537 1.209171175956726
			vertex -1.5189690589904785 -3.614436388015747 -4.516011714935303
			vertex 0.40507227182388306 -7.4953293800354 2.0908637046813965
		endloop
	endfacet
	facet normal -0.3034551603269736 -0.8575514464763709 -0.41535585022630284
		outer loop
			vertex -2.481327533721924 -6.046891689300537 1.209171175956726
			vertex -1.9962551593780518 -3.445542812347412 -4.516011714935303
			vertex -1.5189690589904785 -3.614436388015747 -4.516011714935303
		endloop
	endfacet
	facet normal 0.04312147864806353 -0.9990696952895989 0.0005310679361721653
		outer loop
			vertex 0.32886573672294617 -7.498149871826172 2.97261643409729
			vertex 0.40507227182388306 -7.4953293800354 2.0908637046813965
			vertex 0.7812128663063049 -7.478923797607422 2.4120686054229736
		endloop
	endfacet
	facet normal 0.04312114674860811 -0.9990697096301375 0.000531039205492888
		outer loop
			vertex 0.32886573672294617 -7.498149871826172 2.97261643409729
			vertex -0.05833814665675163 -7.515129089355469 2.470306158065796
			vertex 0.40507227182388306 -7.4953293800354 2.0908637046813965
		endloop
	endfacet
endsolid exported
