solid exported
	facet normal -0.49419245200669604 -0.3125345020727662 0.8112311664339196
		outer loop
			vertex -4.8476715087890625 1.0246690511703491 4.196953773498535
			vertex 0.000050067901611328125 1.0982389450073242 7.17847204208374
			vertex -4.813047409057617 1.0982389450073242 4.246389865875244
		endloop
	endfacet
	facet normal -0.49419198123124175 -0.31253706889895444 0.8112304643261311
		outer loop
			vertex -4.8476715087890625 1.0246690511703491 4.196953773498535
			vertex 0.000050067901611328125 -0.812309205532074 6.442408561706543
			vertex 0.000050067901611328125 1.0982389450073242 7.17847204208374
		endloop
	endfacet
	facet normal -0.4941919781209984 -0.31253704900765467 0.8112304738842356
		outer loop
			vertex -4.8476715087890625 1.0246690511703491 4.196953773498535
			vertex -5.0928521156311035 -3.405954122543335 2.340637683868408
			vertex 0.000050067901611328125 -0.812309205532074 6.442408561706543
		endloop
	endfacet
	facet normal -0.8719896570510436 0.08663445479016159 0.48179716607636375
		outer loop
			vertex -4.8476715087890625 1.0246690511703491 4.196953773498535
			vertex -4.813047409057617 1.0982389450073242 4.246389865875244
			vertex -4.8381242752075195 1.0982389450073242 4.2010040283203125
		endloop
	endfacet
	facet normal -0.970498745923377 0.1368683591737113 -0.1984924089688286
		outer loop
			vertex -4.8476715087890625 1.0246690511703491 4.196953773498535
			vertex -4.8795061111450195 -4.575465679168701 0.4910900890827179
			vertex -5.0928521156311035 -3.405954122543335 2.340637683868408
		endloop
	endfacet
	facet normal -0.9704986742914773 0.13686851804074532 -0.19849264965689586
		outer loop
			vertex -4.8476715087890625 1.0246690511703491 4.196953773498535
			vertex -2.9795796871185303 1.0982389450073242 -4.886058807373047
			vertex -4.8795061111450195 -4.575465679168701 0.4910900890827179
		endloop
	endfacet
	facet normal -0.9704984584804737 0.1368701316139752 -0.19849259220181945
		outer loop
			vertex -4.8476715087890625 1.0246690511703491 4.196953773498535
			vertex -4.8381242752075195 1.0982389450073242 4.2010040283203125
			vertex -2.9795796871185303 1.0982389450073242 -4.886058807373047
		endloop
	endfacet
	facet normal -0.4352470953727154 -0.5382360115047079 -0.7217076706597474
		outer loop
			vertex -0.9523274302482605 1.0982389450073242 -6.1086530685424805
			vertex -4.8795061111450195 -4.575465679168701 0.4910900890827179
			vertex -2.9795796871185303 1.0982389450073242 -4.886058807373047
		endloop
	endfacet
	facet normal -0.4352471367730704 -0.5382359806084005 -0.7217076687339256
		outer loop
			vertex -0.9523274302482605 1.0982389450073242 -6.1086530685424805
			vertex -0.3301995098590851 -5.754364967346191 -1.3733028173446655
			vertex -4.8795061111450195 -4.575465679168701 0.4910900890827179
		endloop
	endfacet
	facet normal -0.4352466398680161 -0.5382360874943373 -0.7217078886934725
		outer loop
			vertex -0.9523274302482605 1.0982389450073242 -6.1086530685424805
			vertex 0.000050067901611328125 -5.688316345214844 -1.6217271089553833
			vertex -0.3301995098590851 -5.754364967346191 -1.3733028173446655
		endloop
	endfacet
	facet normal -0.4352471304785377 -0.5382360025888928 -0.7217076561373921
		outer loop
			vertex -0.9523274302482605 1.0982389450073242 -6.1086530685424805
			vertex 0.000050067901611328125 0.3280943036079407 -6.1086530685424805
			vertex 0.000050067901611328125 -5.688316345214844 -1.6217271089553833
		endloop
	endfacet
	facet normal 0 1 0
		outer loop
			vertex -0.9523274302482605 1.0982389450073242 -6.1086530685424805
			vertex 0.000050067901611328125 1.0982389450073242 7.17847204208374
			vertex 0.000050067901611328125 1.0982389450073242 -6.1086530685424805
		endloop
	endfacet
	facet normal 0 1 0
		outer loop
			vertex -0.9523274302482605 1.0982389450073242 -6.1086530685424805
			vertex -4.813047409057617 1.0982389450073242 4.246389865875244
			vertex 0.000050067901611328125 1.0982389450073242 7.17847204208374
		endloop
	endfacet
	facet normal 0 1 0
		outer loop
			vertex -0.9523274302482605 1.0982389450073242 -6.1086530685424805
			vertex -4.8381242752075195 1.0982389450073242 4.2010040283203125
			vertex -4.813047409057617 1.0982389450073242 4.246389865875244
		endloop
	endfacet
	facet normal 0 1 0
		outer loop
			vertex -0.9523274302482605 1.0982389450073242 -6.1086530685424805
			vertex -2.9795796871185303 1.0982389450073242 -4.886058807373047
			vertex -4.8381242752075195 1.0982389450073242 4.2010040283203125
		endloop
	endfacet
	facet normal 0 0 -1
		outer loop
			vertex -0.9523274302482605 1.0982389450073242 -6.1086530685424805
			vertex 0.000050067901611328125 1.0982389450073242 -6.1086530685424805
			vertex 0.000050067901611328125 0.3280943036079407 -6.1086530685424805
		endloop
	endfacet
	facet normal 1 0 0
		outer loop
			vertex 0.000050067901611328125 1.0982389450073242 -6.1086530685424805
			vertex 0.000050067901611328125 -5.688316345214844 -1.6217271089553833
			vertex 0.000050067901611328125 0.3280943036079407 -6.1086530685424805
		endloop
	endfacet
	facet normal 1 0 0
		outer loop
			vertex 0.000050067901611328125 1.0982389450073242 -6.1086530685424805
			vertex 0.000050067901611328125 -5.754364967346191 -1.3733028173446655
			vertex 0.000050067901611328125 -5.688316345214844 -1.6217271089553833
		endloop
	endfacet
	facet normal 1 0 0
		outer loop
			vertex 0.000050067901611328125 1.0982389450073242 -6.1086530685424805
			vertex 0.000050067901611328125 -0.812309205532074 6.442408561706543
			vertex 0.000050067901611328125 -5.754364967346191 -1.3733028173446655
		endloop
	endfacet
	facet normal 1 0 0
		outer loop
			vertex 0.000050067901611328125 1.0982389450073242 -6.1086530685424805
			vertex 0.000050067901611328125 1.0982389450073242 7.17847204208374
			vertex 0.000050067901611328125 -0.812309205532074 6.442408561706543
		endloop
	endfacet
	facet normal 0 -0.966426299650134 -0.25694397705443395
		outer loop
			vertex 0.000050067901611328125 -5.754364967346191 -1.3733028173446655
			vertex -0.3301995098590851 -5.754364967346191 -1.3733028173446655
			vertex 0.000050067901611328125 -5.688316345214844 -1.6217271089553833
		endloop
	endfacet
	facet normal 0 -0.845204696762801 0.5344427196342952
		outer loop
			vertex 0.000050067901611328125 -5.754364967346191 -1.3733028173446655
			vertex -4.8795061111450195 -4.575465679168701 0.4910900890827179
			vertex -0.3301995098590851 -5.754364967346191 -1.3733028173446655
		endloop
	endfacet
	facet normal -1.2665380404964068e-7 -0.8452048464980576 0.5344424828325113
		outer loop
			vertex 0.000050067901611328125 -5.754364967346191 -1.3733028173446655
			vertex -5.0928521156311035 -3.405954122543335 2.340637683868408
			vertex -4.8795061111450195 -4.575465679168701 0.4910900890827179
		endloop
	endfacet
	facet normal -6.568852862624305e-9 -0.8452047721136517 0.5344426004692275
		outer loop
			vertex 0.000050067901611328125 -5.754364967346191 -1.3733028173446655
			vertex 0.000050067901611328125 -0.812309205532074 6.442408561706543
			vertex -5.0928521156311035 -3.405954122543335 2.340637683868408
		endloop
	endfacet
endsolid exported
