solid exported
	facet normal -0.5963890266300238 0.42464182596547007 0.6811750498631055
		outer loop
			vertex 3.588069200515747 4.873344659805298 -0.009753942489624023
			vertex 1.8014235496520996 1.821235477924347 0.3286573886871338
			vertex 3.2387442588806152 2.565984159708023 1.1228010654449463
		endloop
	endfacet
	facet normal -0.5963890764491179 0.4246418487195416 0.6811749920602036
		outer loop
			vertex 3.588069200515747 4.873344659805298 -0.009753942489624023
			vertex 2.9210357666015625 4.220009088516235 -0.18647480010986328
			vertex 1.8014235496520996 1.821235477924347 0.3286573886871338
		endloop
	endfacet
	facet normal 0 0.44062637272878935 0.8976905923846311
		outer loop
			vertex 3.588069200515747 4.873344659805298 -0.009753942489624023
			vertex 7.5 7.5 -1.2990329265594482
			vertex 6.9746862053871155 7.5 -1.2990329265594482
		endloop
	endfacet
	facet normal -1.2008908754329374e-8 0.4406263871414767 0.8976905853102446
		outer loop
			vertex 3.588069200515747 4.873344659805298 -0.009753942489624023
			vertex 7.5 2.565984159708023 1.1228010654449463
			vertex 7.5 7.5 -1.2990329265594482
		endloop
	endfacet
	facet normal 0 0.4406264035486056 0.8976905772568973
		outer loop
			vertex 3.588069200515747 4.873344659805298 -0.009753942489624023
			vertex 3.2387442588806152 2.565984159708023 1.1228010654449463
			vertex 7.5 2.565984159708023 1.1228010654449463
		endloop
	endfacet
	facet normal -0.6495154848889374 0.7250609179248333 -0.22894606392660882
		outer loop
			vertex 3.588069200515747 4.873344659805298 -0.009753942489624023
			vertex 1.6048736572265625 2.4757868349552155 -1.9764147996902466
			vertex 2.9210357666015625 4.220009088516235 -0.18647480010986328
		endloop
	endfacet
	facet normal -0.6495155091815159 0.7250609077971015 -0.22894602708306472
		outer loop
			vertex 3.588069200515747 4.873344659805298 -0.009753942489624023
			vertex 4.800578355789185 3.5943920016288757 -7.5
			vertex 1.6048736572265625 2.4757868349552155 -1.9764147996902466
		endloop
	endfacet
	facet normal -0.6495155477962694 0.7250608731024889 -0.22894602740988643
		outer loop
			vertex 3.588069200515747 4.873344659805298 -0.009753942489624023
			vertex 7.5 6.012556314468384 -7.5
			vertex 4.800578355789185 3.5943920016288757 -7.5
		endloop
	endfacet
	facet normal -0.6495155312902201 0.7250608914940534 -0.22894601599204967
		outer loop
			vertex 3.588069200515747 4.873344659805298 -0.009753942489624023
			vertex 7.5 7.5 -2.789338231086731
			vertex 7.5 6.012556314468384 -7.5
		endloop
	endfacet
	facet normal -0.6495155327727112 0.7250608886622296 -0.2289460207544984
		outer loop
			vertex 3.588069200515747 4.873344659805298 -0.009753942489624023
			vertex 6.9746862053871155 7.5 -1.2990329265594482
			vertex 7.5 7.5 -2.789338231086731
		endloop
	endfacet
	facet normal 0 1 0
		outer loop
			vertex 7.5 7.5 -2.789338231086731
			vertex 6.9746862053871155 7.5 -1.2990329265594482
			vertex 7.5 7.5 -1.2990329265594482
		endloop
	endfacet
	facet normal 1 0 0
		outer loop
			vertex 7.5 7.5 -2.789338231086731
			vertex 7.5 -2.0476202964782715 -7.5
			vertex 7.5 6.012556314468384 -7.5
		endloop
	endfacet
	facet normal 1 0 0
		outer loop
			vertex 7.5 7.5 -2.789338231086731
			vertex 7.5 -4.134321212768555 -6.021898508071899
			vertex 7.5 -2.0476202964782715 -7.5
		endloop
	endfacet
	facet normal 1 0 0
		outer loop
			vertex 7.5 7.5 -2.789338231086731
			vertex 7.5 2.565984159708023 1.1228010654449463
			vertex 7.5 -4.134321212768555 -6.021898508071899
		endloop
	endfacet
	facet normal 1 0 0
		outer loop
			vertex 7.5 7.5 -2.789338231086731
			vertex 7.5 7.5 -1.2990329265594482
			vertex 7.5 2.565984159708023 1.1228010654449463
		endloop
	endfacet
	facet normal 0 0 -1
		outer loop
			vertex 7.5 6.012556314468384 -7.5
			vertex 7.5 -2.0476202964782715 -7.5
			vertex 4.800578355789185 3.5943920016288757 -7.5
		endloop
	endfacet
	facet normal -0.8701809225163116 0.4494957172420174 0.20183845587435792
		outer loop
			vertex 1.2408075332641602 1.0873372554779053 -0.4539163112640381
			vertex 2.9210357666015625 4.220009088516235 -0.18647480010986328
			vertex 1.6048736572265625 2.4757868349552155 -1.9764147996902466
		endloop
	endfacet
	facet normal -0.8701809645557658 0.4494957641889451 0.2018381700793827
		outer loop
			vertex 1.2408075332641602 1.0873372554779053 -0.4539163112640381
			vertex 1.8014235496520996 1.821235477924347 0.3286573886871338
			vertex 2.9210357666015625 4.220009088516235 -0.18647480010986328
		endloop
	endfacet
	facet normal -0.7703378031205231 -0.3685682645440123 -0.5203240369754806
		outer loop
			vertex 1.2408075332641602 1.0873372554779053 -0.4539163112640381
			vertex 7.5 -2.0476202964782715 -7.5
			vertex 7.5 -4.134321212768555 -6.021898508071899
		endloop
	endfacet
	facet normal -0.7703378057807919 -0.3685682406215567 -0.5203240499822829
		outer loop
			vertex 1.2408075332641602 1.0873372554779053 -0.4539163112640381
			vertex 4.800578355789185 3.5943920016288757 -7.5
			vertex 7.5 -2.0476202964782715 -7.5
		endloop
	endfacet
	facet normal -0.7703376739008346 -0.36856848670966724 -0.5203240709150376
		outer loop
			vertex 1.2408075332641602 1.0873372554779053 -0.4539163112640381
			vertex 1.6048736572265625 2.4757868349552155 -1.9764147996902466
			vertex 4.800578355789185 3.5943920016288757 -7.5
		endloop
	endfacet
	facet normal 1.0593404470564714e-7 -0.729427763845366 0.6840578464804989
		outer loop
			vertex 1.2408075332641602 1.0873372554779053 -0.4539163112640381
			vertex 3.2387442588806152 2.565984159708023 1.1228010654449463
			vertex 1.8014235496520996 1.821235477924347 0.3286573886871338
		endloop
	endfacet
	facet normal 0 -0.7294276968663898 0.6840579179018356
		outer loop
			vertex 1.2408075332641602 1.0873372554779053 -0.4539163112640381
			vertex 7.5 2.565984159708023 1.1228010654449463
			vertex 3.2387442588806152 2.565984159708023 1.1228010654449463
		endloop
	endfacet
	facet normal -6.533292133171523e-11 -0.7294276967369786 0.6840579180398298
		outer loop
			vertex 1.2408075332641602 1.0873372554779053 -0.4539163112640381
			vertex 7.5 -4.134321212768555 -6.021898508071899
			vertex 7.5 2.565984159708023 1.1228010654449463
		endloop
	endfacet
endsolid exported
