solid exported
	facet normal 0 0 -1
		outer loop
			vertex 0.000050067901611328125 -2.4708051681518555 -3.0695204734802246
			vertex -5.11615514755249 0.9980367422103882 -3.0695204734802246
			vertex 0.000050067901611328125 3.7394487857818604 -3.0695204734802246
		endloop
	endfacet
	facet normal 0 0 -1
		outer loop
			vertex 0.000050067901611328125 -2.4708051681518555 -3.0695204734802246
			vertex -3.91570782661438 -2.4708051681518555 -3.0695204734802246
			vertex -5.11615514755249 0.9980367422103882 -3.0695204734802246
		endloop
	endfacet
	facet normal 1 0 0
		outer loop
			vertex 0.000050067901611328125 -2.4708051681518555 -3.0695204734802246
			vertex 0.000050067901611328125 -0.9090076684951782 5.597898960113525
			vertex 0.000050067901611328125 -2.4708051681518555 5.179931163787842
		endloop
	endfacet
	facet normal 1 0 0
		outer loop
			vertex 0.000050067901611328125 -2.4708051681518555 -3.0695204734802246
			vertex 0.000050067901611328125 5.676590919494629 1.6658295392990112
			vertex 0.000050067901611328125 -0.9090076684951782 5.597898960113525
		endloop
	endfacet
	facet normal 1 0 0
		outer loop
			vertex 0.000050067901611328125 -2.4708051681518555 -3.0695204734802246
			vertex 0.000050067901611328125 5.742639541625977 1.4174052476882935
			vertex 0.000050067901611328125 5.676590919494629 1.6658295392990112
		endloop
	endfacet
	facet normal 1 0 0
		outer loop
			vertex 0.000050067901611328125 -2.4708051681518555 -3.0695204734802246
			vertex 0.000050067901611328125 3.7394487857818604 -3.0695204734802246
			vertex 0.000050067901611328125 5.742639541625977 1.4174052476882935
		endloop
	endfacet
	facet normal 0 -1 0
		outer loop
			vertex 0.000050067901611328125 -2.4708051681518555 -3.0695204734802246
			vertex -2.4553115367889404 -2.4708051681518555 4.0991644859313965
			vertex -3.91570782661438 -2.4708051681518555 -3.0695204734802246
		endloop
	endfacet
	facet normal 0 -1 0
		outer loop
			vertex 0.000050067901611328125 -2.4708051681518555 -3.0695204734802246
			vertex 0.000050067901611328125 -2.4708051681518555 5.179931163787842
			vertex -2.4553115367889404 -2.4708051681518555 4.0991644859313965
		endloop
	endfacet
	facet normal -0.4394950358647293 0.8202148232076566 -0.3661854137464971
		outer loop
			vertex -5.11615514755249 0.9980367422103882 -3.0695204734802246
			vertex 0.000050067901611328125 5.742639541625977 1.4174052476882935
			vertex 0.000050067901611328125 3.7394487857818604 -3.0695204734802246
		endloop
	endfacet
	facet normal -0.4394956184558041 0.8202148126148502 -0.36618473824742664
		outer loop
			vertex -5.11615514755249 0.9980367422103882 -3.0695204734802246
			vertex -0.3301995098590851 5.676590919494629 1.6658295392990112
			vertex 0.000050067901611328125 5.742639541625977 1.4174052476882935
		endloop
	endfacet
	facet normal -0.43949499579626916 0.8202148491718323 -0.3661854036797018
		outer loop
			vertex -5.11615514755249 0.9980367422103882 -3.0695204734802246
			vertex -4.871918678283691 3.7551815509796143 2.813047170639038
			vertex -0.3301995098590851 5.676590919494629 1.6658295392990112
		endloop
	endfacet
	facet normal -0.9279716964927239 -0.32113922008712437 0.18904531686939446
		outer loop
			vertex -5.11615514755249 0.9980367422103882 -3.0695204734802246
			vertex -3.531195878982544 0.8885537385940552 4.524627208709717
			vertex -4.871918678283691 3.7551815509796143 2.813047170639038
		endloop
	endfacet
	facet normal -0.9279716917346735 -0.3211392345433638 0.18904531566793922
		outer loop
			vertex -5.11615514755249 0.9980367422103882 -3.0695204734802246
			vertex -2.4553115367889404 -2.4708051681518555 4.0991644859313965
			vertex -3.531195878982544 0.8885537385940552 4.524627208709717
		endloop
	endfacet
	facet normal -0.9279716981609113 -0.3211392066141533 0.18904533156781905
		outer loop
			vertex -5.11615514755249 0.9980367422103882 -3.0695204734802246
			vertex -3.91570782661438 -2.4708051681518555 -3.0695204734802246
			vertex -2.4553115367889404 -2.4708051681518555 4.0991644859313965
		endloop
	endfacet
	facet normal -0.39129864253014596 -0.23790843390456146 0.8889797238582803
		outer loop
			vertex 0.000050067901611328125 -2.4708051681518555 5.179931163787842
			vertex -3.531195878982544 0.8885537385940552 4.524627208709717
			vertex -2.4553115367889404 -2.4708051681518555 4.0991644859313965
		endloop
	endfacet
	facet normal -0.39129868767139975 -0.23790848805853415 0.8889796894959653
		outer loop
			vertex 0.000050067901611328125 -2.4708051681518555 5.179931163787842
			vertex 0.000050067901611328125 -0.9090076684951782 5.597898960113525
			vertex -3.531195878982544 0.8885537385940552 4.524627208709717
		endloop
	endfacet
	facet normal -4.800687469891684e-8 0.5126453296009705 0.8586004693909212
		outer loop
			vertex 0.000050067901611328125 -0.9090076684951782 5.597898960113525
			vertex -4.871918678283691 3.7551815509796143 2.813047170639038
			vertex -3.531195878982544 0.8885537385940552 4.524627208709717
		endloop
	endfacet
	facet normal -5.895603148866715e-9 0.5126453620281312 0.8586004500296086
		outer loop
			vertex 0.000050067901611328125 -0.9090076684951782 5.597898960113525
			vertex -0.3301995098590851 5.676590919494629 1.6658295392990112
			vertex -4.871918678283691 3.7551815509796143 2.813047170639038
		endloop
	endfacet
	facet normal 0 0.5126453622460815 0.8586004498994768
		outer loop
			vertex 0.000050067901611328125 -0.9090076684951782 5.597898960113525
			vertex 0.000050067901611328125 5.676590919494629 1.6658295392990112
			vertex -0.3301995098590851 5.676590919494629 1.6658295392990112
		endloop
	endfacet
	facet normal 0 0.966426299650134 0.25694397705443395
		outer loop
			vertex 0.000050067901611328125 5.742639541625977 1.4174052476882935
			vertex -0.3301995098590851 5.676590919494629 1.6658295392990112
			vertex 0.000050067901611328125 5.676590919494629 1.6658295392990112
		endloop
	endfacet
endsolid exported
