solid exported
	facet normal -0.6179722085142637 0.2935978329073687 -0.729322056444271
		outer loop
			vertex 0.4810498356819153 -7.5 -7.457634449005127
			vertex -6.551885604858398 -5.0552003383636475 -0.5142731666564941
			vertex -2.3877058029174805 -2.2536797523498535 -2.91489577293396
		endloop
	endfacet
	facet normal -0.617972226239087 0.29359778921646584 -0.7293220590139246
		outer loop
			vertex 0.4810498356819153 -7.5 -7.457634449005127
			vertex -7.5 -6.412262201309204 -0.2572152614593506
			vertex -6.551885604858398 -5.0552003383636475 -0.5142731666564941
		endloop
	endfacet
	facet normal -0.6179722193730659 0.2935978134712563 -0.7293220550675982
		outer loop
			vertex 0.4810498356819153 -7.5 -7.457634449005127
			vertex -7.5 -7.5 -0.6950978636741638
			vertex -7.5 -6.412262201309204 -0.2572152614593506
		endloop
	endfacet
	facet normal 0.15286935133052337 0.6933502282702212 -0.7041991354591522
		outer loop
			vertex 0.4810498356819153 -7.5 -7.457634449005127
			vertex 0.19813227653503418 0.20125627517700195 0.0635596364736557
			vertex 6.541565895080566 -7.5 -6.142002105712891
		endloop
	endfacet
	facet normal 0.15286907124886887 0.6933502532960392 -0.7041991716196679
		outer loop
			vertex 0.4810498356819153 -7.5 -7.457634449005127
			vertex -0.3589192032814026 0.11540985107421875 -0.14189016819000244
			vertex 0.19813227653503418 0.20125627517700195 0.0635596364736557
		endloop
	endfacet
	facet normal 0.15286934508421404 0.6933502394707113 -0.7041991257871816
		outer loop
			vertex 0.4810498356819153 -7.5 -7.457634449005127
			vertex -2.3877058029174805 -2.2536797523498535 -2.91489577293396
			vertex -0.3589192032814026 0.11540985107421875 -0.14189016819000244
		endloop
	endfacet
	facet normal 0 -1 0
		outer loop
			vertex 0.4810498356819153 -7.5 -7.457634449005127
			vertex -7.5 -7.5 1.0237383842468262
			vertex -7.5 -7.5 -0.6950978636741638
		endloop
	endfacet
	facet normal 0 -1 0
		outer loop
			vertex 0.4810498356819153 -7.5 -7.457634449005127
			vertex -5.5666303634643555 -7.5 3.758391857147217
			vertex -7.5 -7.5 1.0237383842468262
		endloop
	endfacet
	facet normal 0 -1 0
		outer loop
			vertex 0.4810498356819153 -7.5 -7.457634449005127
			vertex 5.2321271896362305 -7.5 4.176413536071777
			vertex -5.5666303634643555 -7.5 3.758391857147217
		endloop
	endfacet
	facet normal 0 -1 0
		outer loop
			vertex 0.4810498356819153 -7.5 -7.457634449005127
			vertex 6.541565895080566 -7.5 -6.142002105712891
			vertex 5.2321271896362305 -7.5 4.176413536071777
		endloop
	endfacet
	facet normal 0.3629163993792112 0.6934368233991994 0.6224444224311569
		outer loop
			vertex 1.4474756717681885 -1.9945554733276367 2.7016706466674805
			vertex -0.08890283107757568 0.2604374885559082 1.085272192955017
			vertex -0.43070346117019653 -0.656580924987793 2.3061673641204834
		endloop
	endfacet
	facet normal 0.3629166161889439 0.693436855149494 0.6224442606485712
		outer loop
			vertex 1.4474756717681885 -1.9945554733276367 2.7016706466674805
			vertex 0.030411703512072563 0.267669677734375 1.0076487064361572
			vertex -0.08890283107757568 0.2604374885559082 1.085272192955017
		endloop
	endfacet
	facet normal -0.037603878671774095 0.2343641995553455 0.9714213145055139
		outer loop
			vertex 1.4474756717681885 -1.9945554733276367 2.7016706466674805
			vertex -5.5666303634643555 -7.5 3.758391857147217
			vertex 5.2321271896362305 -7.5 4.176413536071777
		endloop
	endfacet
	facet normal -0.03760390691951475 0.23436423375046325 0.9714213051621562
		outer loop
			vertex 1.4474756717681885 -1.9945554733276367 2.7016706466674805
			vertex -1.0306808948516846 -0.8356776237487793 2.326150894165039
			vertex -5.5666303634643555 -7.5 3.758391857147217
		endloop
	endfacet
	facet normal -0.03760384291573253 0.23436436143747114 0.9714212768340909
		outer loop
			vertex 1.4474756717681885 -1.9945554733276367 2.7016706466674805
			vertex -0.43070346117019653 -0.656580924987793 2.3061673641204834
			vertex -1.0306808948516846 -0.8356776237487793 2.326150894165039
		endloop
	endfacet
	facet normal 0.8067224087259917 0.5819950118419327 0.1023755901103534
		outer loop
			vertex 1.4474756717681885 -1.9945554733276367 2.7016706466674805
			vertex 0.19813227653503418 0.20125627517700195 0.0635596364736557
			vertex 0.030411703512072563 0.267669677734375 1.0076487064361572
		endloop
	endfacet
	facet normal 0.8067224394338873 0.5819949769442639 0.10237554652105135
		outer loop
			vertex 1.4474756717681885 -1.9945554733276367 2.7016706466674805
			vertex 6.541565895080566 -7.5 -6.142002105712891
			vertex 0.19813227653503418 0.20125627517700195 0.0635596364736557
		endloop
	endfacet
	facet normal 0.8067224489488688 0.5819949610507053 0.10237556189603007
		outer loop
			vertex 1.4474756717681885 -1.9945554733276367 2.7016706466674805
			vertex 5.2321271896362305 -7.5 4.176413536071777
			vertex 6.541565895080566 -7.5 -6.142002105712891
		endloop
	endfacet
	facet normal -0.6219425661154574 0.7588353932247893 -0.1932777546514328
		outer loop
			vertex -2.3877058029174805 -2.2536797523498535 -2.91489577293396
			vertex -0.6197530627250671 0.1866779327392578 0.9772475361824036
			vertex -0.3589192032814026 0.11540985107421875 -0.14189016819000244
		endloop
	endfacet
	facet normal -0.6219424326761516 0.7588354742189112 -0.19327786604738598
		outer loop
			vertex -2.3877058029174805 -2.2536797523498535 -2.91489577293396
			vertex -1.2197917699813843 -0.21564960479736328 1.3284989595413208
			vertex -0.6197530627250671 0.1866779327392578 0.9772475361824036
		endloop
	endfacet
	facet normal -0.6219424729706159 0.7588354473100082 -0.19327784203321052
		outer loop
			vertex -2.3877058029174805 -2.2536797523498535 -2.91489577293396
			vertex -6.551885604858398 -5.0552003383636475 -0.5142731666564941
			vertex -1.2197917699813843 -0.21564960479736328 1.3284989595413208
		endloop
	endfacet
	facet normal -0.6752735748964801 0.5622138507892094 0.4774109184207003
		outer loop
			vertex -5.5666303634643555 -7.5 3.758391857147217
			vertex -7.5 -6.412262201309204 -0.2572152614593506
			vertex -7.5 -7.5 1.0237383842468262
		endloop
	endfacet
	facet normal -0.6752736213607662 0.5622137899733678 0.4774109243179282
		outer loop
			vertex -5.5666303634643555 -7.5 3.758391857147217
			vertex -6.551885604858398 -5.0552003383636475 -0.5142731666564941
			vertex -7.5 -6.412262201309204 -0.2572152614593506
		endloop
	endfacet
	facet normal -0.6752735630204906 0.5622138448201507 0.4774109422480335
		outer loop
			vertex -5.5666303634643555 -7.5 3.758391857147217
			vertex -1.2197917699813843 -0.21564960479736328 1.3284989595413208
			vertex -6.551885604858398 -5.0552003383636475 -0.5142731666564941
		endloop
	endfacet
	facet normal -0.6752735853112752 0.5622138468191812 0.4774109083647273
		outer loop
			vertex -5.5666303634643555 -7.5 3.758391857147217
			vertex -1.0306808948516846 -0.8356776237487793 2.326150894165039
			vertex -1.2197917699813843 -0.21564960479736328 1.3284989595413208
		endloop
	endfacet
	facet normal -0.11892973163813995 0.9887528279859947 -0.09068386891933015
		outer loop
			vertex 0.030411703512072563 0.267669677734375 1.0076487064361572
			vertex -0.6197530627250671 0.1866779327392578 0.9772475361824036
			vertex -0.08890283107757568 0.2604374885559082 1.085272192955017
		endloop
	endfacet
	facet normal -0.11892974766161925 0.988752851694757 -0.09068358940089143
		outer loop
			vertex 0.030411703512072563 0.267669677734375 1.0076487064361572
			vertex -0.3589192032814026 0.11540985107421875 -0.14189016819000244
			vertex -0.6197530627250671 0.1866779327392578 0.9772475361824036
		endloop
	endfacet
	facet normal -0.11892970499679184 0.9887528554556293 -0.0906836043489424
		outer loop
			vertex 0.030411703512072563 0.267669677734375 1.0076487064361572
			vertex 0.19813227653503418 0.20125627517700195 0.0635596364736557
			vertex -0.3589192032814026 0.11540985107421875 -0.14189016819000244
		endloop
	endfacet
	facet normal -1 0 0
		outer loop
			vertex -7.5 -6.412262201309204 -0.2572152614593506
			vertex -7.5 -7.5 -0.6950978636741638
			vertex -7.5 -7.5 1.0237383842468262
		endloop
	endfacet
	facet normal -0.2231660447990528 0.808388662008398 0.5447060561302945
		outer loop
			vertex -0.08890283107757568 0.2604374885559082 1.085272192955017
			vertex -1.0306808948516846 -0.8356776237487793 2.326150894165039
			vertex -0.43070346117019653 -0.656580924987793 2.3061673641204834
		endloop
	endfacet
	facet normal -0.22316637971576722 0.8083887114179144 0.5447058455869941
		outer loop
			vertex -0.08890283107757568 0.2604374885559082 1.085272192955017
			vertex -1.2197917699813843 -0.21564960479736328 1.3284989595413208
			vertex -1.0306808948516846 -0.8356776237487793 2.326150894165039
		endloop
	endfacet
	facet normal -0.22316657029243067 0.8083889462051017 0.5447054190636612
		outer loop
			vertex -0.08890283107757568 0.2604374885559082 1.085272192955017
			vertex -0.6197530627250671 0.1866779327392578 0.9772475361824036
			vertex -1.2197917699813843 -0.21564960479736328 1.3284989595413208
		endloop
	endfacet
endsolid exported
